<?xml version="1.0" encoding="UTF-8" standalone="no"?>
<svg
   xmlns:dc="http://purl.org/dc/elements/1.1/"
   xmlns:cc="http://creativecommons.org/ns#"
   xmlns:rdf="http://www.w3.org/1999/02/22-rdf-syntax-ns#"
   xmlns:svg="http://www.w3.org/2000/svg"
   xmlns="http://www.w3.org/2000/svg"
   xmlns:sodipodi="http://sodipodi.sourceforge.net/DTD/sodipodi-0.dtd"
   xmlns:inkscape="http://www.inkscape.org/namespaces/inkscape"
   width="2500"
   height="2500"
   viewBox="0 0 192.756 192.756"
   version="1.1"
   id="svg50"
   sodipodi:docname="cote-d-or_c.svg"
   inkscape:version="1.0.2-2 (e86c870879, 2021-01-15)">
  <metadata
     id="metadata56">
    <rdf:RDF>
      <cc:Work
         rdf:about="">
        <dc:format>image/svg+xml</dc:format>
        <dc:type
           rdf:resource="http://purl.org/dc/dcmitype/StillImage" />
        <dc:title></dc:title>
      </cc:Work>
    </rdf:RDF>
  </metadata>
  <defs
     id="defs54" />
  <sodipodi:namedview
     pagecolor="#ffffff"
     bordercolor="#666666"
     borderopacity="1"
     objecttolerance="10"
     gridtolerance="10"
     guidetolerance="10"
     inkscape:pageopacity="0"
     inkscape:pageshadow="2"
     inkscape:window-width="2560"
     inkscape:window-height="1361"
     id="namedview52"
     showgrid="false"
     inkscape:zoom="0.20788939"
     inkscape:cx="-759.29319"
     inkscape:cy="1883.9568"
     inkscape:window-x="-9"
     inkscape:window-y="623"
     inkscape:window-maximized="1"
     inkscape:current-layer="svg50" />
  <g
     id="g920">
    <path
       d="m 91.468,115.512 c -1.36,-1.626 -3.574,-2.819 -7.022,-2.819 -2.173,0 -4.296,0.528 -6.247,1.455 l -0.813,-0.904 H 75.37 l 1.002,-2.794 -3.749,-4.213 -9.166,2.533 -1.588,4.427 -7.181,-8.879 -10.348,4.391 -0.857,5.185 c -0.458,0.188 -0.907,0.399 -1.352,0.63 l 2.65,-10.181 -1.603,-1.999 -1.502,-0.894 c -3.245,-1.928 -6.656,-2.215 -8.402,-2.215 -6.2,0 -12.245,2.628 -17.02,7.403 -4.925,4.925 -7.75,11.459 -7.75,17.928 0,3.629 1.233,6.94 3.134,9.674 0,0 4.645,6.35 13.106,6.419 3.772,0.029 7.454,-0.962 10.945,-2.859 l 1.145,-0.937 c 0.054,0.06 2.522,3.072 7.771,3.072 4.546,0 8.876,-2.136 11.954,-5.388 0.11,0.211 0.672,1.716 1.93,3.058 1.072,1.143 3.155,2.33 6.379,2.33 2.174,0 4.253,-0.385 5.139,-0.61 l 1.747,-0.45 v -2.958 c 0.267,0.387 0.563,0.755 0.895,1.101 1.776,1.854 4.33,2.918 7.004,2.918 4.28,0 8.523,-1.482 11.942,-4.18 l 0.939,-0.74 -0.224,-4.852 0.645,-0.104 0.457,-1.309 c 3.058,-8.439 -1.549,-12.793 -1.944,-13.239 z m -53.644,2.163 c -2.521,2.521 -4.172,5.65 -4.709,8.836 l -0.125,-0.06 -1.082,0.653 c -0.957,0.578 -4.008,2.079 -6.615,2.079 -0.74,0 -1.34,-0.299 -1.662,-0.77 -0.463,-0.669 -0.868,-1.894 -0.868,-3.219 0,-7.466 5.874,-14.109 10.506,-14.109 0.876,0 1.696,0.442 2.058,0.739 1.143,0.936 1.522,3.79 1.522,3.79 h 3.46 a 17.64,17.64 0 0 0 -2.485,2.061 z"
       fill="#7d3033"
       id="path4"
       style="clip-rule:evenodd;fill-rule:evenodd;fill:#000000;fill-opacity:1" />
    <path
       d="m 53.255,131.649 c -2.822,2.821 -6.559,4.441 -10.251,4.441 -2.471,0 -4.828,-0.883 -6.305,-2.361 -1.281,-1.28 -1.931,-2.949 -1.931,-4.962 0,-3.437 1.58,-6.993 4.336,-9.759 2.825,-2.838 6.572,-4.469 10.277,-4.469 2.47,0 4.826,0.881 6.305,2.359 1.28,1.281 1.931,2.952 1.931,4.965 0.001,3.447 -1.589,7.016 -4.362,9.786 z m 15.698,-12.461 -2.265,6.308 -0.27,0.732 c -0.464,1.246 -1.24,3.332 -1.24,4.295 0,0.602 0.129,0.997 0.418,1.286 0.405,0.405 1.155,0.609 2.23,0.609 h 0.479 v 3.025 l -0.359,0.092 c -0.747,0.193 -2.686,0.555 -4.68,0.555 -2.848,0 -4.194,-1.079 -4.823,-1.981 -0.904,-1.301 -1.002,-3.182 -0.269,-5.15 l 3.505,-9.769 h -3.682 l 0.229,-0.64 1.243,-3.461 h 3.682 l 1.635,-4.561 0.084,-0.23 0.239,-0.067 6.675,-1.848 0.273,-0.074 0.195,0.204 0.18,0.185 0.207,0.215 -2.218,6.177 h 4.336 l -0.23,0.641 -1.128,3.141 -0.112,0.316 z"
       fill="#ffffff"
       id="path6"
       style="clip-rule:evenodd;fill-rule:evenodd" />
    <path
       d="m 90.068,126.144 -0.095,0.269 -0.28,0.045 -11.746,1.897 c 0.018,0.764 0.195,1.686 0.832,2.351 0.533,0.557 1.31,0.841 2.31,0.841 2.083,0 4.363,-1.092 6.778,-3.242 l 0.221,-0.198 0.274,0.107 0.224,0.093 0.286,0.111 0.014,0.31 0.146,3.183 0.011,0.246 -0.192,0.152 c -3.096,2.439 -6.931,3.783 -10.798,3.783 -2.143,0 -4.262,-0.879 -5.67,-2.348 -1.358,-1.422 -2.026,-3.314 -1.933,-5.479 0.148,-3.356 1.714,-6.794 4.298,-9.428 2.717,-2.77 6.161,-4.296 9.698,-4.296 2.486,0 4.313,0.798 5.428,2.371 1.479,2.083 1.548,5.364 0.194,9.232 z"
       fill="#ffffff"
       id="path8"
       style="clip-rule:evenodd;fill-rule:evenodd" />
    <path
       d="m 42.257,128.627 c 0,-2.544 1.39,-5.708 3.378,-7.698 0.966,-0.967 1.945,-1.497 2.758,-1.497 0.471,0 0.833,0.133 1.108,0.406 0.41,0.411 0.627,1.159 0.627,2.166 0,4.263 -3.713,9.196 -6.134,9.196 -0.473,0 -0.834,-0.133 -1.108,-0.406 -0.41,-0.412 -0.629,-1.162 -0.629,-2.167 z"
       fill="#7d3033"
       id="path10"
       style="clip-rule:evenodd;fill-rule:evenodd" />
    <path
       d="m 33.773,129.218 -0.319,4.574 -0.019,0.262 -0.231,0.124 c -3.217,1.749 -6.604,2.634 -10.063,2.634 -3.586,0 -7.129,-1.401 -9.477,-3.749 -2.168,-2.167 -3.314,-5.106 -3.314,-8.497 0,-12.291 10.926,-23.484 22.922,-23.484 1.556,0 4.593,0.254 7.458,1.956 l 0.309,0.185 -0.09,0.347 -2.041,7.844 -0.093,0.357 h -1.343 l -0.128,-0.281 c -1.234,-2.738 -3.252,-4.246 -5.681,-4.246 -2.297,0 -4.9,1.285 -7.141,3.524 -3.264,3.265 -5.212,7.911 -5.212,12.432 0,2.666 0.783,4.978 2.146,6.342 0.99,0.989 2.279,1.49 3.833,1.49 2.921,0 6.229,-1.533 7.571,-2.345 l 0.223,-0.135 0.234,0.114 0.187,0.09 0.29,0.141 z m 11.737,-16.262 0.443,-2.685 0.042,-0.258 0.243,-0.104 7.559,-3.209 0.331,-0.138 0.226,0.277 4.09,5.046 0.226,0.279 -0.205,0.294 -1.708,2.462 -0.287,0.413 -0.399,-0.309 -4.153,-3.23 -5.803,1.697 -0.728,0.213 z"
       fill="#ffffff"
       id="path12"
       style="clip-rule:evenodd;fill-rule:evenodd" />
    <path
       d="m 182.648,113.541 -2.705,-0.486 c -1.955,-0.352 -4.105,0.005 -6.078,0.899 l 0.09,-0.724 -7.311,10e-4 c -0.73,-5.447 -4.564,-9.179 -5.182,-9.796 -2.674,-2.675 -6.678,-4.208 -10.98,-4.208 -4.736,0 -9.387,1.545 -13.455,4.412 a 4.457,4.457 0 0 0 -0.559,-0.79 c 0,0 -1.932,-2.369 -1.928,-2.341 -1.021,-0.948 -2.402,-1.32 -3.686,-1.21 -2.504,0.22 -5.008,2.478 -4.824,5.511 h -7.418 l -2.955,8.189 c -0.826,-0.19 -1.66,-0.309 -2.363,-0.309 -3.988,0 -7.982,1.71 -10.961,4.688 -3.051,3.05 -4.803,7.186 -4.803,11.347 0,2.066 0.59,4.155 1.654,6.014 0.932,1.633 3.904,5.205 8.264,5.195 1.15,-0.003 2.324,-0.255 3.414,-0.658 v 0.111 h 10.592 l 0.984,-2.77 -0.465,-0.821 c -0.205,-1.004 0.633,-4.664 1.756,-7.636 l 0.006,-0.015 0.006,-0.02 2.045,-5.682 a 16.96,16.96 0 0 0 -0.084,1.844 c 0.078,4.677 1.443,8.305 5.27,11.434 3.637,2.974 5.789,4.208 10.98,4.208 5.455,0 10.947,-2.143 15.426,-5.948 l -1.223,3.406 1.602,1.997 h 11.191 l 3.711,-10.284 c 1.766,-4.292 3.273,-4.158 6.268,-3.889 l 1.789,0.162 3.535,-9.836 z m -26.568,15.652 c -4.443,4.445 -10.029,6.89 -15.73,6.89 -3.816,0 -7.344,-1.336 -9.676,-3.666 -2.072,-2.072 -3.123,-4.808 -3.123,-8.129 0,-5.596 2.477,-11.396 6.795,-15.911 4.439,-4.64 10.32,-7.302 16.137,-7.302 3.818,0 7.344,1.336 9.674,3.665 2.074,2.074 3.125,4.81 3.125,8.13 -0.001,5.799 -2.626,11.75 -7.202,16.323 z"
       fill="#7d3033"
       id="path14"
       style="clip-rule:evenodd;fill-rule:evenodd;fill:#000000;fill-opacity:1" />
    <path
       d="m 152.838,108.571 c -0.859,-0.86 -1.996,-1.316 -3.289,-1.316 -2.561,0 -5.285,1.313 -7.67,3.699 -3.416,3.415 -5.539,8.462 -5.539,13.171 0,1.787 0.604,3.411 1.652,4.462 0.861,0.86 2,1.316 3.291,1.316 6.541,0 13.207,-8.516 13.207,-16.87 0,-1.785 -0.601,-3.412 -1.652,-4.462 z m -5.192,16.326 c -2.035,2.037 -4.295,3.158 -6.363,3.158 -0.457,0 -0.748,-0.14 -1.039,-0.527 -0.289,-0.388 -0.453,-0.805 -0.453,-1.406 0,-3.66 1.389,-7.498 3.811,-10.532 2.24,-2.811 5.062,-4.489 7.551,-4.489 0.457,0 0.832,0.138 1.057,0.428 0.227,0.291 0.434,0.904 0.434,1.505 -0.001,4.237 -1.915,8.782 -4.998,11.863 z"
       fill="#7d3033"
       id="path18"
       style="clip-rule:evenodd;fill-rule:evenodd;fill:#000000;fill-opacity:1" />
    <path
       d="m 120.398,125.511 c -1.104,2.924 -2.406,7.836 -1.693,9.095 l 0.107,0.189 -0.074,0.206 -0.078,0.224 -0.113,0.316 h -7.439 v -1.331 c -1.336,1.002 -3.359,1.877 -5.262,1.877 a 6.106,6.106 0 0 1 -4.357,-1.791 c -1.359,-1.355 -2.107,-3.336 -2.107,-5.571 0,-7.557 6.502,-14.187 13.914,-14.187 1.006,0 2.439,0.315 3.502,0.751 l 3,-8.318 0.115,-0.314 h 7.266 l -0.23,0.639 c -0.002,-0.001 -6.549,18.208 -6.551,18.215 z"
       fill="#ffffff"
       id="path20"
       style="clip-rule:evenodd;fill-rule:evenodd" />
    <path
       d="m 48.393,119.238 c -0.864,0 -1.893,0.551 -2.895,1.553 -2.022,2.022 -3.435,5.245 -3.435,7.836 0,1.058 0.236,1.855 0.686,2.304 0.312,0.311 0.718,0.462 1.244,0.462 0.845,0 1.867,-0.555 2.876,-1.564 1.663,-1.662 3.453,-4.82 3.453,-7.824 0,-1.06 -0.238,-1.854 -0.686,-2.303 -0.311,-0.314 -0.718,-0.464 -1.243,-0.464 z m 34.893,0 c -1.52,0 -3.603,1.295 -4.898,4.931 l -0.111,0.312 0.327,-0.056 5.355,-0.9 0.117,-0.018 0.035,-0.115 c 0.529,-1.668 0.578,-3.096 0.128,-3.727 -0.207,-0.287 -0.519,-0.427 -0.953,-0.427 z m 31.886,0.867 c -0.707,-0.687 -1.684,-0.738 -1.965,-0.738 -1.076,0 -2.34,0.643 -3.461,1.766 -1.762,1.759 -2.855,4.312 -2.855,6.657 0,1.021 0.266,1.874 0.729,2.336 0.273,0.275 0.605,0.409 1.012,0.409 2.02,0 3.656,-1.823 4.857,-5.412 0,0.003 1.451,-4.034 1.451,-4.034 l 0.279,-0.778 0.043,-0.118 z"
       fill="#7d3033"
       id="path22"
       style="clip-rule:evenodd;fill-rule:evenodd;fill:#000000;fill-opacity:1" />
    <path
       d="m 127.209,110.615 -0.162,-0.327 0.273,-0.241 c 0.961,-0.853 1.703,-1.915 2.049,-2.912 -0.82,-0.407 -1.398,-1.292 -1.49,-2.344 -0.188,-2.158 1.736,-3.527 3.139,-3.651 1.424,-0.124 3.018,0.581 3.223,2.931 0.277,3.176 -3.789,7.069 -6.219,7.442 l -0.348,0.053 -0.154,-0.314 z m 52.771,4.89 -2.123,5.901 -0.367,-0.032 c -3.65,-0.327 -6.021,-0.15 -8.152,5.047 l -3.291,9.118 h -7.264 l 0.229,-0.638 3.516,-9.793 c 1.137,-3.01 2.412,-7.823 1.693,-9.096 l -0.107,-0.189 0.072,-0.206 0.08,-0.221 0.113,-0.316 h 0.336 l 6.609,-0.002 h 0.541 l -0.064,0.534 -0.268,2.165 c 2.186,-2.182 5.422,-3.383 8.082,-2.905 l 0.557,0.101 z"
       fill="#ffffff"
       id="path24"
       style="clip-rule:evenodd;fill-rule:evenodd" />
    <path
       d="m 135.582,59.918 -0.258,-0.107 0.078,-0.27 c 0.717,-2.541 2.592,-3.284 2.635,-3.301 l 0.156,-0.061 0.137,0.095 -0.088,0.13 c 0,0 0.445,0.12 1.098,0.506 0.646,0.382 1.568,0.889 2.682,1.396 2.227,1.013 5.199,2.008 8.199,1.966 l 1.211,-0.016 -1.051,0.604 c -0.031,0.018 -1.594,0.909 -4.252,0.909 -1.746,0 -7.906,-0.751 -10.547,-1.851 z m -20.189,40.274 0.219,-0.013 c 0.146,-0.006 0.396,-0.006 0.578,0.118 0.352,0.24 0.574,0.597 0.545,1.036 l -0.018,0.299 -0.301,-0.005 c -1.199,-0.021 -2.371,-0.134 -3.475,-0.396 l -0.273,-0.066 0.033,-0.277 c 0.029,-0.237 0.092,-0.442 0.164,-0.63 0.066,-0.176 0.146,-0.345 0.225,-0.523 0.141,-0.33 0.262,-0.678 0.262,-1.196 0,-1.12 -0.525,-4.961 -0.809,-6.3 l 0.01,-0.171 c 0.463,-1.038 0.789,-2.103 1.08,-3.182 0.297,-1.096 0.568,-2.233 0.885,-3.316 0.871,-1.742 2.674,-2.722 4.215,-3.34 l 0.756,-0.027 v 0.316 c 0.01,1.37 -0.295,2.944 -0.355,3.989 -0.061,3.167 0.438,5.296 0.355,6.893 -0.078,1.438 -0.082,3.389 0.402,5.58 l 0.033,0.146 -0.27,0.334 -0.146,0.002 c -1.924,0.036 -3.039,0.321 -4.115,0.729 z"
       fill="#ffffff"
       id="path32"
       style="clip-rule:evenodd;fill-rule:evenodd" />
    <path
       d="m 88.465,101.182 a 0.948,0.948 0 0 1 -0.148,0.05 c -0.105,0.025 -0.252,0.05 -0.415,0.071 -0.314,0.042 -0.695,0.075 -0.958,0.099 l -0.084,0.006 c 0,0 -0.146,-0.184 -0.242,-0.34 -0.087,-0.143 -0.201,-0.358 -0.201,-0.542 0,-0.384 0.408,-0.718 0.896,-0.718 0.515,0 1.286,0.832 1.286,1.19 -0.001,0.054 -0.029,0.132 -0.134,0.184 z m -13.524,1.431 a 0.2,0.2 0 0 1 -0.179,0.149 l -0.14,0.018 -0.462,0.049 c -0.372,0.035 -0.842,0.07 -1.222,0.078 l -0.101,0.001 -0.163,-0.116 a 1.277,1.277 0 0 1 -0.172,-0.177 1.13,1.13 0 0 1 -0.248,-0.702 c 0,-0.599 0.243,-0.92 0.897,-0.92 0.164,0 0.628,0.037 1.056,0.217 0.428,0.182 0.915,0.557 0.869,1.254 l -0.012,0.156 z"
       fill="#ffffff"
       id="path36"
       style="clip-rule:evenodd;fill-rule:evenodd" />
    <path
       d="m 70.074,101.48 c 0.176,0.03 0.351,0.128 0.502,0.338 0.175,0.237 0.28,0.45 0.287,0.726 l -1.76,0.31 c -0.505,-0.012 -1.01,-0.04 -1.445,-0.112 -0.528,-0.443 -0.665,-0.905 -0.705,-1.343 -0.02,-0.21 -0.02,-0.428 -0.008,-0.638 l 0.05,-0.588 c 0.59,-2.215 1.162,-4.309 1.549,-6.606 0.141,-1.104 0.699,-4.501 1.114,-5.406 0.688,-1.496 1.718,-2.894 2.436,-4.238 0.958,-1.793 1.321,-2.495 1.509,-4.938 0.019,-1.389 0.289,-2.85 0.479,-4.23 -1.34,1.313 -1.895,2.99 -2.373,4.777 -0.265,0.988 -0.504,1.988 -0.843,2.944 -0.344,0.967 -0.794,1.904 -1.483,2.744 l -0.587,-0.229 c 0.995,-1.758 1.276,-3.668 1.53,-5.664 0.127,-1.002 0.246,-2.011 0.438,-2.99 0.192,-0.987 0.455,-1.951 0.883,-2.869 0.269,-0.715 0.491,-1.995 0.928,-3.107 0.188,-0.266 0.404,-0.663 0.682,-1.207 0.274,-0.541 0.598,-1.197 0.956,-1.878 0.714,-1.355 1.578,-2.851 2.519,-3.736 0.735,-0.88 1.58,-1.68 2.449,-2.382 l 4.524,-2.785 4.252,-1.48 c 0.849,-0.188 1.831,-0.351 3.044,-0.522 2.242,-0.315 5.776,-0.843 8.295,-1.319 1.756,-0.328 5.469,-1.184 7.723,-2.281 0.293,-0.486 0.414,-0.66 0.502,-0.85 0.041,-0.09 0.076,-0.186 0.123,-0.329 l 0.229,-0.735 c 0.969,-0.553 1.564,-0.906 2.191,-1.234 a 14.884,14.884 0 0 1 2.297,-0.969 c 1.01,-0.335 2.043,-0.891 3.186,-1.375 1.148,-0.486 2.426,-0.916 3.904,-0.992 0.963,-0.533 1.65,-0.752 2.693,-1.264 1.777,-0.869 3.891,-1.501 6.076,-0.915 l 5.627,1.67 0.479,1.002 c 0.584,1.422 2.896,4.079 5.766,4.079 1.447,-0.121 3.762,-0.988 3.762,-3.269 0,-0.753 -0.316,-1.481 -0.943,-2.11 -1.426,-1.425 -4.449,-2.325 -8.152,-2.325 -3.008,0 -5.4,-3.502 -5.83,-5.242 l 0.182,-0.373 c 0.711,-0.132 1.795,-0.367 2.061,-0.576 l 0.443,0.039 c 1.133,2.249 3.145,3.438 6.475,3.494 5.459,0.09 10.93,1.63 10.93,7.951 0,3.318 -3.098,7.662 -8.5,8.809 l -2.846,-1.056 c -0.221,0.24 -0.668,0.723 -1.158,1.231 -0.678,0.7 -1.486,1.508 -1.863,1.737 -0.779,-0.014 -1.303,-0.29 -1.77,-0.573 l -0.689,-0.429 a 5.173,5.173 0 0 0 -0.682,-0.359 c -0.764,-0.446 -1.619,-0.811 -2.461,-0.804 l -0.223,0.034 c 0.348,0.318 2.49,1.468 4.1,1.634 0.457,0.555 0.762,0.937 1.143,1.279 -0.158,0.92 -0.873,0.885 -1.215,0.795 -0.793,-0.389 -1.611,-0.417 -2.494,-0.332 -0.887,0.088 -1.787,0.28 -2.645,0.318 -0.414,0.187 -0.814,0.425 -1.221,0.635 -0.436,0.225 -0.904,0.437 -1.416,0.52 -0.975,-0.779 -1.668,-1.412 -2.285,-2.083 a 11.659,11.659 0 0 1 -0.635,-0.738 l 0.145,0.323 c 0.318,0.673 0.705,1.304 1.041,1.997 l 1.705,2.341 c 0.133,1.604 0.051,2.628 -0.139,3.592 -0.186,0.935 -0.475,1.808 -0.768,3.054 -0.426,0.229 -0.58,0.183 -0.715,0.105 a 2.78,2.78 0 0 1 -0.281,-0.186 c -0.178,-0.125 -0.334,-0.217 -0.482,-0.244 -4.373,-1.451 -8.014,-1.898 -12.357,-3.607 -1.246,-0.49 -2.424,-1.628 -3.281,-2.913 0.062,0.575 0.178,1.219 0.375,1.824 0.461,1.745 1.008,3.576 2.35,4.734 1.725,-0.253 3.381,0.179 5.186,0.789 0.965,0.329 1.734,0.742 2.541,1.27 0.465,1.174 -0.742,4.24 -1.176,4.958 a 11.568,11.568 0 0 1 -1.275,1.626 c -0.459,0.496 -0.945,0.968 -1.422,1.445 -0.949,0.947 -1.818,1.879 -2.332,3.007 -0.539,0.993 -0.98,2.124 -1.354,3.265 -0.373,1.145 -0.686,2.3 -0.973,3.355 a 4.723,4.723 0 0 0 -0.551,0.759 c -0.135,0.235 -0.238,0.464 -0.336,0.648 -1.207,2.395 -1.891,4.856 -1.533,7.506 0.092,0.34 0.098,0.695 0.178,1.034 l -0.176,0.364 c -0.439,0.095 -0.652,0.064 -1.062,0.14 -1.016,0.118 -2.242,0.383 -2.98,0.702 0.15,-0.023 0.322,-0.021 0.512,0.038 0.281,0.084 0.594,0.202 0.828,0.384 0.248,0.193 0.43,0.489 0.35,0.883 -0.938,0.229 -1.666,0.223 -2.379,0.182 -0.711,-0.043 -1.428,-0.123 -2.045,-0.296 -0.311,-0.37 -0.355,-0.635 -0.377,-0.879 -0.02,-0.223 -0.023,-0.47 -0.045,-0.709 -0.166,-3.207 0.381,-6.214 0.969,-9.175 0.293,-1.476 0.596,-2.952 0.828,-4.453 0.232,-1.49 0.395,-3.002 0.404,-4.563 0.559,-1.329 1.125,-2.568 1.863,-3.731 l -1.129,0.745 a 2.342,2.342 0 0 1 -0.223,0.524 c -0.104,0.183 -0.223,0.358 -0.336,0.546 -0.299,0.199 -0.859,0.383 -1.242,0.506 -1.242,0.327 -2.459,0.67 -3.708,0.914 -1.259,0.248 -2.566,0.399 -3.986,0.343 -1.29,-0.052 -2.538,-0.093 -3.747,-0.239 -1.219,-0.147 -2.411,-0.403 -3.569,-0.886 -0.151,-0.802 0.09,-1.511 0.197,-1.775 -1.172,1.535 -2.244,3.293 -3.228,5.04 -0.129,0.259 -0.231,0.561 -0.343,0.863 -0.117,0.312 -0.252,0.652 -0.439,0.936 -0.162,0.245 -2.068,2.46 -2.964,3.457 a 8.925,8.925 0 0 0 -0.857,0.979 c -0.264,0.346 -0.509,0.703 -0.752,1.059 -0.477,0.694 -0.974,1.412 -1.624,2.035 a 79.042,79.042 0 0 0 -1.176,4.812 8.978,8.978 0 0 0 -0.121,1.735 c -0.939,0.433 -1.229,0.505 -1.644,0.579 -0.638,0.107 -1.633,0.366 -2.431,0.672 z"
       fill="#ffffff"
       id="path38"
       style="clip-rule:evenodd;fill-rule:evenodd" />
    <path
       d="m 131.281,49.197 c -0.17,-0.312 -0.486,-0.577 -0.799,-0.647 -0.674,0.34 -1.34,1.647 -1.34,1.647 0.586,-0.237 1.734,-0.132 1.734,-0.132 0.628,0.142 0.312,-0.553 0.405,-0.868 z m -14.894,2.019 c -1.131,-0.94 -3.262,0.237 -4.121,0.691 a 3.746,3.746 0 0 0 -0.797,0.594 c 0.635,-0.139 2.102,-0.266 2.979,-0.082 1.309,-0.509 2.613,-0.04 3.777,0.45 v -0.123 c -0.469,-0.653 -1.204,-1.061 -1.838,-1.53 z"
       fill="#7d3033"
       id="path40"
       style="clip-rule:evenodd;fill-rule:evenodd;fill:#010000;fill-opacity:1" />
    <path
       d="m 152.096,58.622 0.068,-1.062 c -2.873,0 -6.758,-1.526 -6.758,-1.526 0,0.015 4.486,-2.921 4.486,-8.042 0,-4.464 -3.004,-8.028 -11.229,-8.028 -4.223,0 -5.436,-1.896 -5.607,-2.5 -0.102,-0.36 0.068,-0.948 -0.039,-1.188 -0.195,-0.426 -0.678,-0.497 -1.008,-0.497 -0.531,0 -0.977,0.716 -1.652,0.716 -0.939,0 -1.715,-0.377 -2.344,-0.215 -0.314,0.082 -1.109,0.66 -1.109,1.078 0,0.36 0.418,0.351 0.82,0.605 0.404,0.252 0.582,0.783 0.582,0.783 0.486,1.597 2.881,5.318 6.445,5.318 4.441,0 8.188,1.415 8.188,3.53 0,2.111 -2.848,2.36 -2.848,2.36 -2.416,0 -4.441,-2.324 -4.93,-3.507 l -0.533,-0.979 c -2.039,-0.733 -3.117,-1.423 -5.42,-2.092 -0.707,-0.109 -1.596,-0.292 -2.156,-0.343 l -0.389,-0.014 c -2.359,-0.09 -4.34,0.677 -7.117,2.447 -0.803,0.079 -5.852,1.797 -7.473,2.396 -1.537,0.59 -3.008,1.248 -4.432,2.109 l -0.102,0.062 -0.238,0.496 c -0.014,0.033 -0.484,1.489 -0.992,1.755 -2.555,1.231 -5.875,1.658 -8.773,2.171 -2.127,0.376 -4.361,0.736 -6.544,1.115 -1.241,0.214 -2.351,0.388 -3.46,0.645 a 19.18,19.18 0 0 0 -2.218,0.649 c -0.356,0.127 -0.678,0.246 -1.006,0.376 a 2191,2191 0 0 0 -7.394,4.574 v -0.026 c -2.801,2.962 -4.562,7.407 -5.243,8.129 -0.377,1.306 -1.221,3.847 -1.587,5.311 -0.37,1.285 -0.558,2.672 -0.738,4.01 -0.404,2.987 -0.786,5.805 -3.016,7.807 l -0.297,0.267 c 0.458,0.26 0.709,1.003 1.351,0.963 0.188,-0.012 0.229,-0.083 0.229,-0.083 2.455,-2.075 3.773,-4.784 4.799,-7.594 -0.478,2.203 -1.626,4.19 -2.745,6.107 -0.362,0.622 -0.735,1.262 -1.095,1.928 -0.959,2.133 -1.307,4.507 -1.644,6.8 -0.262,1.786 -0.537,3.628 -1.097,5.323 -1.007,0.105 -4.434,1.057 -5.153,1.207 0,0 -2.37,0.669 -2.322,1.21 0,0 0.027,0.312 0.04,0.318 0,0 6.563,-0.031 7.813,0.011 3.231,0.105 9.013,-0.153 9.511,-0.207 0.498,-0.054 0.524,-0.726 0.496,-0.983 0.378,-0.002 0.848,-0.009 1.368,-0.019 1.623,-0.023 3.845,-0.058 5.104,10e-4 1.875,0.089 4.25,-10e-4 6.517,-0.245 l 0.146,-0.017 0.093,-0.115 c 0.622,-0.787 0.252,-1.513 -0.044,-2.097 -0.158,-0.312 -0.309,-0.608 -0.309,-0.869 0.085,-3.104 -0.341,-6.18 -1.232,-8.905 -0.115,-0.727 -0.312,-2.468 0.111,-3.838 0,0 4.071,0.094 5.997,-0.006 1.87,-0.098 4.346,-0.731 6.356,-1.618 0.002,0.005 0.006,0.008 0.006,0.012 0.207,3.023 -0.512,5.882 -1.207,8.647 -0.191,0.758 -0.389,1.541 -0.562,2.307 -0.252,1.021 -0.27,2.271 -0.287,3.479 -0.01,0.71 -0.021,1.383 -0.076,2.001 -0.441,0.03 -0.852,0.111 -1.249,0.19 -0.437,0.088 -2.685,0.509 -3.634,0.833 -0.224,0.077 -2.278,0.692 -2.316,1.012 a 0.393,0.393 0 0 0 0.217,0.395 l 0.136,0.043 c 1.312,0.116 2.671,0.07 3.985,0.024 1.079,-0.038 2.194,-0.076 3.272,-0.024 1.682,0.081 3.379,0.014 5.023,-0.053 1.455,-0.06 3.848,-0.033 4.404,-0.072 0.561,-0.035 0.99,-0.961 0.99,-0.961 1.135,-0.071 3.246,-0.157 3.801,-0.122 1.162,0.074 2.77,0.056 5.373,-0.06 0.262,-0.004 0.531,0.009 0.793,0.023 0.969,0.049 1.971,0.101 2.713,-0.734 0.389,-0.438 0.031,-1.395 -0.137,-1.64 l -0.131,-0.187 c -0.48,-0.69 -0.938,-1.34 -1.037,-3.516 -0.021,-0.455 0.008,-1.044 0.041,-1.727 0.084,-1.74 -0.066,-3.579 -0.316,-5.465 -0.139,-1.074 -0.174,-4.071 0,-5.111 0.131,-1.781 0.5,-4.156 1.094,-5.872 0.498,-1.447 0.734,-3.542 1.262,-6.651 0.646,0.356 1.678,0.331 2.184,0.287 0,0 0.234,0.033 0.248,-0.131 0.107,-1.27 0.459,-2.674 0.543,-3.022 0.896,0.527 4.17,2.12 5.123,1.368 l 0.182,-0.142 -0.047,-0.223 c -0.285,-2.009 -0.328,-5.901 -0.377,-7.655 0.74,-0.409 3.945,-0.252 3.945,-0.252 2.604,0.553 1.973,1.618 2.633,1.618 0.775,0 1.123,-1.681 0.941,-2.22 0,0 4.709,1.196 6.904,1.196 5.23,0 7.188,-1.384 7.188,-1.384 l 0.072,-1.055 c -3.586,0.372 -6.244,-0.259 -7.816,-1.118 2.169,0.339 7.036,0.339 7.892,0 z M 70.98,102.586 c 0,0 -0.065,-0.135 -0.065,-0.237 0,-0.102 0.049,-0.504 0.422,-0.504 0.372,0 0.917,0.495 0.917,0.756 -0.001,0 -0.85,-0.005 -1.274,-0.015 z m 3.783,-0.144 c 0.007,0.014 -1.083,0.133 -1.833,0.15 0,0 -0.361,-0.232 -0.361,-0.68 0,-0.449 0.125,-0.606 0.583,-0.606 0.275,0.001 1.677,0.136 1.611,1.136 z m 6.058,-4.937 c 0.067,1.23 -0.008,2.044 -0.223,2.437 -0.454,0.127 -0.765,0.199 -0.993,0.251 -0.255,0.061 -0.423,0.1 -0.584,0.168 -0.257,0.106 -0.726,0.22 -1.181,0.334 -0.325,0.078 -0.632,0.154 -0.876,0.229 -0.299,0.093 -0.695,0.233 -1.034,0.362 l -0.004,-0.017 -0.099,-0.076 c -0.951,-0.736 -0.605,-2.608 -0.298,-4.259 0.088,-0.474 0.168,-0.922 0.226,-1.348 0.889,-2.146 2.084,-3.945 3.551,-5.362 0.258,0.484 0.457,1.011 0.663,1.56 0.172,0.461 0.35,0.938 0.581,1.417 0.197,0.335 0.298,0.723 0.319,1.224 0.019,0.473 -0.005,1.002 -0.027,1.513 -0.023,0.531 -0.049,1.084 -0.021,1.567 z m 4.329,3.792 c 0,0 -0.127,-0.098 -0.127,-0.274 0,-0.178 0.096,-0.471 0.425,-0.471 0.329,0 0.947,0.257 0.947,0.73 0.001,0 -0.837,0.024 -1.245,0.015 z m 3.291,-0.299 c 0,0.116 -0.988,0.2 -1.511,0.247 0,0 -0.356,-0.449 -0.356,-0.72 0,-0.268 0.307,-0.561 0.738,-0.561 0.431,0.001 1.129,0.766 1.129,1.034 z m -0.568,-3.866 c -0.042,0.555 0.111,1.426 0.152,1.956 -2.134,0.202 -3.457,0.62 -4.948,1.345 -0.036,0.025 -0.183,0.079 -0.183,0.287 0,0.125 0.078,0.182 0.306,0.182 0.226,0 0.555,-0.382 1.078,-0.382 0.416,0 0.384,0.488 0.374,0.729 -1.021,0.012 -2.21,-0.133 -3.213,-0.34 -0.204,-0.224 -0.062,-0.483 0.048,-0.656 1.142,-1.348 0.103,-3.429 0.489,-4.999 0.755,-1.185 0.959,-2.611 1.796,-3.775 0.815,-0.999 1.511,-2.082 2.449,-2.979 0.122,-0.019 0.266,0.061 0.266,0.184 -0.043,3.019 1.618,5.422 1.386,8.448 z m 16.59,5.09 c 0,0 -0.246,-0.429 -0.246,-0.666 0,-0.237 0.215,-0.304 0.414,-0.304 0.197,0 0.883,0.366 0.977,0.923 -0.001,0 -0.764,0.042 -1.145,0.047 z m 3.303,-0.386 c -0.516,0.141 -1.383,0.295 -1.662,0.294 0,-0.346 -0.344,-0.94 -0.344,-1.092 0,-0.15 0.17,-0.452 0.838,-0.452 1.209,0 1.168,1.25 1.168,1.25 z m 4.351,-2.062 c -0.578,0.182 -1.104,0.313 -1.611,0.442 -0.656,0.165 -1.211,0.295 -1.771,0.407 l -0.359,-0.286 -0.014,-0.012 c -0.676,-0.585 -0.682,-1.521 -0.686,-2.515 -0.004,-0.322 -0.004,-0.654 -0.029,-0.978 -0.158,-2.219 0.314,-4.209 1.902,-6.242 0.221,-0.95 0.646,-2.163 0.869,-3.028 0.111,-0.432 0.229,-0.87 0.365,-1.299 0.189,1.264 0.416,2.562 0.67,3.804 0.121,2.115 0.424,4.125 0.74,6.253 l 0.176,1.17 c -0.002,0.802 -0.121,1.529 -0.252,2.284 z m 0.897,1.151 c 0.102,-0.814 0.652,-1.234 0.652,-2.387 0,-1.151 -0.531,-5.019 -0.816,-6.367 0.918,-2.06 1.326,-4.325 1.959,-6.487 0.816,-1.631 2.51,-2.55 4.041,-3.163 h 0.326 c 0.008,1.363 -0.297,2.936 -0.357,3.975 -0.061,3.162 0.438,5.294 0.355,6.887 -0.078,1.455 -0.082,3.436 0.41,5.666 l -0.082,0.101 c -2.072,0.037 -3.238,0.364 -4.41,0.82 -0.096,0.039 -0.229,0.135 -0.229,0.298 0,0.159 0.164,0.255 0.316,0.252 0.252,-0.005 0.658,-0.081 0.834,0.037 0.279,0.192 0.428,0.45 0.408,0.756 -1.183,-0.019 -2.329,-0.13 -3.407,-0.388 z m 3.814,0.413 c 0,0 -0.08,-0.18 -0.08,-0.429 0,-0.248 0.123,-0.528 0.49,-0.528 0.367,0 0.799,0.399 0.799,0.96 0,0 -0.83,0.006 -1.209,-0.003 z m 3.385,-0.514 c 0,0.203 -0.012,0.322 -0.086,0.388 -0.107,0.094 -1.684,0.104 -1.684,0.104 0.029,-0.397 -0.295,-0.687 -0.359,-0.87 -0.059,-0.164 0.172,-0.448 0.9,-0.448 0.728,0 1.229,0.533 1.229,0.826 z m 30.012,-40.237 c 0,0 -1.51,0.866 -4.096,0.866 -1.727,0 -7.838,-0.748 -10.426,-1.825 0.68,-2.404 2.447,-3.095 2.447,-3.095 0,0 5.952,4.138 12.075,4.054 z m -9.774,-3.64 -2.865,-1.12 c 0,0 -2.434,2.665 -3.102,3.073 -1.027,-0.107 -1.871,-0.969 -2.836,-1.375 -0.779,-0.455 -1.676,-0.844 -2.602,-0.837 -0.414,0 -0.598,0.176 -0.445,0.398 0.383,0.555 2.639,1.725 4.289,1.897 0.236,0.428 0.559,0.834 0.965,1.199 -0.15,0.322 -0.6,0.344 -0.92,0.257 -1.631,-0.812 -3.559,-0.084 -5.297,-0.021 -0.877,0.387 -1.691,1.008 -2.615,1.159 -1.412,-1.394 -2.742,-2.511 -3.557,-4.184 0,1.531 0.934,2.764 1.607,4.152 l 1.668,2.294 c 0.244,2.98 -0.322,3.976 -0.908,6.458 -0.346,-0.043 -0.645,-0.471 -1.094,-0.553 -4.367,-1.45 -7.982,-1.89 -12.322,-3.595 -1.51,-0.593 -2.959,-2.234 -3.781,-3.921 0,0.736 0.072,2.029 0.459,3.213 0.471,1.774 1.051,3.752 2.561,4.977 1.695,-0.285 3.326,0.129 5.176,0.755 0.936,0.316 1.68,0.719 2.471,1.234 0.285,0.857 -0.828,3.794 -1.271,4.529 -1.43,2.268 -3.961,3.736 -5.043,6.103 -1.104,2.034 -1.77,4.559 -2.348,6.677 -0.436,0.409 -0.668,0.971 -0.863,1.347 -1.227,2.429 -1.934,4.956 -1.566,7.693 0.104,0.347 0.104,0.713 0.186,1.062 -0.373,0.078 -0.574,0.048 -0.98,0.122 -1.354,0.156 -3.348,0.604 -3.791,1.223 -0.041,0.035 -0.195,0.294 0.113,0.346 0.312,0.054 0.617,-0.385 1.166,-0.217 0.547,0.164 1.059,0.414 0.959,0.901 -1.266,-0.04 -2.865,-0.024 -4.029,-0.352 -0.182,-0.348 -0.15,-0.83 -0.195,-1.31 -0.326,-6.326 2.164,-11.858 2.203,-18.166 0.717,-1.634 1.471,-3.246 2.613,-4.695 0,-0.081 -0.115,-0.167 -0.195,-0.21 -0.482,0.418 -0.713,0.695 -1.209,1.025 -0.35,0.233 -1.064,0.694 -1.064,0.694 -0.082,0.41 -0.328,0.735 -0.553,1.104 -0.152,0.07 -0.678,0.244 -1.061,0.366 -2.469,0.653 -4.813,1.355 -7.593,1.245 -2.562,-0.101 -4.961,-0.163 -7.206,-1.101 0.041,-0.451 0.265,-1.114 0.367,-1.368 0.102,-0.256 0.837,-1.865 0.837,-1.865 l -0.184,0.006 c -1.714,2.023 -3.164,4.349 -4.45,6.634 -0.269,0.537 -0.438,1.272 -0.767,1.772 -0.146,0.22 -2.024,2.408 -2.927,3.413 -1.307,1.265 -1.981,2.9 -3.288,4.123 a 79.064,79.064 0 0 0 -1.204,4.918 9.296,9.296 0 0 0 -0.127,1.811 c -0.688,0.11 -0.976,0.182 -1.383,0.256 -0.907,0.159 -2.569,0.616 -3.385,1.114 -0.299,0.184 -0.233,0.48 0.077,0.439 0.324,-0.042 0.821,-0.549 1.182,-0.048 0.156,0.216 0.223,0.366 0.228,0.552 -0.917,-0.02 -1.995,0.02 -2.838,-0.121 -0.583,-0.585 -0.469,-1.513 -0.408,-2.206 0.592,-2.225 1.164,-4.307 1.552,-6.612 0.143,-1.122 0.697,-4.472 1.089,-5.322 0.685,-1.49 1.711,-2.881 2.428,-4.221 0.97,-1.817 1.351,-2.57 1.544,-5.072 0.021,-1.572 0.368,-3.245 0.553,-4.776 -0.042,-0.061 -0.103,-0.082 -0.185,-0.082 -3.45,2.857 -2.511,7.674 -5.144,10.88 1.917,-3.389 1.142,-7.88 2.796,-11.431 0.268,-0.715 0.494,-2.003 0.931,-3.115 0.668,-0.872 2.296,-5.031 4.091,-6.721 a 17.355,17.355 0 0 1 2.403,-2.341 c 1.479,-0.914 3.09,-1.902 4.478,-2.756 l 4.202,-1.465 c 0.844,-0.186 1.798,-0.342 3.002,-0.511 2.246,-0.317 5.786,-0.845 8.31,-1.32 1.779,-0.334 5.6,-1.215 7.885,-2.352 0.674,-1.122 0.527,-0.755 0.914,-2 1.674,-0.857 2.373,-1.414 4.307,-2.06 2.033,-0.677 4.164,-2.227 7.08,-2.355 0.99,-0.556 1.682,-0.771 2.742,-1.291 1.748,-0.857 3.773,-1.453 5.852,-0.895 l 5.488,1.629 0.416,0.868 c 0.613,1.489 3.018,4.266 6.059,4.266 h 0.053 l 0.053,-0.005 c 1.371,-0.12 3.965,-1.021 3.965,-3.579 0,-0.848 -0.357,-1.653 -1.037,-2.332 -1.514,-1.516 -4.645,-2.419 -8.373,-2.419 -2.791,0 -5.107,-3.318 -5.523,-5.001 l 0.004,-0.003 c 0.592,-0.109 1.783,-0.352 2.127,-0.624 1.166,2.311 3.301,3.544 6.717,3.602 5.465,0.09 10.621,1.62 10.621,7.635 -0.005,3.151 -2.976,7.383 -8.255,8.505 z"
       fill="#7d3033"
       id="path42"
       style="clip-rule:evenodd;fill-rule:evenodd;fill:#000000;fill-opacity:1" />
    <path
       d="m 85.448,100.552 c -0.329,0 -0.425,0.293 -0.425,0.471 0,0.177 0.127,0.274 0.127,0.274 0.408,0.009 1.245,-0.015 1.245,-0.015 0.001,-0.473 -0.618,-0.73 -0.947,-0.73 z m -14.112,1.293 c -0.373,0 -0.422,0.401 -0.422,0.504 0,0.103 0.065,0.237 0.065,0.237 0.424,0.01 1.273,0.015 1.273,0.015 0.001,-0.261 -0.544,-0.756 -0.916,-0.756 z m 34.271,0.33 c -0.094,-0.557 -0.779,-0.923 -0.977,-0.923 -0.199,0 -0.414,0.066 -0.414,0.304 0,0.238 0.246,0.666 0.246,0.666 0.382,-0.005 1.145,-0.047 1.145,-0.047 z m 11.631,-1.794 c -0.367,0 -0.49,0.28 -0.49,0.528 0,0.249 0.08,0.429 0.08,0.429 0.379,0.009 1.209,0.003 1.209,0.003 0,-0.561 -0.432,-0.96 -0.799,-0.96 z"
       fill="#7d3033"
       id="path44"
       style="clip-rule:evenodd;fill-rule:evenodd" />
  </g>
</svg>
