<?xml version="1.0" encoding="UTF-8" standalone="no"?>
<svg
   xmlns:dc="http://purl.org/dc/elements/1.1/"
   xmlns:cc="http://creativecommons.org/ns#"
   xmlns:rdf="http://www.w3.org/1999/02/22-rdf-syntax-ns#"
   xmlns:svg="http://www.w3.org/2000/svg"
   xmlns="http://www.w3.org/2000/svg"
   xmlns:sodipodi="http://sodipodi.sourceforge.net/DTD/sodipodi-0.dtd"
   xmlns:inkscape="http://www.inkscape.org/namespaces/inkscape"
   id="emoji"
   viewBox="0 0 72 72"
   version="1.1"
   sodipodi:docname="brand-ford.svg"
   inkscape:version="1.0.2-2 (e86c870879, 2021-01-15)"
   inkscape:export-filename="E:\GIT\ameji\Ameji\symbols\proper_nouns_618x618\brand-ford.png"
   inkscape:export-xdpi="824"
   inkscape:export-ydpi="824">
  <metadata
     id="metadata23">
    <rdf:RDF>
      <cc:Work
         rdf:about="">
        <dc:format>image/svg+xml</dc:format>
        <dc:type
           rdf:resource="http://purl.org/dc/dcmitype/StillImage" />
        <dc:title></dc:title>
      </cc:Work>
    </rdf:RDF>
  </metadata>
  <defs
     id="defs21" />
  <sodipodi:namedview
     pagecolor="#ffffff"
     bordercolor="#666666"
     borderopacity="1"
     objecttolerance="10"
     gridtolerance="10"
     guidetolerance="10"
     inkscape:pageopacity="0"
     inkscape:pageshadow="2"
     inkscape:window-width="2560"
     inkscape:window-height="1361"
     id="namedview19"
     showgrid="false"
     inkscape:zoom="14.436763"
     inkscape:cx="46.30609"
     inkscape:cy="34.795031"
     inkscape:window-x="-9"
     inkscape:window-y="623"
     inkscape:window-maximized="1"
     inkscape:current-layer="layer2"
     inkscape:document-rotation="0" />
  <g
     id="color" />
  <g
     id="hair" />
  <g
     id="skin" />
  <g
     id="skin-shadow" />
  <g
     id="line" />
  <g
     inkscape:groupmode="layer"
     id="layer1"
     inkscape:label="template"
     style="display:none">
    <g
       id="grid">
      <path
         d="M 68,4 V 68 H 4 V 4 H 68 M 72,0 H 0 v 72 h 72 z"
         fill="#b3b3b3"
         id="path2" />
      <path
         d="M 12.923,10.9583 H 59.0769 A 1.9231,1.9231 0 0 1 61,12.8814 v 46.1538 a 1.9231,1.9231 0 0 1 -1.9231,1.9231 H 12.9231 A 1.9231,1.9231 0 0 1 11,59.0352 V 12.8813 a 1.923,1.923 0 0 1 1.923,-1.923 z"
         fill="none"
         stroke="#00a5ff"
         stroke-miterlimit="10"
         stroke-width="0.1"
         id="path4" />
      <rect
         x="16"
         y="4"
         width="40"
         height="64"
         rx="2.2537"
         fill="none"
         stroke="#00a5ff"
         stroke-miterlimit="10"
         stroke-width="0.1"
         id="rect6" />
      <rect
         x="16"
         y="4"
         width="40"
         height="64"
         rx="2.2537"
         transform="rotate(90,36,36)"
         fill="none"
         stroke="#00a5ff"
         stroke-miterlimit="10"
         stroke-width="0.1"
         id="rect8" />
      <circle
         cx="36"
         cy="36"
         r="29"
         fill="none"
         stroke="#00a5ff"
         stroke-miterlimit="10"
         stroke-width="0.1"
         id="circle10" />
    </g>
  </g>
  <g
     inkscape:groupmode="layer"
     id="layer2"
     inkscape:label="symbol">
    <g
       id="g943"
       transform="matrix(1.0937358,0,0,1.0937358,-3.3349007,-3.0946045)"
       style="stroke-width:0.914298">
      <path
         d="m 35.963806,44.799756 c 14.488287,0 26.233308,-4.054519 26.233308,-9.055495 0,-5.001292 -11.745021,-9.055812 -26.233308,-9.055812 -14.487972,0 -26.2333106,4.05452 -26.2333106,9.055812 0,5.000976 11.7453386,9.055495 26.2333106,9.055495 z"
         id="path12-8"
         style="clip-rule:evenodd;fill-rule:evenodd;stroke-width:11.8583" />
      <path
         d="m 35.936935,44.091655 c 14.028021,0 25.400339,-3.71754 25.400339,-8.303137 0,-4.585598 -11.372318,-8.303137 -25.400339,-8.303137 -14.02802,0 -25.40034,3.717539 -25.40034,8.303137 0,4.585597 11.37232,8.303137 25.40034,8.303137 z"
         fill="#ffffff"
         id="path14-9"
         style="clip-rule:evenodd;fill:#000000;fill-opacity:1;fill-rule:evenodd;stroke-width:299.982" />
      <path
         d="m 35.936935,43.401254 c 13.599998,0 24.625852,-3.40806 24.625852,-7.612737 0,-4.20436 -11.025854,-7.613052 -24.625852,-7.613052 -13.600314,0 -24.625852,3.408692 -24.625852,7.613052 -3.16e-4,4.204676 11.025538,7.612737 24.625852,7.612737 z"
         id="path16-0"
         style="clip-rule:evenodd;fill:#fffefd;fill-opacity:1;fill-rule:evenodd;stroke-width:11.8583" />
      <path
         d="m 32.445735,29.80663 4.043774,0.533606 c 2.068354,0.275022 4.473691,0.333503 6.47661,-0.133402 0.224759,-0.0081 0.514955,-0.09167 0.692613,0.0667 0.09388,0.07491 0.112222,0.175129 0.08472,0.283557 -0.09388,0.408739 -0.589558,0.683762 -0.964474,0.883863 -1.759509,0.900619 -4.230598,0.508633 -6.121611,0.116648 L 33.59672,30.840333 h -0.0091 c -0.02814,0.116646 0.02782,0.266802 -0.04678,0.367011 -1.188602,0.642035 -2.283948,1.692809 -2.967078,2.743898 0.673963,-0.02497 1.366576,-0.04994 2.012403,-0.175129 -0.09358,-0.491878 0.09357,-0.950564 0.542773,-1.259094 0.24341,-0.141938 0.552258,-0.225077 0.842454,-0.158376 0.206107,0.0667 0.383766,0.25005 0.440035,0.433712 0.103053,0.375233 -0.06575,0.725491 -0.365116,0.984075 -0.205793,0.158374 -0.430552,0.283557 -0.673963,0.358477 l 0.0095,0.02498 c 0.16849,0.133402 0.383767,0.23361 0.514638,0.40052 a 0.17639345,0.17639345 0 0 1 -0.04678,0.150156 c -0.07461,0.07492 -0.168491,0.07492 -0.271229,0.08345 -0.346464,-0.02498 -0.552257,-0.333503 -0.795668,-0.541825 -0.842452,0.116647 -1.713039,0.191567 -2.583626,0.258584 l -0.552257,0.700516 -1.497763,2.084477 c -1.179434,1.585012 -2.948426,3.427976 -5.316461,3.169076 -1.104514,-0.09989 -2.265297,-0.825382 -2.58331,-1.80092 -0.430552,-1.226219 0.271544,-2.360448 1.347924,-3.102376 0.402417,-0.250364 0.879754,-0.408423 1.394709,-0.350257 0.112222,0.02498 0.224443,0.09989 0.271229,0.200102 0.02814,0.08345 0.02814,0.191883 -0.02781,0.250366 -0.458687,0.391985 -1.085863,0.617376 -1.404193,1.14213 -0.262061,0.400837 -0.34615,1.026117 -0.02781,1.426323 0.495987,0.600621 1.422526,0.69198 2.171409,0.47544 2.012402,-0.625597 3.444414,-2.543796 4.717734,-4.011212 -0.711263,0.0667 -1.413676,0.191566 -1.9751,0.592087 -0.05627,0.02497 -0.149841,0.04173 -0.215276,0.0081 -0.0844,-0.04173 -0.09358,-0.125181 -0.112222,-0.200102 0.04678,-0.38345 0.524122,-0.541826 0.85162,-0.667007 0.627176,-0.216856 1.329273,-0.275339 2.002919,-0.383451 0.964157,-1.275849 2.358867,-2.560234 3.856631,-3.277504 -2.424304,-0.508632 -6.00939,-1.251192 -7.816,0.842453 -0.233926,0.300312 -0.39325,0.683762 -0.262062,1.067212 0.149841,0.283557 0.467855,0.441932 0.805151,0.458686 0.935708,0.01676 1.581852,-0.692297 2.199544,-1.284384 0.06544,-0.04173 0.14984,-0.08345 0.24341,-0.05848 0.07492,0.01676 0.112223,0.09199 0.140357,0.14162 0.01897,0.592405 -0.421384,1.03402 -0.804834,1.484488 -0.7865,0.775436 -1.86288,1.300822 -3.03283,0.967318 -0.627177,-0.175128 -1.076379,-0.767217 -1.132648,-1.334331 -0.140356,-1.142448 0.673962,-2.12652 1.759509,-2.643373 1.65677,-0.850671 3.772227,-0.950881 5.803281,-0.750777 z"
         fill="#ffffff"
         id="path18-1"
         style="clip-rule:evenodd;fill:#0c0c0c;fill-opacity:0.997863;fill-rule:evenodd;stroke-width:299.982;stroke-miterlimit:4;stroke-dasharray:none" />
      <path
         d="m 47.422424,38.94653 c -0.06544,0.15869 -0.177657,0.349941 -0.06544,0.533606 0.05627,0.0667 0.130874,0.150156 0.233928,0.166593 0.402417,0.03319 0.711264,-0.183349 1.029278,-0.383451 0.56174,-0.416642 1.076696,-0.942029 1.600817,-1.409567 0.103053,-0.0667 0.19631,-0.158059 0.327182,-0.133401 0.150155,0.04994 0.346464,0.15869 0.384082,0.317382 l -0.01928,0.07461 c -1.047612,1.000827 -2.124624,2.385106 -3.696991,2.518507 -0.421068,0.02529 -0.776699,-0.116648 -1.029278,-0.40874 -0.168489,-0.200103 -0.196941,-0.466906 -0.168489,-0.72549 -0.814319,0.642036 -1.825579,1.326112 -2.957911,0.88418 -0.664478,-0.349941 -0.870587,-1.00873 -0.823485,-1.684273 0.03762,-0.217487 0.121705,-0.417274 0.196309,-0.625594 -0.664479,0.391353 -1.403877,0.98344 -2.283948,0.650252 -0.421068,-0.175445 -0.645827,-0.566797 -0.673645,-0.958784 -0.02846,-0.125182 0.0091,-0.266803 0.0091,-0.38345 l -2.153074,3.035358 -1.403877,-0.0079 c -0.02814,-0.01676 -0.07492,-0.04205 -0.06544,-0.07523 l 0.0373,-0.116648 2.24633,-3.177295 c 0.121704,-0.250681 0.327813,-0.558896 0.149523,-0.850671 -0.177342,-0.141937 -0.421069,-0.01676 -0.599042,0.04205 -0.94519,0.474809 -1.675422,1.375743 -2.330733,2.126521 -0.879754,1.075431 -2.087322,2.435051 -3.772227,2.159712 -0.795667,-0.08345 -1.338441,-0.800724 -1.506932,-1.425688 0,-0.02529 -0.0095,-0.05058 -0.02814,-0.0588 -0.383765,0.292091 -0.67396,0.700831 -1.095029,0.908836 a 0.42707445,0.42707445 0 0 1 -0.205793,0 c -0.16849,-0.124865 -0.215275,-0.299996 -0.252893,-0.475439 0.06575,-0.216857 0.33698,-0.299997 0.496303,-0.466905 1.169952,-1.109572 1.506932,-2.760336 3.210489,-3.435879 0.421067,-0.17513 0.87027,-0.283557 1.376057,-0.275338 0.140356,0 0.262062,0.108428 0.318015,0.225074 0.05374,0.07935 0.112221,0.204213 0.05626,0.300312 -0.168491,0.14984 -0.421384,0.14984 -0.617693,0.233294 -0.964158,0.391986 -1.900181,1.26763 -1.984269,2.227048 -0.0373,0.400204 0.09357,0.800093 0.505472,1.01758 0.514639,0.233295 1.123165,0.03319 1.535065,-0.275337 0.748882,-0.608843 1.113682,-1.367524 1.216736,-2.227047 0.02814,-0.349942 -0.103053,-0.642033 -0.196625,-0.950248 0,-0.208322 0.233926,-0.367012 0.421385,-0.450468 0.140356,-0.05849 0.365115,-0.108427 0.505471,-0.01676 0.327814,0.300312 0.383766,0.708736 0.402417,1.117475 0,0.116647 0.0095,0.233294 -0.01865,0.342039 0.92654,-0.708734 1.703872,-1.959927 3.060964,-1.793018 0.336981,0.04173 0.654994,0.308531 0.730547,0.608843 0.05564,0.200102 0.02781,0.449835 -0.0098,0.642034 0.533922,-0.633815 1.245186,-1.250877 2.18121,-1.117475 0.355631,0.04995 0.72043,0.324969 0.814317,0.642034 0.112222,0.375231 -0.02846,0.741928 -0.318646,1.00873 -0.205477,0.158692 -0.430236,0.258584 -0.711265,0.233927 -0.233926,-0.02529 -0.449518,-0.116646 -0.580391,-0.317382 -0.121704,-0.174812 -0.121704,-0.458054 0,-0.625595 -0.308846,0.03319 -0.505787,0.350574 -0.599042,0.584184 -0.103053,0.31675 -0.252577,0.758682 0.05627,1.042239 0.205478,0.267435 0.608211,0.175445 0.898407,0.133401 1.862878,-0.566798 2.97656,-2.801748 5.204238,-2.559917 0.402417,0.04173 0.805151,0.191883 1.00146,0.550359 0.07523,0.14984 0.140671,0.291778 0.16849,0.458687 l 2.555492,-3.552526 1.572684,0.09989 z"
         fill="#ffffff"
         id="path20-7"
         style="clip-rule:evenodd;fill:#0c0c0c;fill-opacity:0.997863;fill-rule:evenodd;stroke-width:299.982;stroke-miterlimit:4;stroke-dasharray:none" />
      <path
         d="m 46.720328,36.361322 c 0.187141,0.333503 -0.0091,0.716954 -0.159324,1.017581 l 0.281029,0.09136 c -0.542773,0.708734 -1.104514,1.626424 -2.068988,1.942857 -0.21496,0.0667 -0.533606,0.08345 -0.720432,-0.0414 -0.308845,-0.208636 -0.33698,-0.567431 -0.271543,-0.892716 0.271543,-0.98344 1.151614,-2.151176 2.368349,-2.343062 0.243096,-0.03319 0.439404,0.06702 0.570909,0.225392 z M 33.848981,32.728501 c 0.112854,0.08219 0.08219,0.237721 0.06165,0.347414 -0.112855,0.329395 -0.492828,0.503259 -0.821589,0.594615 -0.07176,-0.384398 0.03097,-0.786816 0.421069,-0.979014 0.102735,-0.03636 0.256686,-0.03636 0.338877,0.03698 z"
         id="path22-4"
         style="clip-rule:evenodd;fill:#ffffff;fill-opacity:1;fill-rule:evenodd;stroke-width:11.8583" />
    </g>
  </g>
  <g
     inkscape:groupmode="layer"
     id="layer3"
     inkscape:label="original"
     style="display:none">
    <g
       id="g919">
      <path
         d="m 36.108024,47.4219 c 16.331567,0 29.570874,-4.683594 29.570874,-10.461902 0,-5.777992 -13.239307,-10.461901 -29.570874,-10.461901 -16.331251,0 -29.5705592,4.683909 -29.5705592,10.461901 C 6.5371485,42.737991 19.776773,47.4219 36.108024,47.4219 Z"
         id="path4-5"
         style="clip-rule:evenodd;fill-rule:evenodd;stroke-width:12.9698" />
      <path
         d="m 36.102017,47.214211 c 16.006599,0 29.197857,-4.590971 29.197857,-10.254213 0,-5.662925 -13.191258,-10.25358 -29.197857,-10.25358 -16.006282,0 -29.2579189,4.590655 -29.2579189,10.25358 0,5.663242 13.2516369,10.254213 29.2579189,10.254213 z"
         fill="#ffffff"
         id="path6"
         style="clip-rule:evenodd;fill-rule:evenodd;stroke-width:328.101" />
      <path
         d="m 63.609278,39.546154 c -1.303983,1.363097 -2.885202,2.258975 -4.517632,2.98225 -4.805298,2.112929 -10.133771,3.110595 -15.595961,3.796569 -8.737798,1.052038 -17.731967,0.109376 -25.596965,-1.9849 C 14.387288,43.351573 10.885974,42.034629 8.3911769,39.15322 7.8676861,38.430261 7.2616895,37.707932 7.2926688,36.774754 l 0.1128536,-0.311059 c 0.030973,0.13751 0.1027354,0.283556 0.2462552,0.366064 0.2876668,0.128027 0.7292834,-0.0091 0.9037793,0.283556 0.1232857,0.338246 0.030666,0.759314 0.2566874,1.060574 0.708419,1.381748 2.1252567,2.808702 3.6754967,3.531029 4.14809,2.232422 8.860766,3.238306 13.686614,4.007103 6.971333,1.088392 14.990597,0.915159 21.818098,-0.329078 3.932815,-0.695141 7.792922,-1.546129 11.263575,-3.247473 1.642861,-0.740978 2.998056,-2.223252 3.819328,-3.641038 0.329079,-0.603785 0.595881,-1.234754 0.58545,-1.975733 0.02087,-0.0825 0.06164,-0.201367 0.185244,-0.210535 0.297467,-0.09167 0.779862,0.118861 0.862684,-0.283557 l 0.05122,-0.164697 c 0.718217,1.334964 -0.154898,2.688894 -1.150667,3.686244 z"
         id="path8"
         style="clip-rule:evenodd;fill-rule:evenodd;stroke-width:12.9698" />
      <path
         d="m 63.280832,36.43556 c 0.03098,1.253089 -0.68787,2.250439 -1.416837,3.229454 -1.088393,1.335596 -2.638946,2.194803 -4.209418,2.735046 1.406406,-0.750146 3.080246,-1.646654 3.994142,-3.046421 0.585449,-0.87849 1.170582,-1.765832 1.139603,-2.872558 0.143518,-0.02719 0.328129,-0.01802 0.49251,-0.04552 z M 9.34585,37.103515 c 0.2465715,1.610302 1.468364,2.991419 3.018605,3.99762 l 1.108939,0.713161 C 11.491655,41.064149 9.4691358,39.353955 8.9352138,37.478747 L 8.8836874,37.02986 Z"
         id="path10"
         style="clip-rule:evenodd;fill-rule:evenodd;stroke-width:12.9698" />
      <path
         d="m 36.071987,45.759755 c 14.488287,0 26.233308,-4.05452 26.233308,-9.055496 0,-5.001291 -11.745021,-9.055811 -26.233308,-9.055811 -14.487972,0 -26.2333102,4.05452 -26.2333102,9.055811 0,5.000976 11.7453382,9.055496 26.2333102,9.055496 z"
         id="path12"
         style="clip-rule:evenodd;fill-rule:evenodd;stroke-width:12.9698" />
      <path
         d="m 36.045116,45.051653 c 14.028021,0 25.400339,-3.71754 25.400339,-8.303137 0,-4.585597 -11.372318,-8.303137 -25.400339,-8.303137 -14.02802,0 -25.40034,3.71754 -25.40034,8.303137 0,4.585597 11.37232,8.303137 25.40034,8.303137 z"
         fill="#ffffff"
         id="path14"
         style="clip-rule:evenodd;fill-rule:evenodd;stroke-width:328.101" />
      <path
         d="m 36.045116,44.361253 c 13.599998,0 24.625852,-3.408061 24.625852,-7.612737 0,-4.20436 -11.025854,-7.613052 -24.625852,-7.613052 -13.600314,0 -24.625852,3.408692 -24.625852,7.613052 -3.16e-4,4.204676 11.025538,7.612737 24.625852,7.612737 z"
         id="path16"
         style="clip-rule:evenodd;fill-rule:evenodd;stroke-width:12.9698" />
      <path
         d="m 32.553916,30.766629 4.043774,0.533606 c 2.068354,0.275022 4.473691,0.333503 6.47661,-0.133402 0.224759,-0.0081 0.514955,-0.09167 0.692613,0.0667 0.09388,0.07491 0.112222,0.175129 0.08472,0.283557 -0.09388,0.408739 -0.589558,0.683762 -0.964474,0.883863 -1.759509,0.900619 -4.230598,0.508633 -6.121611,0.116648 l -3.060647,-0.717269 h -0.0091 c -0.02814,0.116646 0.02782,0.266802 -0.04678,0.367011 -1.188602,0.642035 -2.283948,1.692809 -2.967078,2.743898 0.673963,-0.02497 1.366576,-0.04994 2.012403,-0.175129 -0.09358,-0.491878 0.09357,-0.950564 0.542773,-1.259094 0.24341,-0.141938 0.552258,-0.225077 0.842454,-0.158376 0.206107,0.0667 0.383766,0.25005 0.440035,0.433712 0.103053,0.375233 -0.06575,0.725491 -0.365116,0.984075 -0.205793,0.158374 -0.430552,0.283557 -0.673963,0.358477 l 0.0095,0.02498 c 0.16849,0.133402 0.383767,0.23361 0.514638,0.40052 a 0.17639345,0.17639345 0 0 1 -0.04678,0.150156 c -0.07461,0.07492 -0.168491,0.07492 -0.271229,0.08345 -0.346464,-0.02498 -0.552257,-0.333503 -0.795668,-0.541825 -0.842452,0.116647 -1.713039,0.191567 -2.583626,0.258584 l -0.552257,0.700516 -1.497763,2.084477 c -1.179434,1.585012 -2.948426,3.427976 -5.316461,3.169076 -1.104514,-0.09989 -2.265297,-0.825382 -2.58331,-1.80092 -0.430552,-1.226219 0.271544,-2.360448 1.347924,-3.102376 0.402417,-0.250364 0.879754,-0.408423 1.394709,-0.350257 0.112222,0.02498 0.224443,0.09989 0.271229,0.200102 0.02814,0.08345 0.02814,0.191883 -0.02781,0.250366 -0.458687,0.391985 -1.085863,0.617376 -1.404193,1.14213 -0.262061,0.400837 -0.34615,1.026117 -0.02781,1.426323 0.495987,0.600621 1.422526,0.691979 2.171409,0.475439 2.012402,-0.625596 3.444414,-2.543795 4.717734,-4.011212 -0.711263,0.0667 -1.413676,0.191567 -1.9751,0.592088 -0.05627,0.02497 -0.149841,0.04173 -0.215276,0.0081 -0.0844,-0.04173 -0.09358,-0.125181 -0.112222,-0.200102 0.04678,-0.38345 0.524122,-0.541826 0.85162,-0.667007 0.627176,-0.216856 1.329273,-0.275339 2.002919,-0.383451 0.964157,-1.275849 2.358867,-2.560234 3.856631,-3.277504 -2.424304,-0.508632 -6.00939,-1.251192 -7.816,0.842453 -0.233926,0.300312 -0.39325,0.683762 -0.262062,1.067212 0.149841,0.283557 0.467855,0.441932 0.805151,0.458686 0.935708,0.01676 1.581852,-0.692297 2.199544,-1.284384 0.06544,-0.04173 0.14984,-0.08345 0.24341,-0.05848 0.07492,0.01676 0.112223,0.09199 0.140357,0.14162 0.01897,0.592405 -0.421384,1.03402 -0.804834,1.484488 -0.7865,0.775436 -1.86288,1.300822 -3.03283,0.967318 -0.627177,-0.175128 -1.076379,-0.767217 -1.132648,-1.334331 -0.140356,-1.142448 0.673962,-2.12652 1.759509,-2.643373 1.65677,-0.850671 3.772227,-0.950881 5.803281,-0.750777 z"
         fill="#ffffff"
         id="path18"
         style="clip-rule:evenodd;fill-rule:evenodd;stroke-width:328.101" />
      <path
         d="m 47.530605,39.906528 c -0.06544,0.15869 -0.177657,0.349941 -0.06544,0.533606 0.05627,0.0667 0.130874,0.150156 0.233928,0.166593 0.402417,0.03319 0.711264,-0.183348 1.029278,-0.38345 0.56174,-0.416642 1.076696,-0.942029 1.600817,-1.409567 0.103053,-0.0667 0.19631,-0.158059 0.327182,-0.133401 0.150155,0.04994 0.346464,0.15869 0.384082,0.317382 l -0.01928,0.07461 c -1.047612,1.000827 -2.124624,2.385105 -3.696991,2.518507 -0.421068,0.02529 -0.776699,-0.116648 -1.029278,-0.40874 -0.168489,-0.200103 -0.196941,-0.466906 -0.168489,-0.72549 -0.814319,0.642036 -1.825579,1.326112 -2.957911,0.88418 -0.664478,-0.349941 -0.870587,-1.00873 -0.823485,-1.684273 0.03762,-0.217487 0.121705,-0.417275 0.196309,-0.625595 -0.664479,0.391353 -1.403877,0.98344 -2.283948,0.650253 -0.421068,-0.175445 -0.645827,-0.566798 -0.673645,-0.958784 -0.02846,-0.125182 0.0091,-0.266803 0.0091,-0.38345 l -2.153074,3.035358 -1.403877,-0.0079 c -0.02814,-0.01676 -0.07492,-0.04205 -0.06544,-0.07523 l 0.0373,-0.116648 2.24633,-3.177295 c 0.121704,-0.250681 0.327813,-0.558896 0.149523,-0.850671 -0.177342,-0.141937 -0.421069,-0.01676 -0.599042,0.04205 -0.94519,0.474809 -1.675422,1.375743 -2.330733,2.126521 -0.879754,1.075431 -2.087322,2.435051 -3.772227,2.159713 -0.795667,-0.08345 -1.338441,-0.800724 -1.506932,-1.425688 0,-0.02529 -0.0095,-0.05058 -0.02814,-0.0588 -0.383765,0.292092 -0.67396,0.700832 -1.095029,0.908837 a 0.42707445,0.42707445 0 0 1 -0.205793,0 c -0.16849,-0.124866 -0.215275,-0.299996 -0.252893,-0.47544 0.06575,-0.216857 0.33698,-0.299996 0.496303,-0.466905 1.169952,-1.109572 1.506932,-2.760336 3.210489,-3.435879 0.421067,-0.17513 0.87027,-0.283557 1.376057,-0.275338 0.140356,0 0.262062,0.108428 0.318015,0.225074 0.05374,0.07935 0.112221,0.204213 0.05626,0.300312 -0.168491,0.14984 -0.421384,0.14984 -0.617693,0.233294 -0.964158,0.391986 -1.900181,1.26763 -1.984269,2.227048 -0.0373,0.400204 0.09357,0.800093 0.505472,1.01758 0.514639,0.233295 1.123165,0.03319 1.535065,-0.275337 0.748882,-0.608843 1.113682,-1.367524 1.216736,-2.227047 0.02814,-0.349942 -0.103053,-0.642033 -0.196625,-0.950248 0,-0.208322 0.233926,-0.367012 0.421385,-0.450468 0.140356,-0.05849 0.365115,-0.108427 0.505471,-0.01676 0.327814,0.300312 0.383766,0.708736 0.402417,1.117475 0,0.116647 0.0095,0.233294 -0.01865,0.342039 0.92654,-0.708734 1.703872,-1.959927 3.060964,-1.793018 0.336981,0.04173 0.654994,0.308531 0.730547,0.608843 0.05564,0.200102 0.02781,0.449835 -0.0098,0.642034 0.533922,-0.633815 1.245186,-1.250877 2.18121,-1.117475 0.355631,0.04995 0.72043,0.324969 0.814317,0.642034 0.112222,0.375231 -0.02846,0.741928 -0.318646,1.00873 -0.205477,0.158692 -0.430236,0.258584 -0.711265,0.233927 -0.233926,-0.02529 -0.449518,-0.116646 -0.580391,-0.317382 -0.121704,-0.174812 -0.121704,-0.458054 0,-0.625595 -0.308846,0.03319 -0.505787,0.350574 -0.599042,0.584184 -0.103053,0.31675 -0.252577,0.758682 0.05627,1.042239 0.205478,0.267435 0.608211,0.175445 0.898407,0.133401 1.862878,-0.566798 2.97656,-2.801748 5.204238,-2.559917 0.402417,0.04173 0.805151,0.191883 1.00146,0.550359 0.07523,0.14984 0.140671,0.291778 0.16849,0.458687 l 2.555492,-3.552526 1.572684,0.09989 z"
         fill="#ffffff"
         id="path20"
         style="clip-rule:evenodd;fill-rule:evenodd;stroke-width:328.101" />
      <path
         d="m 46.828509,37.32132 c 0.187141,0.333504 -0.0091,0.716955 -0.159324,1.017582 l 0.281029,0.09136 c -0.542773,0.708735 -1.104514,1.626424 -2.068988,1.942857 -0.21496,0.0667 -0.533606,0.08345 -0.720432,-0.0414 -0.308845,-0.208636 -0.33698,-0.56743 -0.271543,-0.892715 0.271543,-0.98344 1.151614,-2.151177 2.368349,-2.343062 0.243096,-0.03319 0.439404,0.06702 0.570909,0.225392 z M 33.957162,33.6885 c 0.112854,0.08219 0.08219,0.237721 0.06165,0.347414 -0.112855,0.329395 -0.492828,0.503258 -0.821589,0.594615 -0.07176,-0.384398 0.03097,-0.786816 0.421069,-0.979014 0.102735,-0.03636 0.256686,-0.03636 0.338877,0.03698 z"
         id="path22"
         style="clip-rule:evenodd;fill-rule:evenodd;stroke-width:12.9698" />
    </g>
  </g>
</svg>
