<?xml version="1.0" encoding="UTF-8" standalone="no"?>
<svg
   xmlns:dc="http://purl.org/dc/elements/1.1/"
   xmlns:cc="http://creativecommons.org/ns#"
   xmlns:rdf="http://www.w3.org/1999/02/22-rdf-syntax-ns#"
   xmlns:svg="http://www.w3.org/2000/svg"
   xmlns="http://www.w3.org/2000/svg"
   xmlns:sodipodi="http://sodipodi.sourceforge.net/DTD/sodipodi-0.dtd"
   xmlns:inkscape="http://www.inkscape.org/namespaces/inkscape"
   id="emoji"
   viewBox="0 0 72 72"
   version="1.1"
   sodipodi:docname="brand-cote-dor.svg"
   inkscape:version="1.0.2-2 (e86c870879, 2021-01-15)"
   inkscape:export-filename="E:\GIT\ameji\Ameji\symbols\brands_618x618\brand-cote-dor.png"
   inkscape:export-xdpi="824"
   inkscape:export-ydpi="824">
  <metadata
     id="metadata23">
    <rdf:RDF>
      <cc:Work
         rdf:about="">
        <dc:format>image/svg+xml</dc:format>
        <dc:type
           rdf:resource="http://purl.org/dc/dcmitype/StillImage" />
        <dc:title></dc:title>
      </cc:Work>
    </rdf:RDF>
  </metadata>
  <defs
     id="defs21" />
  <sodipodi:namedview
     pagecolor="#ffffff"
     bordercolor="#666666"
     borderopacity="1"
     objecttolerance="10"
     gridtolerance="10"
     guidetolerance="10"
     inkscape:pageopacity="0"
     inkscape:pageshadow="2"
     inkscape:window-width="2560"
     inkscape:window-height="1361"
     id="namedview19"
     showgrid="false"
     inkscape:zoom="7.2183815"
     inkscape:cx="-8.7006186"
     inkscape:cy="37.495006"
     inkscape:window-x="-9"
     inkscape:window-y="623"
     inkscape:window-maximized="1"
     inkscape:current-layer="layer3"
     inkscape:document-rotation="0" />
  <g
     id="color" />
  <g
     id="hair" />
  <g
     id="skin" />
  <g
     id="skin-shadow" />
  <g
     id="line" />
  <g
     inkscape:groupmode="layer"
     id="layer1"
     inkscape:label="template"
     style="display:none">
    <g
       id="grid">
      <path
         d="M 68,4 V 68 H 4 V 4 H 68 M 72,0 H 0 v 72 h 72 z"
         fill="#b3b3b3"
         id="path2" />
      <path
         d="M 12.923,10.9583 H 59.0769 A 1.9231,1.9231 0 0 1 61,12.8814 v 46.1538 a 1.9231,1.9231 0 0 1 -1.9231,1.9231 H 12.9231 A 1.9231,1.9231 0 0 1 11,59.0352 V 12.8813 a 1.923,1.923 0 0 1 1.923,-1.923 z"
         fill="none"
         stroke="#00a5ff"
         stroke-miterlimit="10"
         stroke-width="0.1"
         id="path4" />
      <rect
         x="16"
         y="4"
         width="40"
         height="64"
         rx="2.2537"
         fill="none"
         stroke="#00a5ff"
         stroke-miterlimit="10"
         stroke-width="0.1"
         id="rect6" />
      <rect
         x="16"
         y="4"
         width="40"
         height="64"
         rx="2.2537"
         transform="rotate(90,36,36)"
         fill="none"
         stroke="#00a5ff"
         stroke-miterlimit="10"
         stroke-width="0.1"
         id="rect8" />
      <circle
         cx="36"
         cy="36"
         r="29"
         fill="none"
         stroke="#00a5ff"
         stroke-miterlimit="10"
         stroke-width="0.1"
         id="circle10" />
    </g>
  </g>
  <g
     inkscape:groupmode="layer"
     id="layer2"
     inkscape:label="symbol"
     style="display:inline">
    <path
       d="m 34.355251,48.03032 c -0.455618,-0.544732 -1.197338,-0.944403 -2.352464,-0.944403 -0.727984,0 -1.439218,0.176887 -2.092829,0.487445 L 29.637592,47.27051 h -0.675387 l 0.335683,-0.936028 -1.255965,-1.411412 -3.070734,0.848589 -0.532001,1.483105 -2.405732,-2.974585 -3.466719,1.471045 -0.287107,1.737044 c -0.153436,0.06298 -0.303857,0.133671 -0.452938,0.211059 l 0.887786,-3.410772 -0.537027,-0.669692 -0.50319,-0.299502 c -1.087119,-0.645906 -2.22985,-0.742055 -2.814783,-0.742055 -2.077084,0 -4.10224,0.880415 -5.7019298,2.480105 -1.6499413,1.649941 -2.5963544,3.838919 -2.5963544,6.006121 0,1.215764 0.4130717,2.324994 1.0499323,3.240921 0,0 1.5561375,2.127335 4.3906869,2.150451 1.26367,0.0097 2.49719,-0.322283 3.666722,-0.957804 l 0.38359,-0.313907 c 0.01809,0.0201 0.844904,1.029161 2.60339,1.029161 1.522971,0 2.97358,-0.715589 4.004751,-1.805052 0.03685,0.07069 0.225129,0.574883 0.646576,1.024471 0.359135,0.38292 1.056968,0.780581 2.137051,0.780581 0.728319,0 1.424812,-0.12898 1.721634,-0.204358 l 0.585269,-0.150756 v -0.99097 c 0.08945,0.12965 0.188612,0.252935 0.299837,0.36885 0.594984,0.621115 1.450608,0.977569 2.346434,0.977569 1.433858,0 2.85532,-0.49649 4.000731,-1.400356 l 0.314578,-0.24791 -0.07504,-1.625485 0.216083,-0.03484 0.153102,-0.438532 c 1.024471,-2.827179 -0.518936,-4.285828 -0.651267,-4.435244 z m -17.971462,0.724634 c -0.844569,0.844569 -1.397676,1.892826 -1.577579,2.960179 l -0.04188,-0.0201 -0.362485,0.218763 c -0.320608,0.193638 -1.342734,0.696493 -2.216114,0.696493 -0.24791,0 -0.448918,-0.100169 -0.556792,-0.25796 -0.155112,-0.224124 -0.290792,-0.634515 -0.290792,-1.078408 0,-2.501211 1.967869,-4.726705 3.519651,-4.726705 0.293472,0 0.568183,0.148076 0.689458,0.247575 0.382921,0.313572 0.509891,1.269701 0.509891,1.269701 h 1.159146 a 5.9096376,5.9096376 0 0 0 -0.832508,0.690462 z"
       fill="#7d3033"
       id="path4-0"
       style="clip-rule:evenodd;fill:#000000;fill-opacity:1;fill-rule:evenodd;stroke-width:12.9697" />
    <path
       d="m 21.553382,53.436433 c -0.945408,0.945073 -2.197354,1.487794 -3.434223,1.487794 -0.827819,0 -1.617445,-0.295816 -2.11226,-0.790966 -0.429153,-0.428818 -0.646911,-0.987955 -0.646911,-1.662337 0,-1.151442 0.529321,-2.342749 1.452618,-3.269397 0.946413,-0.950768 2.201709,-1.497175 3.442933,-1.497175 0.827484,0 1.616775,0.295147 2.11226,0.790297 0.428818,0.429152 0.646911,0.98896 0.646911,1.663342 3.35e-4,1.154791 -0.532336,2.350454 -1.461328,3.278442 z m 5.259041,-4.174603 -0.758805,2.113265 -0.09045,0.24523 c -0.155446,0.417426 -0.415417,1.116264 -0.415417,1.438882 0,0.201679 0.04322,0.334009 0.140036,0.430828 0.13568,0.13568 0.38694,0.204023 0.74708,0.204023 h 0.160471 v 1.013416 l -0.120269,0.03082 c -0.250256,0.06466 -0.899847,0.185932 -1.567864,0.185932 -0.954118,0 -1.405046,-0.361479 -1.615769,-0.663661 -0.302853,-0.435853 -0.335684,-1.066013 -0.09012,-1.72532 L 24.375535,49.2625 h -1.233519 l 0.07672,-0.214409 0.416421,-1.159481 h 1.23352 l 0.547747,-1.527997 0.02814,-0.07705 0.08007,-0.02245 2.236215,-0.619105 0.09146,-0.02479 0.06533,0.06834 0.0603,0.06198 0.06935,0.07203 -0.74306,2.069379 h 1.452618 l -0.07705,0.214743 -0.377895,1.052278 -0.03752,0.105864 z"
       fill="#ffffff"
       id="path6"
       style="clip-rule:evenodd;fill-rule:evenodd;stroke-width:128.08" />
    <path
       d="m 33.886233,51.592183 -0.03183,0.09012 -0.0938,0.01508 -3.935068,0.63552 c 0.006,0.255951 0.06533,0.564833 0.278731,0.787617 0.178563,0.186602 0.438868,0.281746 0.773882,0.281746 0.697833,0 1.461663,-0.365834 2.270721,-1.086113 l 0.07404,-0.06633 0.09179,0.03585 0.07504,0.03116 0.09581,0.03719 0.0047,0.103854 0.04891,1.066348 0.0037,0.08241 -0.06432,0.05092 c -1.037202,0.817097 -2.321978,1.267355 -3.617475,1.267355 -0.717934,0 -1.427828,-0.294476 -1.899527,-0.786611 -0.454948,-0.476389 -0.678737,-1.110235 -0.647581,-1.835539 0.04958,-1.124305 0.574213,-2.276081 1.439888,-3.158507 0.910232,-0.927987 2.064018,-1.439218 3.248961,-1.439218 0.832843,0 1.444913,0.267341 1.818453,0.794317 0.495485,0.697833 0.518601,1.797012 0.06499,3.092844 z"
       fill="#ffffff"
       id="path8"
       style="clip-rule:evenodd;fill-rule:evenodd;stroke-width:128.08" />
    <path
       d="m 17.868904,52.424022 c 0,-0.852274 0.465668,-1.912257 1.131675,-2.578934 0.323623,-0.323958 0.651601,-0.501515 0.923967,-0.501515 0.157791,0 0.279066,0.04456 0.371195,0.136016 0.137356,0.13769 0.210054,0.38828 0.210054,0.725639 0,1.428162 -1.243905,3.080784 -2.054973,3.080784 -0.158461,0 -0.279401,-0.04456 -0.371195,-0.136016 -0.137356,-0.138025 -0.210723,-0.389286 -0.210723,-0.725974 z"
       fill="#7d3033"
       id="path10"
       style="clip-rule:evenodd;fill-rule:evenodd;stroke-width:128.08" />
    <path
       d="m 15.026649,52.622015 -0.106869,1.532351 -0.0064,0.08777 -0.07739,0.04154 c -1.077739,0.585938 -2.212429,0.882425 -3.371241,0.882425 -1.201358,0 -2.388311,-0.469354 -3.1749226,-1.255965 -0.7263092,-0.725975 -1.1102347,-1.710579 -1.1102347,-2.84661 0,-4.11765 3.6603573,-7.867456 7.6791783,-7.867456 0.521281,0 1.538717,0.08509 2.498531,0.655286 l 0.103519,0.06198 -0.03015,0.116249 -0.683763,2.627846 -0.03116,0.1196 h -0.449923 l -0.04288,-0.09414 c -0.413406,-0.917267 -1.089463,-1.422467 -1.903211,-1.422467 -0.769526,0 -1.641566,0.430492 -2.392331,1.180587 -1.093484,1.093819 -1.746091,2.650292 -1.746091,4.164888 0,0.893146 0.262316,1.667697 0.718939,2.124655 0.331664,0.331329 0.763496,0.49917 1.284107,0.49917 0.978574,0 2.086799,-0.513575 2.536387,-0.785606 l 0.07471,-0.04523 0.07839,0.03819 0.06265,0.03015 0.09715,0.04724 z m 3.932053,-5.447989 0.148411,-0.899511 0.01407,-0.08643 0.08141,-0.03484 2.532367,-1.075058 0.110889,-0.04623 0.07571,0.0928 1.370206,1.690478 0.07571,0.09347 -0.06868,0.09849 -0.572203,0.824803 -0.09615,0.138361 -0.13367,-0.103519 -1.391311,-1.082094 -1.944084,0.568518 -0.243889,0.07136 z"
       fill="#ffffff"
       id="path12"
       style="clip-rule:evenodd;fill-rule:evenodd;stroke-width:128.08" />
    <path
       d="m 64.90178,47.370009 -0.906212,-0.162817 c -0.654951,-0.117925 -1.37523,0.0017 -2.036212,0.301177 l 0.03015,-0.242549 -2.449283,3.35e-4 c -0.24456,-1.824819 -1.529001,-3.075089 -1.73604,-3.281792 -0.895826,-0.896161 -2.23722,-1.409737 -3.678448,-1.409737 -1.586624,0 -3.144771,0.517596 -4.507606,1.478079 a 1.493155,1.493155 0 0 0 -0.187272,-0.26466 c 0,0 -0.647247,-0.793647 -0.645906,-0.784267 -0.342049,-0.317593 -0.804703,-0.442218 -1.23486,-0.405366 -0.838874,0.0737 -1.677748,0.830163 -1.616105,1.846259 h -2.48513 l -0.989965,2.743425 c -0.276721,-0.06365 -0.556122,-0.103519 -0.791637,-0.103519 -1.336033,0 -2.674077,0.572873 -3.672082,1.570543 -1.022126,1.021791 -1.60907,2.407407 -1.60907,3.801398 0,0.692138 0.197658,1.391981 0.554112,2.014771 0.312233,0.547077 1.307893,1.743745 2.768552,1.740395 0.385265,-10e-4 0.778571,-0.08543 1.143736,-0.220439 v 0.03719 h 3.548462 l 0.329654,-0.927987 -0.155782,-0.275047 c -0.06868,-0.336353 0.212064,-1.562502 0.588284,-2.558162 l 0.002,-0.005 0.002,-0.0067 0.685103,-1.903546 a 5.6818285,5.6818285 0 0 0 -0.02814,0.617764 c 0.02613,1.566858 0.483424,2.782287 1.76552,3.830544 1.218444,0.996331 1.939393,1.409737 3.678448,1.409737 1.827499,0 3.667393,-0.717934 5.167918,-1.99266 l -0.409721,1.141056 0.536691,0.669022 h 3.749136 l 1.243235,-3.445279 c 0.591634,-1.437878 1.096499,-1.392986 2.099864,-1.302867 l 0.59934,0.05427 1.184272,-3.295192 z m -8.900638,5.243631 c -1.488465,1.489134 -3.35985,2.308242 -5.269762,2.308242 -1.278412,0 -2.460339,-0.447578 -3.241591,-1.228159 -0.694147,-0.694148 -1.046247,-1.610745 -1.046247,-2.723325 0,-1.874735 0.829829,-3.817813 2.276417,-5.330399 1.487125,-1.554462 3.457339,-2.446268 5.406112,-2.446268 1.279082,0 2.460339,0.447578 3.240921,1.227824 0.694818,0.694818 1.046917,1.611415 1.046917,2.72366 -3.35e-4,1.942743 -0.879746,3.936408 -2.412767,5.468425 z"
       fill="#7d3033"
       id="path14"
       style="clip-rule:evenodd;fill:#000000;fill-opacity:1;fill-rule:evenodd;stroke-width:12.9697" />
    <path
       d="m 54.915028,45.704992 c -0.287777,-0.288112 -0.668687,-0.440878 -1.101859,-0.440878 -0.85797,0 -1.770546,0.439873 -2.569554,1.239215 -1.144406,1.144071 -1.855639,2.834884 -1.855639,4.412462 0,0.598669 0.202348,1.142731 0.553442,1.49483 0.288447,0.288112 0.670027,0.440878 1.102529,0.440878 2.191323,0 4.424523,-2.852975 4.424523,-5.651677 0,-0.597999 -0.201343,-1.143066 -0.553442,-1.49483 z m -1.73939,5.46943 c -0.681752,0.682422 -1.438883,1.057972 -2.131691,1.057972 -0.153101,0 -0.25059,-0.0469 -0.348079,-0.176552 -0.09682,-0.129985 -0.151761,-0.269686 -0.151761,-0.471029 0,-1.226149 0.465334,-2.511931 1.276737,-3.528362 0.75043,-0.941723 1.695838,-1.503875 2.529686,-1.503875 0.153101,0 0.278732,0.04623 0.35411,0.143386 0.07605,0.09749 0.145395,0.302852 0.145395,0.504195 -3.35e-4,1.419452 -0.64155,2.942088 -1.674397,3.974265 z"
       fill="#7d3033"
       id="path18"
       style="clip-rule:evenodd;fill:#000000;fill-opacity:1;fill-rule:evenodd;stroke-width:12.9697" />
    <path
       d="m 44.047191,51.38012 c -0.369855,0.979579 -0.806042,2.625165 -0.567178,3.046947 l 0.03585,0.06332 -0.02479,0.06901 -0.02613,0.07504 -0.03786,0.105864 h -2.492165 v -0.445903 c -0.447578,0.335684 -1.12531,0.62882 -1.762841,0.62882 a 2.0455922,2.0455922 0 0 1 -1.459654,-0.600009 c -0.455283,-0.453943 -0.705873,-1.117605 -0.705873,-1.86636 0,-2.531697 2.178258,-4.752836 4.661377,-4.752836 0.337024,0 0.817098,0.105529 1.173218,0.251595 l 1.00504,-2.786642 0.03853,-0.105194 h 2.434207 l -0.07705,0.214074 c -6.7e-4,-3.35e-4 -2.194003,6.099925 -2.194673,6.10227 z"
       fill="#ffffff"
       id="path20"
       style="clip-rule:evenodd;fill-rule:evenodd;stroke-width:128.08" />
    <path
       d="m 19.924546,49.27858 c -0.289451,0 -0.63418,0.184593 -0.969864,0.520276 -0.677397,0.677398 -1.150771,1.757146 -1.150771,2.625166 0,0.354444 0.07906,0.62145 0.229819,0.771871 0.104524,0.104189 0.24054,0.154776 0.416757,0.154776 0.283086,0 0.62547,-0.185932 0.963499,-0.523961 0.557127,-0.556792 1.156801,-1.614765 1.156801,-2.621145 0,-0.355115 -0.07973,-0.621115 -0.229819,-0.771536 -0.104189,-0.105195 -0.24054,-0.155447 -0.416422,-0.155447 z m 11.689625,0 c -0.50922,0 -1.207053,0.433843 -1.640896,1.651952 l -0.03719,0.104524 0.109549,-0.01876 1.793997,-0.301512 0.0392,-0.006 0.01173,-0.03853 c 0.177222,-0.558802 0.193638,-1.037201 0.04288,-1.248595 -0.06935,-0.09615 -0.173872,-0.143051 -0.319268,-0.143051 z m 10.68224,0.290457 c -0.236855,-0.230154 -0.564163,-0.24724 -0.658302,-0.24724 -0.360474,0 -0.783931,0.215414 -1.159481,0.591634 -0.590294,0.589289 -0.956464,1.444578 -0.956464,2.230185 0,0.342048 0.08911,0.627815 0.244225,0.782591 0.09146,0.09213 0.202683,0.137021 0.339034,0.137021 0.676727,0 1.224809,-0.61073 1.62716,-1.813093 0,10e-4 0.486105,-1.351445 0.486105,-1.351445 l 0.09347,-0.26064 0.01441,-0.03953 z"
       fill="#7d3033"
       id="path22"
       style="clip-rule:evenodd;fill:#000000;fill-opacity:1;fill-rule:evenodd;stroke-width:12.9697" />
    <path
       d="m 46.328968,46.389759 -0.05427,-0.109549 0.09146,-0.08074 c 0.321948,-0.285767 0.570528,-0.641551 0.686443,-0.97556 -0.274711,-0.13635 -0.468349,-0.432837 -0.49917,-0.785271 -0.06298,-0.722959 0.581583,-1.181593 1.051607,-1.223134 0.477059,-0.04154 1.011071,0.194642 1.079749,0.981924 0.0928,1.064003 -1.269367,2.36821 -2.083449,2.49317 l -0.116585,0.01776 -0.05159,-0.105194 z m 17.678996,1.638216 -0.711234,1.976915 -0.12295,-0.01072 c -1.222799,-0.109549 -2.017116,-0.05025 -2.73103,1.690813 l -1.102529,3.054653 h -2.433538 l 0.07672,-0.213739 1.177908,-3.280786 c 0.38091,-1.008391 0.808052,-2.620811 0.567177,-3.047283 l -0.03585,-0.06332 0.02412,-0.06901 0.0268,-0.07404 0.03786,-0.105865 h 0.112565 l 2.214104,-6.7e-4 h 0.181242 l -0.02144,0.178898 -0.08978,0.725304 c 0.732339,-0.731 1.816443,-1.133351 2.707579,-0.973214 l 0.186602,0.03384 z"
       fill="#ffffff"
       id="path24"
       style="clip-rule:evenodd;fill-rule:evenodd;stroke-width:128.08" />
    <path
       d="m 49.134036,29.405581 -0.08643,-0.03585 0.02613,-0.09045 c 0.240205,-0.851269 0.868355,-1.100184 0.882761,-1.105879 l 0.05226,-0.02044 0.0459,0.03183 -0.02948,0.04355 c 0,0 0.149081,0.0402 0.367845,0.169517 0.216419,0.127975 0.525301,0.297827 0.898506,0.467679 0.746075,0.339368 1.741735,0.672707 2.746776,0.658636 l 0.405701,-0.0054 -0.352099,0.202348 c -0.01038,0.006 -0.534012,0.304527 -1.424477,0.304527 -0.584934,0 -2.648617,-0.251595 -3.533387,-0.62011 z m -6.763587,13.492333 0.07337,-0.0044 c 0.04891,-0.002 0.132665,-0.002 0.193637,0.03953 0.117925,0.0804 0.192298,0.200003 0.182583,0.347074 l -0.006,0.100169 -0.100839,-0.0017 c -0.401681,-0.007 -0.794317,-0.04489 -1.164171,-0.132665 l -0.09146,-0.02211 0.01105,-0.0928 c 0.0097,-0.0794 0.03082,-0.148076 0.05494,-0.211058 0.02211,-0.05896 0.04891,-0.11558 0.07538,-0.175212 0.04724,-0.110555 0.08777,-0.227139 0.08777,-0.400676 0,-0.375215 -0.175882,-1.662002 -0.271026,-2.110585 l 0.0033,-0.05729 c 0.155112,-0.347744 0.264326,-0.704533 0.361815,-1.066012 0.0995,-0.367175 0.190288,-0.748085 0.296487,-1.110905 0.291797,-0.583594 0.895826,-0.911907 1.412082,-1.118945 l 0.25327,-0.009 v 0.105864 c 0.0034,0.458968 -0.09883,0.986279 -0.11893,1.336369 -0.02044,1.060987 0.146736,1.774231 0.11893,2.309247 -0.02613,0.48175 -0.02747,1.135361 0.134675,1.869376 l 0.01106,0.04891 -0.09045,0.111894 -0.04891,6.7e-4 c -0.644566,0.01206 -1.018106,0.107539 -1.37858,0.244225 z"
       fill="#ffffff"
       id="path32"
       style="clip-rule:evenodd;fill-rule:evenodd;stroke-width:128.08" />
    <path
       d="m 33.349206,43.229577 a 0.31759277,0.31759277 0 0 1 -0.04958,0.01675 c -0.03518,0.0084 -0.08442,0.01675 -0.139031,0.02379 -0.105194,0.01407 -0.232834,0.02513 -0.320943,0.03317 l -0.02814,0.002 c 0,0 -0.04891,-0.06164 -0.08107,-0.113904 -0.02915,-0.04791 -0.06734,-0.119935 -0.06734,-0.181578 0,-0.128645 0.136686,-0.240539 0.300172,-0.240539 0.172532,0 0.430828,0.278731 0.430828,0.398666 -3.35e-4,0.01809 -0.0097,0.04422 -0.04489,0.06164 z m -4.530722,0.479404 a 0.06700269,0.06700269 0 0 1 -0.05997,0.04992 l -0.0469,0.006 -0.154776,0.01641 c -0.124625,0.01173 -0.282081,0.02345 -0.409386,0.02613 l -0.03384,3.35e-4 -0.05461,-0.03886 a 0.4278122,0.4278122 0 0 1 -0.05762,-0.0593 0.37856522,0.37856522 0 0 1 -0.08308,-0.23518 c 0,-0.200673 0.08141,-0.308212 0.300507,-0.308212 0.05494,0 0.210388,0.01239 0.353774,0.0727 0.143386,0.06097 0.306537,0.186602 0.291127,0.420106 l -0.004,0.05226 z"
       fill="#ffffff"
       id="path36"
       style="clip-rule:evenodd;fill-rule:evenodd;stroke-width:128.08" />
    <path
       d="m 27.187973,43.329411 c 0.05896,0.01005 0.11759,0.04288 0.168177,0.113235 0.05863,0.0794 0.0938,0.150756 0.09615,0.24322 l -0.589624,0.103854 c -0.169182,-0.004 -0.338363,-0.0134 -0.484094,-0.03752 -0.176887,-0.148411 -0.222784,-0.303187 -0.236185,-0.449923 -0.0067,-0.07035 -0.0067,-0.143386 -0.0027,-0.213738 l 0.01675,-0.196988 c 0.197658,-0.742055 0.389285,-1.443573 0.518936,-2.213099 0.04724,-0.369855 0.234174,-1.507896 0.373205,-1.811083 0.230489,-0.50118 0.575553,-0.969529 0.816092,-1.419787 0.320943,-0.600679 0.442553,-0.835859 0.505536,-1.654297 0.0064,-0.465333 0.09682,-0.954788 0.160471,-1.417107 -0.448918,0.439873 -0.63485,1.001691 -0.794987,1.60036 -0.08878,0.330993 -0.168847,0.666006 -0.282416,0.986279 -0.115245,0.323958 -0.266001,0.637866 -0.496825,0.919277 l -0.196653,-0.07672 c 0.333338,-0.588954 0.427477,-1.228829 0.512571,-1.897516 0.04255,-0.335684 0.08241,-0.673712 0.146735,-1.00169 0.06432,-0.330659 0.152432,-0.653612 0.295817,-0.961154 0.09012,-0.239535 0.164492,-0.668352 0.310893,-1.040887 0.06298,-0.08911 0.135345,-0.222114 0.228479,-0.404361 0.09179,-0.181242 0.200338,-0.401011 0.320273,-0.629155 0.2392,-0.453944 0.528651,-0.955124 0.843899,-1.251611 0.246235,-0.294812 0.529321,-0.562822 0.820448,-0.798002 l 1.515601,-0.933012 1.424477,-0.49582 c 0.284427,-0.06298 0.61341,-0.11759 1.019781,-0.174877 0.7511,-0.10553 1.935038,-0.282417 2.778937,-0.441883 0.588283,-0.109885 1.832188,-0.396656 2.587309,-0.764166 0.09816,-0.162816 0.138695,-0.221109 0.168177,-0.284761 0.01373,-0.03015 0.02546,-0.06231 0.04121,-0.11022 l 0.07672,-0.246235 c 0.324628,-0.185262 0.523961,-0.303522 0.734015,-0.413406 a 4.9863405,4.9863405 0 0 1 0.769526,-0.324628 c 0.338363,-0.11223 0.684432,-0.298497 1.067353,-0.460644 0.384595,-0.162816 0.812742,-0.306872 1.307892,-0.332333 0.322618,-0.178562 0.552773,-0.25193 0.902192,-0.423457 0.595319,-0.291127 1.303537,-0.502855 2.035541,-0.306538 l 1.885121,0.559473 0.160472,0.335683 c 0.195648,0.47639 0.970199,1.36652 1.931687,1.36652 0.484765,-0.04054 1.260321,-0.330993 1.260321,-1.095159 0,-0.252265 -0.105864,-0.496155 -0.315918,-0.706878 -0.477729,-0.477394 -1.490475,-0.778906 -2.731029,-0.778906 -1.007721,0 -1.809073,-1.173218 -1.953129,-1.756141 l 0.06097,-0.12496 c 0.238195,-0.04422 0.60135,-0.12295 0.690463,-0.192968 l 0.148411,0.01307 c 0.37957,0.753445 1.053618,1.151776 2.169212,1.170537 1.828839,0.03015 3.661698,0.546072 3.661698,2.663692 0,1.111575 -1.037872,2.566873 -2.847615,2.951134 L 49.834868,28.16034 c -0.07404,0.0804 -0.223789,0.242215 -0.387946,0.412402 -0.227139,0.234509 -0.49783,0.5052 -0.62413,0.581918 -0.260975,-0.0047 -0.436522,-0.09715 -0.592974,-0.191962 L 47.99901,28.818973 a 1.7330247,1.7330247 0 0 0 -0.228479,-0.12027 C 47.51458,28.549287 47.228144,28.427007 46.946063,28.429352 l -0.07471,0.01139 c 0.116584,0.106534 0.834183,0.491799 1.373555,0.547412 0.153101,0.185932 0.25528,0.313907 0.38292,0.428482 -0.05293,0.308212 -0.292467,0.296487 -0.407041,0.266336 -0.265666,-0.130321 -0.539707,-0.139701 -0.835524,-0.111225 -0.297157,0.02948 -0.598669,0.0938 -0.88611,0.106534 -0.138696,0.06265 -0.272701,0.142381 -0.409052,0.212734 -0.146066,0.07538 -0.302852,0.146401 -0.474379,0.174207 -0.326638,-0.260976 -0.558802,-0.473039 -0.765506,-0.697833 a 3.905922,3.905922 0 0 1 -0.212733,-0.24724 l 0.04858,0.108209 c 0.106534,0.225464 0.236184,0.436858 0.348749,0.669022 l 0.571198,0.784267 c 0.04456,0.537361 0.01709,0.880415 -0.04657,1.203368 -0.06231,0.313238 -0.159132,0.605704 -0.25729,1.023131 -0.142716,0.07672 -0.194308,0.06131 -0.239535,0.03518 a 0.93133745,0.93133745 0 0 1 -0.09414,-0.06231 c -0.05963,-0.04188 -0.111894,-0.0727 -0.161476,-0.08174 -1.465014,-0.486105 -2.684798,-0.635856 -4.139762,-1.208394 -0.417427,-0.164156 -0.812072,-0.545402 -1.099179,-0.975894 0.02077,0.192633 0.05963,0.408381 0.12563,0.611065 0.154441,0.584598 0.337694,1.198008 0.787282,1.585953 0.577898,-0.08476 1.13268,0.05997 1.73738,0.264326 0.323288,0.110219 0.580913,0.24858 0.851269,0.425467 0.155781,0.393306 -0.24858,1.420457 -0.393976,1.660997 a 3.8754358,3.8754358 0 0 1 -0.427142,0.544732 c -0.153771,0.166166 -0.316588,0.324293 -0.476389,0.484094 -0.317928,0.317258 -0.609055,0.629491 -0.781252,1.007386 -0.180572,0.332668 -0.328313,0.711568 -0.453608,1.093819 -0.12496,0.38359 -0.229819,0.770531 -0.325968,1.12397 a 1.5822686,1.5822686 0 0 0 -0.184593,0.254275 c -0.04523,0.07873 -0.07973,0.155446 -0.112564,0.217089 -0.404361,0.802357 -0.633511,1.626825 -0.513576,2.514611 0.03082,0.113905 0.03283,0.232834 0.05963,0.346404 l -0.05896,0.121945 c -0.147071,0.03183 -0.218429,0.02144 -0.355784,0.0469 -0.340374,0.03953 -0.7511,0.12831 -0.99834,0.235179 0.05025,-0.0077 0.107874,-0.007 0.171527,0.01273 0.09414,0.02814 0.198998,0.06767 0.277391,0.128645 0.08308,0.06466 0.144056,0.163821 0.117255,0.295817 -0.314243,0.07672 -0.558133,0.07471 -0.796997,0.06097 -0.238195,-0.0144 -0.4784,-0.04121 -0.685103,-0.09916 -0.104189,-0.123955 -0.11893,-0.212733 -0.1263,-0.294477 -0.0067,-0.07471 -0.0077,-0.157456 -0.01508,-0.237524 -0.05561,-1.074388 0.12764,-2.081774 0.324628,-3.073749 0.09816,-0.49448 0.199668,-0.98896 0.277392,-1.491815 0.07772,-0.49917 0.13233,-1.00571 0.135345,-1.528666 0.187272,-0.445233 0.37689,-0.860315 0.62413,-1.249935 l -0.37823,0.249585 a 0.78460155,0.78460155 0 0 1 -0.07471,0.175547 c -0.03484,0.06131 -0.07471,0.119934 -0.112565,0.182917 -0.100169,0.06667 -0.287776,0.12831 -0.416086,0.169517 -0.416087,0.109549 -0.823799,0.224459 -1.24223,0.306202 -0.421782,0.08308 -0.859645,0.13367 -1.335364,0.11491 -0.432167,-0.01742 -0.850264,-0.03116 -1.255296,-0.08007 -0.408381,-0.04925 -0.807717,-0.13501 -1.195663,-0.296821 -0.05059,-0.268681 0.03015,-0.506206 0.066,-0.594649 -0.392636,0.514245 -0.75177,1.103199 -1.081423,1.688468 -0.04322,0.08677 -0.07739,0.187942 -0.11491,0.289116 -0.0392,0.104524 -0.08442,0.218429 -0.147071,0.313573 -0.05427,0.08208 -0.692808,0.824133 -0.99298,1.158141 a 2.9899952,2.9899952 0 0 0 -0.287106,0.327979 c -0.08844,0.115914 -0.170522,0.235514 -0.251931,0.354779 -0.159801,0.232499 -0.326303,0.473039 -0.544061,0.681752 a 26.480135,26.480135 0 0 0 -0.393976,1.612085 3.0077509,3.0077509 0 0 0 -0.04054,0.581248 c -0.314578,0.145061 -0.411731,0.169182 -0.550762,0.193973 -0.213739,0.03585 -0.547077,0.122615 -0.814418,0.225129 z"
       fill="#ffffff"
       id="path38"
       style="clip-rule:evenodd;fill-rule:evenodd;stroke-width:128.08" />
    <path
       d="m 47.693143,25.813902 c -0.05695,-0.104524 -0.162817,-0.193303 -0.267676,-0.216754 -0.225799,0.113905 -0.448918,0.551767 -0.448918,0.551767 0.196318,-0.0794 0.580913,-0.04422 0.580913,-0.04422 0.210389,0.04757 0.104524,-0.185263 0.135681,-0.290792 z m -4.989691,0.676392 c -0.3789,-0.314912 -1.092814,0.0794 -1.38059,0.231494 a 1.2549605,1.2549605 0 0 0 -0.267006,0.198998 c 0.212733,-0.04657 0.704198,-0.08911 0.998005,-0.02747 0.438533,-0.170521 0.87539,-0.0134 1.265346,0.150756 v -0.04121 c -0.157122,-0.218764 -0.403356,-0.35545 -0.615755,-0.512571 z"
       fill="#7d3033"
       id="path40"
       style="clip-rule:evenodd;fill:#010000;fill-opacity:1;fill-rule:evenodd;stroke-width:12.9697" />
    <path
       d="m 54.666448,28.971404 0.02278,-0.355784 c -0.962494,0 -2.264021,-0.511231 -2.264021,-0.511231 0,0.005 1.50287,-0.978574 1.50287,-2.694178 0,-1.4955 -1.00638,-2.689488 -3.761866,-2.689488 -1.414762,0 -1.821133,-0.635186 -1.87842,-0.837534 -0.03417,-0.120605 0.02278,-0.317593 -0.01307,-0.397996 -0.06533,-0.142716 -0.227139,-0.166502 -0.337694,-0.166502 -0.177892,0 -0.327308,0.23987 -0.553442,0.23987 -0.314577,0 -0.574548,-0.1263 -0.785271,-0.07203 -0.105195,0.02747 -0.37153,0.221109 -0.37153,0.361145 0,0.120604 0.140035,0.117589 0.274711,0.202683 0.135345,0.08442 0.194978,0.262315 0.194978,0.262315 0.162816,0.535017 0.965173,1.781602 2.159161,1.781602 1.487795,0 2.743091,0.474044 2.743091,1.182597 0,0.707214 -0.954119,0.790632 -0.954119,0.790632 -0.809392,0 -1.487794,-0.778571 -1.651616,-1.174892 l -0.178562,-0.327978 c -0.683093,-0.245565 -1.044237,-0.476724 -1.815773,-0.700848 -0.236855,-0.03652 -0.534682,-0.09782 -0.722289,-0.11491 l -0.130321,-0.0047 c -0.790296,-0.03015 -1.453958,0.226804 -2.38429,0.819778 -0.269016,0.02647 -1.960499,0.602019 -2.503556,0.802692 -0.514916,0.197658 -1.007721,0.418097 -1.48478,0.706543 l -0.03417,0.02077 -0.07973,0.166167 c -0.0047,0.01105 -0.162147,0.498835 -0.332334,0.587949 -0.855959,0.412401 -1.968204,0.555452 -2.939073,0.727314 -0.712574,0.125965 -1.460994,0.24657 -2.192328,0.37354 -0.415752,0.07169 -0.787617,0.129985 -1.159147,0.216084 a 6.4255584,6.4255584 0 0 0 -0.74306,0.217423 c -0.119264,0.04255 -0.227139,0.08241 -0.337023,0.125965 a 734.01451,734.01451 0 0 0 -2.47709,1.532352 v -0.0087 c -0.938372,0.992309 -1.528331,2.481444 -1.756475,2.723324 -0.1263,0.437528 -0.409052,1.288797 -0.531667,1.779257 -0.123955,0.430492 -0.186937,0.895156 -0.24724,1.343404 -0.135345,1.000685 -0.26332,1.944753 -1.0104,2.61545 l -0.0995,0.08945 c 0.153436,0.0871 0.237524,0.336019 0.452603,0.322618 0.06298,-0.004 0.07672,-0.02781 0.07672,-0.02781 0.822458,-0.695153 1.264006,-1.602704 1.60773,-2.544092 -0.160137,0.738035 -0.544732,1.403706 -0.919612,2.045927 -0.121275,0.208379 -0.246235,0.422787 -0.36684,0.645906 -0.321278,0.714584 -0.437863,1.509906 -0.550762,2.278092 -0.08777,0.598334 -0.179902,1.215429 -0.36751,1.783276 -0.337359,0.03518 -1.48545,0.35411 -1.726324,0.404362 0,0 -0.793982,0.224124 -0.777902,0.405366 0,0 0.009,0.104524 0.0134,0.106534 0,0 2.198693,-0.01038 2.61746,0.0037 1.082429,0.03518 3.019477,-0.05126 3.186313,-0.06935 0.166837,-0.01809 0.175547,-0.24322 0.166167,-0.329319 0.126635,-6.7e-4 0.284091,-0.003 0.458298,-0.0064 0.543727,-0.0077 1.288127,-0.01943 1.709909,3.35e-4 0.62815,0.02982 1.423807,-3.35e-4 2.183283,-0.08208 l 0.04891,-0.0057 0.03116,-0.03853 c 0.208378,-0.263655 0.08442,-0.506875 -0.01474,-0.702523 -0.05293,-0.104524 -0.10352,-0.203688 -0.10352,-0.291127 0.02848,-1.039882 -0.114239,-2.070383 -0.412736,-2.983295 -0.03853,-0.243555 -0.104524,-0.826813 0.03719,-1.285781 0,0 1.36384,0.03149 2.009076,-0.002 0.626475,-0.03283 1.455969,-0.244894 2.129346,-0.542051 6.7e-4,0.0017 0.002,0.0027 0.002,0.004 0.06935,1.012746 -0.171527,1.970549 -0.404362,2.896861 -0.06399,0.25394 -0.13032,0.516256 -0.188277,0.772876 -0.08442,0.342049 -0.09045,0.760816 -0.09615,1.165512 -0.0034,0.23786 -0.007,0.463324 -0.02546,0.670362 -0.147741,0.01005 -0.285431,0.03719 -0.418432,0.06365 -0.146401,0.02948 -0.899511,0.170522 -1.217439,0.279066 -0.07504,0.0258 -0.76316,0.231829 -0.775891,0.339034 a 0.13166029,0.13166029 0 0 0 0.0727,0.13233 l 0.04556,0.0144 c 0.439537,0.03886 0.894821,0.02345 1.335028,0.008 0.36148,-0.01273 0.73502,-0.02546 1.096165,-0.008 0.563492,0.02714 1.13201,0.0047 1.682772,-0.01776 0.487445,-0.0201 1.289132,-0.01106 1.4754,-0.02412 0.187942,-0.01173 0.331663,-0.321948 0.331663,-0.321948 0.38024,-0.02379 1.087454,-0.0526 1.273386,-0.04087 0.389286,0.02479 0.927987,0.01876 1.800027,-0.0201 0.08777,-0.0013 0.177893,0.003 0.265666,0.0077 0.324628,0.01642 0.660312,0.03384 0.908892,-0.2459 0.13032,-0.146736 0.01038,-0.467344 -0.0459,-0.549422 l -0.04389,-0.06265 C 44.234453,42.500859 44.081016,42.2831 44.04785,41.554111 c -0.007,-0.152431 0.0027,-0.349754 0.01374,-0.578568 0.02814,-0.582924 -0.02211,-1.199014 -0.105865,-1.830849 -0.04657,-0.359804 -0.05829,-1.36384 0,-1.712254 0.04389,-0.596659 0.167507,-1.392316 0.366505,-1.967199 0.166837,-0.484764 0.2459,-1.186618 0.422787,-2.228175 0.216419,0.119265 0.562153,0.11089 0.73167,0.09615 0,0 0.07839,0.01106 0.08308,-0.04389 0.03585,-0.425468 0.153771,-0.895826 0.181912,-1.012411 0.300172,0.176552 1.397006,0.710228 1.716274,0.458298 l 0.06097,-0.04757 -0.01575,-0.07471 c -0.09548,-0.673042 -0.109884,-1.976914 -0.1263,-2.564528 0.24791,-0.13702 1.321628,-0.08442 1.321628,-0.08442 0.872375,0.185262 0.660982,0.542052 0.882091,0.542052 0.259635,0 0.37622,-0.563158 0.315247,-0.74373 0,0 1.577579,0.400676 2.312933,0.400676 1.752121,0 2.408077,-0.463659 2.408077,-0.463659 l 0.02412,-0.353439 c -1.201358,0.124625 -2.091824,-0.08677 -2.618465,-0.374545 0.726644,0.11357 2.357155,0.11357 2.643926,0 z M 27.491495,43.699936 c 0,0 -0.02178,-0.04523 -0.02178,-0.0794 0,-0.03417 0.01642,-0.168847 0.141375,-0.168847 0.124625,0 0.307208,0.165832 0.307208,0.25327 -3.35e-4,0 -0.284762,-0.0017 -0.426808,-0.005 z m 1.267356,-0.04824 c 0.0023,0.0047 -0.362819,0.04456 -0.614079,0.05025 0,0 -0.12094,-0.07772 -0.12094,-0.227809 0,-0.150421 0.04188,-0.203018 0.195313,-0.203018 0.09213,3.35e-4 0.561817,0.04556 0.539706,0.380575 z m 2.029512,-1.653961 c 0.02245,0.412066 -0.0027,0.684767 -0.07471,0.816428 -0.152096,0.04255 -0.256285,0.06667 -0.332668,0.08409 -0.08543,0.02044 -0.141711,0.0335 -0.195648,0.05628 -0.0861,0.03551 -0.24322,0.0737 -0.395651,0.111895 -0.10888,0.02613 -0.211729,0.05159 -0.293472,0.07672 -0.100169,0.03116 -0.232834,0.07806 -0.346404,0.121275 l -0.0013,-0.0057 -0.03317,-0.02546 c -0.318598,-0.24657 -0.202683,-0.873715 -0.09983,-1.426822 0.02948,-0.158796 0.05628,-0.308882 0.07571,-0.451598 0.297827,-0.718939 0.698168,-1.321628 1.189633,-1.796342 0.08643,0.162146 0.153101,0.338698 0.222113,0.522621 0.05762,0.154441 0.117255,0.314242 0.194643,0.474714 0.066,0.112229 0.09983,0.242214 0.10687,0.410056 0.0064,0.158462 -0.0017,0.335684 -0.009,0.506876 -0.0077,0.177892 -0.01641,0.363154 -0.007,0.524966 z m 1.450273,1.270371 c 0,0 -0.04255,-0.03283 -0.04255,-0.09179 0,-0.05963 0.03216,-0.157791 0.14238,-0.157791 0.11022,0 0.317258,0.0861 0.317258,0.24456 3.35e-4,0 -0.280406,0.008 -0.417092,0.005 z m 1.10253,-0.100169 c 0,0.03886 -0.330994,0.067 -0.506206,0.08275 0,0 -0.119265,-0.150421 -0.119265,-0.24121 0,-0.08978 0.10285,-0.187942 0.24724,-0.187942 0.144391,3.35e-4 0.378231,0.25662 0.378231,0.346404 z m -0.190288,-1.295162 c -0.01407,0.185932 0.03719,0.477729 0.05092,0.655286 -0.714919,0.06767 -1.158142,0.207708 -1.657647,0.450593 -0.01206,0.0084 -0.06131,0.02647 -0.06131,0.09615 0,0.04188 0.02613,0.06097 0.102514,0.06097 0.07571,0 0.185932,-0.127975 0.361145,-0.127975 0.139365,0 0.128645,0.163487 0.125295,0.244225 -0.342049,0.004 -0.74038,-0.04456 -1.076399,-0.113904 -0.06834,-0.07504 -0.02077,-0.161812 0.01608,-0.219769 0.382585,-0.451598 0.03451,-1.148761 0.163822,-1.674733 0.252935,-0.396991 0.321277,-0.87472 0.601684,-1.264675 0.273036,-0.334679 0.506205,-0.697499 0.820448,-0.998006 0.04087,-0.0064 0.08911,0.02044 0.08911,0.06164 -0.0144,1.011406 0.542052,1.816443 0.464329,2.830194 z m 5.557873,1.705218 c 0,0 -0.08241,-0.143721 -0.08241,-0.223119 0,-0.0794 0.07203,-0.101844 0.138696,-0.101844 0.066,0 0.295817,0.122615 0.327308,0.309218 -3.35e-4,0 -0.25595,0.01407 -0.383591,0.01574 z m 1.10655,-0.129315 c -0.172867,0.04724 -0.463324,0.09883 -0.556792,0.09849 0,-0.115915 -0.115245,-0.314913 -0.115245,-0.365835 0,-0.05025 0.05695,-0.151426 0.280741,-0.151426 0.405031,0 0.391296,0.418767 0.391296,0.418767 z m 1.457644,-0.690798 c -0.193638,0.06097 -0.369855,0.104859 -0.539707,0.148076 -0.219769,0.05528 -0.405701,0.09883 -0.593309,0.136351 l -0.12027,-0.09581 -0.0047,-0.004 C 39.7885,42.746488 39.78649,42.432915 39.78515,42.099912 c -0.0013,-0.107875 -0.0013,-0.219099 -0.0097,-0.327643 -0.05293,-0.743395 0.105195,-1.410072 0.637196,-2.091154 0.07404,-0.318263 0.216419,-0.724635 0.291127,-1.014421 0.03719,-0.144726 0.07672,-0.291462 0.12228,-0.435183 0.06332,0.423457 0.139365,0.858305 0.224459,1.274392 0.04054,0.708553 0.142045,1.38193 0.24791,2.094839 l 0.05896,0.391965 c -6.7e-4,0.268681 -0.04054,0.512236 -0.08442,0.765171 z m 0.300507,0.385601 c 0.03417,-0.272701 0.218428,-0.413407 0.218428,-0.799677 0,-0.385601 -0.177892,-1.681433 -0.273371,-2.133031 0.307543,-0.690128 0.444228,-1.448933 0.656292,-2.173233 0.273371,-0.546407 0.840884,-0.854284 1.353789,-1.059647 h 0.109215 c 0.0027,0.456623 -0.0995,0.983599 -0.1196,1.331678 -0.02044,1.059313 0.146736,1.773562 0.11893,2.307238 -0.02613,0.487445 -0.02747,1.151106 0.137355,1.898186 l -0.02747,0.03384 c -0.694148,0.01239 -1.084774,0.121945 -1.477409,0.274711 -0.03216,0.01307 -0.07672,0.04523 -0.07672,0.09983 0,0.05327 0.05494,0.08543 0.105864,0.08442 0.08442,-0.0017 0.220439,-0.02714 0.279401,0.0124 0.09347,0.06432 0.143386,0.150756 0.136685,0.25327 -0.39632,-0.0064 -0.780246,-0.04355 -1.14139,-0.129985 z m 1.277741,0.13836 c 0,0 -0.0268,-0.0603 -0.0268,-0.14372 0,-0.08308 0.04121,-0.176888 0.164156,-0.176888 0.12295,0 0.267676,0.133671 0.267676,0.321613 0,0 -0.278061,0.002 -0.405031,-10e-4 z m 1.134021,-0.172197 c 0,0.06801 -0.004,0.107875 -0.02881,0.129986 -0.03585,0.03149 -0.564162,0.03484 -0.564162,0.03484 0.0097,-0.133 -0.09883,-0.230154 -0.12027,-0.291462 -0.01977,-0.05494 0.05762,-0.150086 0.301512,-0.150086 0.24389,0 0.411732,0.178562 0.411732,0.276721 z M 54.039638,29.629705 c 0,0 -0.505871,0.290122 -1.372215,0.290122 -0.578569,0 -2.625836,-0.25059 -3.492851,-0.6114 0.227809,-0.805372 0.819778,-1.036866 0.819778,-1.036866 0,0 1.994,1.386286 4.045288,1.358144 z m -3.274422,-1.219449 -0.959813,-0.375215 c 0,0 -0.815423,0.892811 -1.039212,1.029497 -0.344059,-0.03585 -0.62681,-0.324628 -0.950098,-0.460644 -0.260976,-0.152431 -0.561483,-0.282751 -0.871705,-0.280406 -0.138696,0 -0.200339,0.05896 -0.149081,0.133335 0.12831,0.185933 0.8841,0.577898 1.436872,0.635521 0.07906,0.143386 0.187273,0.279401 0.323288,0.401681 -0.05025,0.107874 -0.201008,0.115245 -0.308212,0.0861 -0.546407,-0.272031 -1.192313,-0.02814 -1.774566,-0.007 -0.293807,0.12965 -0.566508,0.337694 -0.876061,0.388281 -0.473039,-0.467009 -0.918607,-0.841219 -1.191643,-1.401697 0,0.512906 0.312903,0.925978 0.538367,1.390976 l 0.558803,0.768521 c 0.08174,0.99834 -0.107875,1.332014 -0.304193,2.163517 -0.115914,-0.0144 -0.216083,-0.157791 -0.366504,-0.185262 -1.463004,-0.48577 -2.674078,-0.633176 -4.128036,-1.204374 -0.505871,-0.198663 -0.991305,-0.74842 -1.266686,-1.313587 0,0.246569 0.02412,0.679742 0.153771,1.076398 0.157791,0.594314 0.352099,1.25697 0.857969,1.667362 0.567848,-0.09548 1.114255,0.04322 1.73403,0.252935 0.313573,0.105864 0.562823,0.240875 0.827818,0.413407 0.09548,0.287106 -0.277391,1.271041 -0.425802,1.517276 -0.479069,0.75981 -1.326988,1.25161 -1.689473,2.044587 -0.369855,0.681417 -0.592974,1.527326 -0.786611,2.236885 -0.146066,0.13702 -0.223789,0.325298 -0.289117,0.451263 -0.411061,0.813748 -0.647916,1.660327 -0.524631,2.577259 0.03484,0.116249 0.03484,0.238864 0.06231,0.355784 -0.12496,0.02613 -0.192297,0.01608 -0.328313,0.04087 -0.453608,0.05226 -1.121625,0.202349 -1.270036,0.409722 -0.01374,0.01173 -0.06533,0.09849 0.03786,0.115915 0.104524,0.01809 0.206703,-0.128981 0.390625,-0.0727 0.183253,0.05494 0.35478,0.138695 0.321278,0.301847 -0.424127,-0.0134 -0.959813,-0.008 -1.349769,-0.117925 -0.06097,-0.116585 -0.05025,-0.278061 -0.06533,-0.438868 -0.109214,-2.119295 0.72497,-3.972589 0.738035,-6.085854 0.240205,-0.547412 0.492805,-1.087454 0.87539,-1.572888 0,-0.02714 -0.03853,-0.05595 -0.06533,-0.07035 -0.161477,0.140035 -0.238865,0.232834 -0.405032,0.343388 -0.117254,0.07806 -0.356454,0.2325 -0.356454,0.2325 -0.02747,0.137355 -0.109884,0.246235 -0.185262,0.369855 -0.05092,0.02345 -0.227139,0.08174 -0.35545,0.122615 -0.827148,0.218763 -1.612419,0.453943 -2.543757,0.417091 -0.858304,-0.03384 -1.662002,-0.05461 -2.414107,-0.368849 0.01374,-0.151091 0.08878,-0.373205 0.12295,-0.458299 0.03417,-0.08576 0.280406,-0.6248 0.280406,-0.6248 l -0.06164,0.002 c -0.574213,0.677732 -1.059983,1.456974 -1.49081,2.222479 -0.09012,0.179903 -0.146736,0.426138 -0.256956,0.593644 -0.04891,0.0737 -0.678067,0.806713 -0.980584,1.143401 -0.437863,0.423792 -0.663662,0.971539 -1.101524,1.381261 a 26.487505,26.487505 0 0 0 -0.403356,1.647596 3.1142852,3.1142852 0 0 0 -0.04255,0.606709 c -0.230489,0.03685 -0.326973,0.06097 -0.463324,0.08576 -0.303857,0.05327 -0.860649,0.206368 -1.13402,0.373205 -0.100169,0.06164 -0.07806,0.160806 0.0258,0.147071 0.108544,-0.01407 0.275046,-0.183923 0.395986,-0.01608 0.05226,0.07236 0.07471,0.122615 0.07638,0.184928 -0.307208,-0.0067 -0.668352,0.0067 -0.950769,-0.04054 -0.195312,-0.195983 -0.157121,-0.506875 -0.136685,-0.73904 0.198328,-0.745405 0.389956,-1.442903 0.519941,-2.215109 0.04791,-0.375885 0.233504,-1.49818 0.364829,-1.782941 0.229485,-0.499171 0.573209,-0.965174 0.813413,-1.414092 0.324963,-0.60872 0.452603,-0.860985 0.517261,-1.699189 0.007,-0.526641 0.123285,-1.087118 0.185262,-1.600024 -0.01407,-0.02044 -0.03451,-0.02747 -0.06198,-0.02747 -1.155797,0.957133 -0.841219,2.570893 -1.723309,3.644946 0.64222,-1.13536 0.382585,-2.639906 0.936697,-3.829538 0.08978,-0.239535 0.165497,-0.671032 0.311898,-1.043567 0.223789,-0.292132 0.769191,-1.685453 1.37054,-2.251626 a 5.8141588,5.8141588 0 0 1 0.805037,-0.784267 c 0.495485,-0.306202 1.035192,-0.637195 1.500191,-0.923297 l 1.407726,-0.490794 c 0.282752,-0.06231 0.602354,-0.114575 1.005711,-0.171192 0.75244,-0.1062 1.938388,-0.283087 2.783962,-0.442218 0.595989,-0.111895 1.876075,-0.407041 2.641581,-0.787952 0.225799,-0.375885 0.176552,-0.252935 0.306202,-0.670027 0.560813,-0.287106 0.794987,-0.473709 1.442903,-0.690127 0.681083,-0.226805 1.394996,-0.746075 2.371896,-0.788957 0.331663,-0.186268 0.563492,-0.258296 0.918606,-0.432503 0.585604,-0.287106 1.264006,-0.486774 1.960499,-0.299837 l 1.838554,0.545737 0.139366,0.290792 c 0.205363,0.498835 1.01107,1.429168 2.029846,1.429168 h 0.01776 l 0.01776,-0.0017 c 0.459303,-0.0402 1.328328,-0.342048 1.328328,-1.199013 0,-0.284091 -0.1196,-0.553777 -0.347409,-0.781251 -0.50721,-0.507881 -1.556137,-0.810398 -2.805067,-0.810398 -0.935023,0 -1.710914,-1.111574 -1.85028,-1.675402 l 0.0013,-10e-4 c 0.198328,-0.03652 0.597329,-0.117925 0.712574,-0.209049 0.390626,0.774217 1.105879,1.187288 2.250285,1.206719 1.830849,0.03015 3.558178,0.542722 3.558178,2.557828 -0.0017,1.055627 -0.997,2.473404 -2.765536,2.849289 z"
       fill="#7d3033"
       id="path42"
       style="clip-rule:evenodd;fill:#000000;fill-opacity:1;fill-rule:evenodd;stroke-width:12.9697" />
    <path
       d="m 32.33847,43.018519 c -0.110219,0 -0.14238,0.09816 -0.14238,0.157791 0,0.0593 0.04255,0.09179 0.04255,0.09179 0.136686,0.003 0.417092,-0.005 0.417092,-0.005 3.35e-4,-0.158462 -0.207038,-0.24456 -0.317258,-0.24456 z m -4.72771,0.433172 c -0.12496,0 -0.141375,0.134341 -0.141375,0.168847 0,0.03451 0.02178,0.0794 0.02178,0.0794 0.142046,0.0033 0.426473,0.005 0.426473,0.005 3.35e-4,-0.08744 -0.182248,-0.25327 -0.306873,-0.25327 z m 11.481247,0.110555 c -0.03149,-0.186603 -0.260976,-0.309218 -0.327308,-0.309218 -0.06667,0 -0.138696,0.02211 -0.138696,0.101844 0,0.07973 0.08241,0.223119 0.08241,0.223119 0.127976,-0.0017 0.383591,-0.01574 0.383591,-0.01574 z m 3.896541,-0.601015 c -0.122949,0 -0.164156,0.0938 -0.164156,0.176888 0,0.08342 0.0268,0.14372 0.0268,0.14372 0.12697,0.003 0.405031,0.001 0.405031,0.001 0,-0.187942 -0.144726,-0.321613 -0.267676,-0.321613 z"
       fill="#7d3033"
       id="path44"
       style="clip-rule:evenodd;fill-rule:evenodd;stroke-width:128.08" />
  </g>
  <g
     inkscape:groupmode="layer"
     id="layer3"
     inkscape:label="only_elephant"
     style="display:none">
    <path
       d="m 27.155474,33.414464 -0.05427,-0.109549 0.09146,-0.08074 c 0.321948,-0.285767 0.570528,-0.641551 0.686443,-0.97556 -0.274711,-0.13635 -0.468349,-0.432837 -0.49917,-0.785271 -0.06298,-0.722959 0.581583,-1.181593 1.051607,-1.223134 0.477059,-0.04154 1.011071,0.194642 1.079749,0.981924 0.0928,1.064003 -1.269367,2.36821 -2.083449,2.49317 l -0.116585,0.01776 -0.05159,-0.105194 z m 17.678996,1.638216 -0.711234,1.976915 -0.12295,-0.01072 c -1.222799,-0.109549 -2.017116,-0.05025 -2.73103,1.690813 l -1.102529,3.054653 h -2.433538 l 0.07672,-0.213739 1.177908,-3.280786 c 0.38091,-1.008391 0.808052,-2.62081 0.567177,-3.047283 l -0.03585,-0.06332 0.02412,-0.06901 0.0268,-0.07404 0.03786,-0.105865 h 0.112565 l 2.214104,-6.7e-4 h 0.181242 l -0.02144,0.178898 -0.08978,0.725304 c 0.732339,-0.731 1.816443,-1.133351 2.707579,-0.973214 l 0.186602,0.03384 z"
       fill="#ffffff"
       id="path24-7"
       style="clip-rule:evenodd;fill-rule:evenodd;stroke-width:128.08" />
    <g
       id="g932"
       transform="matrix(1.6039143,0,0,1.6039143,-26.51358,-16.408091)"
       style="stroke-width:0.623475">
      <path
         d="m 49.134036,29.405581 -0.08643,-0.03585 0.02613,-0.09045 c 0.240205,-0.851269 0.868355,-1.100184 0.882761,-1.105879 l 0.05226,-0.02044 0.0459,0.03183 -0.02948,0.04355 c 0,0 0.149081,0.0402 0.367845,0.169517 0.216419,0.127975 0.525301,0.297827 0.898506,0.467679 0.746075,0.339368 1.741735,0.672707 2.746776,0.658636 l 0.405701,-0.0054 -0.352099,0.202348 c -0.01038,0.006 -0.534012,0.304527 -1.424477,0.304527 -0.584934,0 -2.648617,-0.251595 -3.533387,-0.62011 z m -6.763587,13.492333 0.07337,-0.0044 c 0.04891,-0.002 0.132665,-0.002 0.193637,0.03953 0.117925,0.0804 0.192298,0.200003 0.182583,0.347074 l -0.006,0.100169 -0.100839,-0.0017 c -0.401681,-0.007 -0.794317,-0.04489 -1.164171,-0.132665 l -0.09146,-0.02211 0.01105,-0.0928 c 0.0097,-0.0794 0.03082,-0.148076 0.05494,-0.211058 0.02211,-0.05896 0.04891,-0.11558 0.07538,-0.175212 0.04724,-0.110555 0.08777,-0.227139 0.08777,-0.400676 0,-0.375215 -0.175882,-1.662002 -0.271026,-2.110585 l 0.0033,-0.05729 c 0.155112,-0.347744 0.264326,-0.704533 0.361815,-1.066012 0.0995,-0.367175 0.190288,-0.748085 0.296487,-1.110905 0.291797,-0.583594 0.895826,-0.911907 1.412082,-1.118945 l 0.25327,-0.009 v 0.105864 c 0.0034,0.458968 -0.09883,0.986279 -0.11893,1.336369 -0.02044,1.060987 0.146736,1.774231 0.11893,2.309247 -0.02613,0.48175 -0.02747,1.135361 0.134675,1.869376 l 0.01106,0.04891 -0.09045,0.111894 -0.04891,6.7e-4 c -0.644566,0.01206 -1.018106,0.107539 -1.37858,0.244225 z"
         fill="#ffffff"
         id="path32-3"
         style="clip-rule:evenodd;fill-rule:evenodd;stroke-width:79.8546" />
      <path
         d="m 33.349206,43.229577 a 0.31759277,0.31759277 0 0 1 -0.04958,0.01675 c -0.03518,0.0084 -0.08442,0.01675 -0.139031,0.02379 -0.105194,0.01407 -0.232834,0.02513 -0.320943,0.03317 l -0.02814,0.002 c 0,0 -0.04891,-0.06164 -0.08107,-0.113904 -0.02915,-0.04791 -0.06734,-0.119935 -0.06734,-0.181578 0,-0.128645 0.136686,-0.240539 0.300172,-0.240539 0.172532,0 0.430828,0.278731 0.430828,0.398666 -3.35e-4,0.01809 -0.0097,0.04422 -0.04489,0.06164 z m -4.530722,0.479404 a 0.06700269,0.06700269 0 0 1 -0.05997,0.04992 l -0.0469,0.006 -0.154776,0.01641 c -0.124625,0.01173 -0.282081,0.02345 -0.409386,0.02613 l -0.03384,3.35e-4 -0.05461,-0.03886 a 0.4278122,0.4278122 0 0 1 -0.05762,-0.0593 0.37856522,0.37856522 0 0 1 -0.08308,-0.23518 c 0,-0.200673 0.08141,-0.308212 0.300507,-0.308212 0.05494,0 0.210388,0.01239 0.353774,0.0727 0.143386,0.06097 0.306537,0.186602 0.291127,0.420106 l -0.004,0.05226 z"
         fill="#ffffff"
         id="path36-6"
         style="clip-rule:evenodd;fill-rule:evenodd;stroke-width:79.8546" />
      <path
         d="m 27.187973,43.329411 c 0.05896,0.01005 0.11759,0.04288 0.168177,0.113235 0.05863,0.0794 0.0938,0.150756 0.09615,0.24322 l -0.589624,0.103854 c -0.169182,-0.004 -0.338363,-0.0134 -0.484094,-0.03752 -0.176887,-0.148411 -0.222784,-0.303187 -0.236185,-0.449923 -0.0067,-0.07035 -0.0067,-0.143386 -0.0027,-0.213738 l 0.01675,-0.196988 c 0.197658,-0.742055 0.389285,-1.443573 0.518936,-2.213099 0.04724,-0.369855 0.234174,-1.507896 0.373205,-1.811083 0.230489,-0.50118 0.575553,-0.969529 0.816092,-1.419787 0.320943,-0.600679 0.442553,-0.835859 0.505536,-1.654297 0.0064,-0.465333 0.09682,-0.954788 0.160471,-1.417107 -0.448918,0.439873 -0.63485,1.001691 -0.794987,1.60036 -0.08878,0.330993 -0.168847,0.666006 -0.282416,0.986279 -0.115245,0.323958 -0.266001,0.637866 -0.496825,0.919277 l -0.196653,-0.07672 c 0.333338,-0.588954 0.427477,-1.228829 0.512571,-1.897516 0.04255,-0.335684 0.08241,-0.673712 0.146735,-1.00169 0.06432,-0.330659 0.152432,-0.653612 0.295817,-0.961154 0.09012,-0.239535 0.164492,-0.668352 0.310893,-1.040887 0.06298,-0.08911 0.135345,-0.222114 0.228479,-0.404361 0.09179,-0.181242 0.200338,-0.401011 0.320273,-0.629155 0.2392,-0.453944 0.528651,-0.955124 0.843899,-1.251611 0.246235,-0.294812 0.529321,-0.562822 0.820448,-0.798002 l 1.515601,-0.933012 1.424477,-0.49582 c 0.284427,-0.06298 0.61341,-0.11759 1.019781,-0.174877 0.7511,-0.10553 1.935038,-0.282417 2.778937,-0.441883 0.588283,-0.109885 1.832188,-0.396656 2.587309,-0.764166 0.09816,-0.162816 0.138695,-0.221109 0.168177,-0.284761 0.01373,-0.03015 0.02546,-0.06231 0.04121,-0.11022 l 0.07672,-0.246235 c 0.324628,-0.185262 0.523961,-0.303522 0.734015,-0.413406 a 4.9863405,4.9863405 0 0 1 0.769526,-0.324628 c 0.338363,-0.11223 0.684432,-0.298497 1.067353,-0.460644 0.384595,-0.162816 0.812742,-0.306872 1.307892,-0.332333 0.322618,-0.178562 0.552773,-0.25193 0.902192,-0.423457 0.595319,-0.291127 1.303537,-0.502855 2.035541,-0.306538 l 1.885121,0.559473 0.160472,0.335683 c 0.195648,0.47639 0.970199,1.36652 1.931687,1.36652 0.484765,-0.04054 1.260321,-0.330993 1.260321,-1.095159 0,-0.252265 -0.105864,-0.496155 -0.315918,-0.706878 -0.477729,-0.477394 -1.490475,-0.778906 -2.731029,-0.778906 -1.007721,0 -1.809073,-1.173218 -1.953129,-1.756141 l 0.06097,-0.12496 c 0.238195,-0.04422 0.60135,-0.12295 0.690463,-0.192968 l 0.148411,0.01307 c 0.37957,0.753445 1.053618,1.151776 2.169212,1.170537 1.828839,0.03015 3.661698,0.546072 3.661698,2.663692 0,1.111575 -1.037872,2.566873 -2.847615,2.951134 L 49.834868,28.16034 c -0.07404,0.0804 -0.223789,0.242215 -0.387946,0.412402 -0.227139,0.234509 -0.49783,0.5052 -0.62413,0.581918 -0.260975,-0.0047 -0.436522,-0.09715 -0.592974,-0.191962 L 47.99901,28.818973 a 1.7330247,1.7330247 0 0 0 -0.228479,-0.12027 C 47.51458,28.549287 47.228144,28.427007 46.946063,28.429352 l -0.07471,0.01139 c 0.116584,0.106534 0.834183,0.491799 1.373555,0.547412 0.153101,0.185932 0.25528,0.313907 0.38292,0.428482 -0.05293,0.308212 -0.292467,0.296487 -0.407041,0.266336 -0.265666,-0.130321 -0.539707,-0.139701 -0.835524,-0.111225 -0.297157,0.02948 -0.598669,0.0938 -0.88611,0.106534 -0.138696,0.06265 -0.272701,0.142381 -0.409052,0.212734 -0.146066,0.07538 -0.302852,0.146401 -0.474379,0.174207 -0.326638,-0.260976 -0.558802,-0.473039 -0.765506,-0.697833 a 3.905922,3.905922 0 0 1 -0.212733,-0.24724 l 0.04858,0.108209 c 0.106534,0.225464 0.236184,0.436858 0.348749,0.669022 l 0.571198,0.784267 c 0.04456,0.537361 0.01709,0.880415 -0.04657,1.203368 -0.06231,0.313238 -0.159132,0.605704 -0.25729,1.023131 -0.142716,0.07672 -0.194308,0.06131 -0.239535,0.03518 a 0.93133745,0.93133745 0 0 1 -0.09414,-0.06231 c -0.05963,-0.04188 -0.111894,-0.0727 -0.161476,-0.08174 -1.465014,-0.486105 -2.684798,-0.635856 -4.139762,-1.208394 -0.417427,-0.164156 -0.812072,-0.545402 -1.099179,-0.975894 0.02077,0.192633 0.05963,0.408381 0.12563,0.611065 0.154441,0.584598 0.337694,1.198008 0.787282,1.585953 0.577898,-0.08476 1.13268,0.05997 1.73738,0.264326 0.323288,0.110219 0.580913,0.24858 0.851269,0.425467 0.155781,0.393306 -0.24858,1.420457 -0.393976,1.660997 a 3.8754358,3.8754358 0 0 1 -0.427142,0.544732 c -0.153771,0.166166 -0.316588,0.324293 -0.476389,0.484094 -0.317928,0.317258 -0.609055,0.629491 -0.781252,1.007386 -0.180572,0.332668 -0.328313,0.711568 -0.453608,1.093819 -0.12496,0.38359 -0.229819,0.770531 -0.325968,1.12397 a 1.5822686,1.5822686 0 0 0 -0.184593,0.254275 c -0.04523,0.07873 -0.07973,0.155446 -0.112564,0.217089 -0.404361,0.802357 -0.633511,1.626825 -0.513576,2.514611 0.03082,0.113905 0.03283,0.232834 0.05963,0.346404 l -0.05896,0.121945 c -0.147071,0.03183 -0.218429,0.02144 -0.355784,0.0469 -0.340374,0.03953 -0.7511,0.12831 -0.99834,0.235179 0.05025,-0.0077 0.107874,-0.007 0.171527,0.01273 0.09414,0.02814 0.198998,0.06767 0.277391,0.128645 0.08308,0.06466 0.144056,0.163821 0.117255,0.295817 -0.314243,0.07672 -0.558133,0.07471 -0.796997,0.06097 -0.238195,-0.0144 -0.4784,-0.04121 -0.685103,-0.09916 -0.104189,-0.123955 -0.11893,-0.212733 -0.1263,-0.294477 -0.0067,-0.07471 -0.0077,-0.157456 -0.01508,-0.237524 -0.05561,-1.074388 0.12764,-2.081774 0.324628,-3.073749 0.09816,-0.49448 0.199668,-0.98896 0.277392,-1.491815 0.07772,-0.49917 0.13233,-1.00571 0.135345,-1.528666 0.187272,-0.445233 0.37689,-0.860315 0.62413,-1.249935 l -0.37823,0.249585 a 0.78460155,0.78460155 0 0 1 -0.07471,0.175547 c -0.03484,0.06131 -0.07471,0.119934 -0.112565,0.182917 -0.100169,0.06667 -0.287776,0.12831 -0.416086,0.169517 -0.416087,0.109549 -0.823799,0.224459 -1.24223,0.306202 -0.421782,0.08308 -0.859645,0.13367 -1.335364,0.11491 -0.432167,-0.01742 -0.850264,-0.03116 -1.255296,-0.08007 -0.408381,-0.04925 -0.807717,-0.13501 -1.195663,-0.296821 -0.05059,-0.268681 0.03015,-0.506206 0.066,-0.594649 -0.392636,0.514245 -0.75177,1.103199 -1.081423,1.688468 -0.04322,0.08677 -0.07739,0.187942 -0.11491,0.289116 -0.0392,0.104524 -0.08442,0.218429 -0.147071,0.313573 -0.05427,0.08208 -0.692808,0.824133 -0.99298,1.158141 a 2.9899952,2.9899952 0 0 0 -0.287106,0.327979 c -0.08844,0.115914 -0.170522,0.235514 -0.251931,0.354779 -0.159801,0.232499 -0.326303,0.473039 -0.544061,0.681752 a 26.480135,26.480135 0 0 0 -0.393976,1.612085 3.0077509,3.0077509 0 0 0 -0.04054,0.581248 c -0.314578,0.145061 -0.411731,0.169182 -0.550762,0.193973 -0.213739,0.03585 -0.547077,0.122615 -0.814418,0.225129 z"
         fill="#ffffff"
         id="path38-2"
         style="clip-rule:evenodd;fill-rule:evenodd;stroke-width:79.8546" />
      <path
         d="m 47.693143,25.813902 c -0.05695,-0.104524 -0.162817,-0.193303 -0.267676,-0.216754 -0.225799,0.113905 -0.448918,0.551767 -0.448918,0.551767 0.196318,-0.0794 0.580913,-0.04422 0.580913,-0.04422 0.210389,0.04757 0.104524,-0.185263 0.135681,-0.290792 z m -4.989691,0.676392 c -0.3789,-0.314912 -1.092814,0.0794 -1.38059,0.231494 a 1.2549605,1.2549605 0 0 0 -0.267006,0.198998 c 0.212733,-0.04657 0.704198,-0.08911 0.998005,-0.02747 0.438533,-0.170521 0.87539,-0.0134 1.265346,0.150756 v -0.04121 c -0.157122,-0.218764 -0.403356,-0.35545 -0.615755,-0.512571 z"
         fill="#7d3033"
         id="path40-6"
         style="clip-rule:evenodd;fill:#010000;fill-opacity:1;fill-rule:evenodd;stroke-width:8.08628" />
      <path
         d="m 54.666448,28.971404 0.02278,-0.355784 c -0.962494,0 -2.264021,-0.511231 -2.264021,-0.511231 0,0.005 1.50287,-0.978574 1.50287,-2.694178 0,-1.4955 -1.00638,-2.689488 -3.761866,-2.689488 -1.414762,0 -1.821133,-0.635186 -1.87842,-0.837534 -0.03417,-0.120605 0.02278,-0.317593 -0.01307,-0.397996 -0.06533,-0.142716 -0.227139,-0.166502 -0.337694,-0.166502 -0.177892,0 -0.327308,0.23987 -0.553442,0.23987 -0.314577,0 -0.574548,-0.1263 -0.785271,-0.07203 -0.105195,0.02747 -0.37153,0.221109 -0.37153,0.361145 0,0.120604 0.140035,0.117589 0.274711,0.202683 0.135345,0.08442 0.194978,0.262315 0.194978,0.262315 0.162816,0.535017 0.965173,1.781602 2.159161,1.781602 1.487795,0 2.743091,0.474044 2.743091,1.182597 0,0.707214 -0.954119,0.790632 -0.954119,0.790632 -0.809392,0 -1.487794,-0.778571 -1.651616,-1.174892 l -0.178562,-0.327978 c -0.683093,-0.245565 -1.044237,-0.476724 -1.815773,-0.700848 -0.236855,-0.03652 -0.534682,-0.09782 -0.722289,-0.11491 l -0.130321,-0.0047 c -0.790296,-0.03015 -1.453958,0.226804 -2.38429,0.819778 -0.269016,0.02647 -1.960499,0.602019 -2.503556,0.802692 -0.514916,0.197658 -1.007721,0.418097 -1.48478,0.706543 l -0.03417,0.02077 -0.07973,0.166167 c -0.0047,0.01105 -0.162147,0.498835 -0.332334,0.587949 -0.855959,0.412401 -1.968204,0.555452 -2.939073,0.727314 -0.712574,0.125965 -1.460994,0.24657 -2.192328,0.37354 -0.415752,0.07169 -0.787617,0.129985 -1.159147,0.216084 a 6.4255584,6.4255584 0 0 0 -0.74306,0.217423 c -0.119264,0.04255 -0.227139,0.08241 -0.337023,0.125965 a 734.01451,734.01451 0 0 0 -2.47709,1.532352 v -0.0087 c -0.938372,0.992309 -1.528331,2.481444 -1.756475,2.723324 -0.1263,0.437528 -0.409052,1.288797 -0.531667,1.779257 -0.123955,0.430492 -0.186937,0.895156 -0.24724,1.343404 -0.135345,1.000685 -0.26332,1.944753 -1.0104,2.61545 l -0.0995,0.08945 c 0.153436,0.0871 0.237524,0.336019 0.452603,0.322618 0.06298,-0.004 0.07672,-0.02781 0.07672,-0.02781 0.822458,-0.695153 1.264006,-1.602704 1.60773,-2.544092 -0.160137,0.738035 -0.544732,1.403706 -0.919612,2.045927 -0.121275,0.208379 -0.246235,0.422787 -0.36684,0.645906 -0.321278,0.714584 -0.437863,1.509906 -0.550762,2.278092 -0.08777,0.598334 -0.179902,1.215429 -0.36751,1.783276 -0.337359,0.03518 -1.48545,0.35411 -1.726324,0.404362 0,0 -0.793982,0.224124 -0.777902,0.405366 0,0 0.009,0.104524 0.0134,0.106534 0,0 2.198693,-0.01038 2.61746,0.0037 1.082429,0.03518 3.019477,-0.05126 3.186313,-0.06935 0.166837,-0.01809 0.175547,-0.24322 0.166167,-0.329319 0.126635,-6.7e-4 0.284091,-0.003 0.458298,-0.0064 0.543727,-0.0077 1.288127,-0.01943 1.709909,3.35e-4 0.62815,0.02982 1.423807,-3.35e-4 2.183283,-0.08208 l 0.04891,-0.0057 0.03116,-0.03853 c 0.208378,-0.263655 0.08442,-0.506875 -0.01474,-0.702523 -0.05293,-0.104524 -0.10352,-0.203688 -0.10352,-0.291127 0.02848,-1.039882 -0.114239,-2.070383 -0.412736,-2.983295 -0.03853,-0.243555 -0.104524,-0.826813 0.03719,-1.285781 0,0 1.36384,0.03149 2.009076,-0.002 0.626475,-0.03283 1.455969,-0.244894 2.129346,-0.542051 6.7e-4,0.0017 0.002,0.0027 0.002,0.004 0.06935,1.012746 -0.171527,1.970549 -0.404362,2.896861 -0.06399,0.25394 -0.13032,0.516256 -0.188277,0.772876 -0.08442,0.342049 -0.09045,0.760816 -0.09615,1.165512 -0.0034,0.23786 -0.007,0.463324 -0.02546,0.670362 -0.147741,0.01005 -0.285431,0.03719 -0.418432,0.06365 -0.146401,0.02948 -0.899511,0.170522 -1.217439,0.279066 -0.07504,0.0258 -0.76316,0.231829 -0.775891,0.339034 a 0.13166029,0.13166029 0 0 0 0.0727,0.13233 l 0.04556,0.0144 c 0.439537,0.03886 0.894821,0.02345 1.335028,0.008 0.36148,-0.01273 0.73502,-0.02546 1.096165,-0.008 0.563492,0.02714 1.13201,0.0047 1.682772,-0.01776 0.487445,-0.0201 1.289132,-0.01106 1.4754,-0.02412 0.187942,-0.01173 0.331663,-0.321948 0.331663,-0.321948 0.38024,-0.02379 1.087454,-0.0526 1.273386,-0.04087 0.389286,0.02479 0.927987,0.01876 1.800027,-0.0201 0.08777,-0.0013 0.177893,0.003 0.265666,0.0077 0.324628,0.01642 0.660312,0.03384 0.908892,-0.2459 0.13032,-0.146736 0.01038,-0.467344 -0.0459,-0.549422 l -0.04389,-0.06265 C 44.234453,42.500859 44.081016,42.2831 44.04785,41.554111 c -0.007,-0.152431 0.0027,-0.349754 0.01374,-0.578568 0.02814,-0.582924 -0.02211,-1.199014 -0.105865,-1.830849 -0.04657,-0.359804 -0.05829,-1.36384 0,-1.712254 0.04389,-0.596659 0.167507,-1.392316 0.366505,-1.967199 0.166837,-0.484764 0.2459,-1.186618 0.422787,-2.228175 0.216419,0.119265 0.562153,0.11089 0.73167,0.09615 0,0 0.07839,0.01106 0.08308,-0.04389 0.03585,-0.425468 0.153771,-0.895826 0.181912,-1.012411 0.300172,0.176552 1.397006,0.710228 1.716274,0.458298 l 0.06097,-0.04757 -0.01575,-0.07471 c -0.09548,-0.673042 -0.109884,-1.976914 -0.1263,-2.564528 0.24791,-0.13702 1.321628,-0.08442 1.321628,-0.08442 0.872375,0.185262 0.660982,0.542052 0.882091,0.542052 0.259635,0 0.37622,-0.563158 0.315247,-0.74373 0,0 1.577579,0.400676 2.312933,0.400676 1.752121,0 2.408077,-0.463659 2.408077,-0.463659 l 0.02412,-0.353439 c -1.201358,0.124625 -2.091824,-0.08677 -2.618465,-0.374545 0.726644,0.11357 2.357155,0.11357 2.643926,0 z M 27.491495,43.699936 c 0,0 -0.02178,-0.04523 -0.02178,-0.0794 0,-0.03417 0.01642,-0.168847 0.141375,-0.168847 0.124625,0 0.307208,0.165832 0.307208,0.25327 -3.35e-4,0 -0.284762,-0.0017 -0.426808,-0.005 z m 1.267356,-0.04824 c 0.0023,0.0047 -0.362819,0.04456 -0.614079,0.05025 0,0 -0.12094,-0.07772 -0.12094,-0.227809 0,-0.150421 0.04188,-0.203018 0.195313,-0.203018 0.09213,3.35e-4 0.561817,0.04556 0.539706,0.380575 z m 2.029512,-1.653961 c 0.02245,0.412066 -0.0027,0.684767 -0.07471,0.816428 -0.152096,0.04255 -0.256285,0.06667 -0.332668,0.08409 -0.08543,0.02044 -0.141711,0.0335 -0.195648,0.05628 -0.0861,0.03551 -0.24322,0.0737 -0.395651,0.111895 -0.10888,0.02613 -0.211729,0.05159 -0.293472,0.07672 -0.100169,0.03116 -0.232834,0.07806 -0.346404,0.121275 l -0.0013,-0.0057 -0.03317,-0.02546 c -0.318598,-0.24657 -0.202683,-0.873715 -0.09983,-1.426822 0.02948,-0.158796 0.05628,-0.308882 0.07571,-0.451598 0.297827,-0.718939 0.698168,-1.321628 1.189633,-1.796342 0.08643,0.162146 0.153101,0.338698 0.222113,0.522621 0.05762,0.154441 0.117255,0.314242 0.194643,0.474714 0.066,0.112229 0.09983,0.242214 0.10687,0.410056 0.0064,0.158462 -0.0017,0.335684 -0.009,0.506876 -0.0077,0.177892 -0.01641,0.363154 -0.007,0.524966 z m 1.450273,1.270371 c 0,0 -0.04255,-0.03283 -0.04255,-0.09179 0,-0.05963 0.03216,-0.157791 0.14238,-0.157791 0.11022,0 0.317258,0.0861 0.317258,0.24456 3.35e-4,0 -0.280406,0.008 -0.417092,0.005 z m 1.10253,-0.100169 c 0,0.03886 -0.330994,0.067 -0.506206,0.08275 0,0 -0.119265,-0.150421 -0.119265,-0.24121 0,-0.08978 0.10285,-0.187942 0.24724,-0.187942 0.144391,3.35e-4 0.378231,0.25662 0.378231,0.346404 z m -0.190288,-1.295162 c -0.01407,0.185932 0.03719,0.477729 0.05092,0.655286 -0.714919,0.06767 -1.158142,0.207708 -1.657647,0.450593 -0.01206,0.0084 -0.06131,0.02647 -0.06131,0.09615 0,0.04188 0.02613,0.06097 0.102514,0.06097 0.07571,0 0.185932,-0.127975 0.361145,-0.127975 0.139365,0 0.128645,0.163487 0.125295,0.244225 -0.342049,0.004 -0.74038,-0.04456 -1.076399,-0.113904 -0.06834,-0.07504 -0.02077,-0.161812 0.01608,-0.219769 0.382585,-0.451598 0.03451,-1.148761 0.163822,-1.674733 0.252935,-0.396991 0.321277,-0.87472 0.601684,-1.264675 0.273036,-0.334679 0.506205,-0.697499 0.820448,-0.998006 0.04087,-0.0064 0.08911,0.02044 0.08911,0.06164 -0.0144,1.011406 0.542052,1.816443 0.464329,2.830194 z m 5.557873,1.705218 c 0,0 -0.08241,-0.143721 -0.08241,-0.223119 0,-0.0794 0.07203,-0.101844 0.138696,-0.101844 0.066,0 0.295817,0.122615 0.327308,0.309218 -3.35e-4,0 -0.25595,0.01407 -0.383591,0.01574 z m 1.10655,-0.129315 c -0.172867,0.04724 -0.463324,0.09883 -0.556792,0.09849 0,-0.115915 -0.115245,-0.314913 -0.115245,-0.365835 0,-0.05025 0.05695,-0.151426 0.280741,-0.151426 0.405031,0 0.391296,0.418767 0.391296,0.418767 z m 1.457644,-0.690798 c -0.193638,0.06097 -0.369855,0.104859 -0.539707,0.148076 -0.219769,0.05528 -0.405701,0.09883 -0.593309,0.136351 l -0.12027,-0.09581 -0.0047,-0.004 C 39.7885,42.746488 39.78649,42.432915 39.78515,42.099912 c -0.0013,-0.107875 -0.0013,-0.219099 -0.0097,-0.327643 -0.05293,-0.743395 0.105195,-1.410072 0.637196,-2.091154 0.07404,-0.318263 0.216419,-0.724635 0.291127,-1.014421 0.03719,-0.144726 0.07672,-0.291462 0.12228,-0.435183 0.06332,0.423457 0.139365,0.858305 0.224459,1.274392 0.04054,0.708553 0.142045,1.38193 0.24791,2.094839 l 0.05896,0.391965 c -6.7e-4,0.268681 -0.04054,0.512236 -0.08442,0.765171 z m 0.300507,0.385601 c 0.03417,-0.272701 0.218428,-0.413407 0.218428,-0.799677 0,-0.385601 -0.177892,-1.681433 -0.273371,-2.133031 0.307543,-0.690128 0.444228,-1.448933 0.656292,-2.173233 0.273371,-0.546407 0.840884,-0.854284 1.353789,-1.059647 h 0.109215 c 0.0027,0.456623 -0.0995,0.983599 -0.1196,1.331678 -0.02044,1.059313 0.146736,1.773562 0.11893,2.307238 -0.02613,0.487445 -0.02747,1.151106 0.137355,1.898186 l -0.02747,0.03384 c -0.694148,0.01239 -1.084774,0.121945 -1.477409,0.274711 -0.03216,0.01307 -0.07672,0.04523 -0.07672,0.09983 0,0.05327 0.05494,0.08543 0.105864,0.08442 0.08442,-0.0017 0.220439,-0.02714 0.279401,0.0124 0.09347,0.06432 0.143386,0.150756 0.136685,0.25327 -0.39632,-0.0064 -0.780246,-0.04355 -1.14139,-0.129985 z m 1.277741,0.13836 c 0,0 -0.0268,-0.0603 -0.0268,-0.14372 0,-0.08308 0.04121,-0.176888 0.164156,-0.176888 0.12295,0 0.267676,0.133671 0.267676,0.321613 0,0 -0.278061,0.002 -0.405031,-10e-4 z m 1.134021,-0.172197 c 0,0.06801 -0.004,0.107875 -0.02881,0.129986 -0.03585,0.03149 -0.564162,0.03484 -0.564162,0.03484 0.0097,-0.133 -0.09883,-0.230154 -0.12027,-0.291462 -0.01977,-0.05494 0.05762,-0.150086 0.301512,-0.150086 0.24389,0 0.411732,0.178562 0.411732,0.276721 z M 54.039638,29.629705 c 0,0 -0.505871,0.290122 -1.372215,0.290122 -0.578569,0 -2.625836,-0.25059 -3.492851,-0.6114 0.227809,-0.805372 0.819778,-1.036866 0.819778,-1.036866 0,0 1.994,1.386286 4.045288,1.358144 z m -3.274422,-1.219449 -0.959813,-0.375215 c 0,0 -0.815423,0.892811 -1.039212,1.029497 -0.344059,-0.03585 -0.62681,-0.324628 -0.950098,-0.460644 -0.260976,-0.152431 -0.561483,-0.282751 -0.871705,-0.280406 -0.138696,0 -0.200339,0.05896 -0.149081,0.133335 0.12831,0.185933 0.8841,0.577898 1.436872,0.635521 0.07906,0.143386 0.187273,0.279401 0.323288,0.401681 -0.05025,0.107874 -0.201008,0.115245 -0.308212,0.0861 -0.546407,-0.272031 -1.192313,-0.02814 -1.774566,-0.007 -0.293807,0.12965 -0.566508,0.337694 -0.876061,0.388281 -0.473039,-0.467009 -0.918607,-0.841219 -1.191643,-1.401697 0,0.512906 0.312903,0.925978 0.538367,1.390976 l 0.558803,0.768521 c 0.08174,0.99834 -0.107875,1.332014 -0.304193,2.163517 -0.115914,-0.0144 -0.216083,-0.157791 -0.366504,-0.185262 -1.463004,-0.48577 -2.674078,-0.633176 -4.128036,-1.204374 -0.505871,-0.198663 -0.991305,-0.74842 -1.266686,-1.313587 0,0.246569 0.02412,0.679742 0.153771,1.076398 0.157791,0.594314 0.352099,1.25697 0.857969,1.667362 0.567848,-0.09548 1.114255,0.04322 1.73403,0.252935 0.313573,0.105864 0.562823,0.240875 0.827818,0.413407 0.09548,0.287106 -0.277391,1.271041 -0.425802,1.517276 -0.479069,0.75981 -1.326988,1.25161 -1.689473,2.044587 -0.369855,0.681417 -0.592974,1.527326 -0.786611,2.236885 -0.146066,0.13702 -0.223789,0.325298 -0.289117,0.451263 -0.411061,0.813748 -0.647916,1.660327 -0.524631,2.577259 0.03484,0.116249 0.03484,0.238864 0.06231,0.355784 -0.12496,0.02613 -0.192297,0.01608 -0.328313,0.04087 -0.453608,0.05226 -1.121625,0.202349 -1.270036,0.409722 -0.01374,0.01173 -0.06533,0.09849 0.03786,0.115915 0.104524,0.01809 0.206703,-0.128981 0.390625,-0.0727 0.183253,0.05494 0.35478,0.138695 0.321278,0.301847 -0.424127,-0.0134 -0.959813,-0.008 -1.349769,-0.117925 -0.06097,-0.116585 -0.05025,-0.278061 -0.06533,-0.438868 -0.109214,-2.119295 0.72497,-3.972589 0.738035,-6.085854 0.240205,-0.547412 0.492805,-1.087454 0.87539,-1.572888 0,-0.02714 -0.03853,-0.05595 -0.06533,-0.07035 -0.161477,0.140035 -0.238865,0.232834 -0.405032,0.343388 -0.117254,0.07806 -0.356454,0.2325 -0.356454,0.2325 -0.02747,0.137355 -0.109884,0.246235 -0.185262,0.369855 -0.05092,0.02345 -0.227139,0.08174 -0.35545,0.122615 -0.827148,0.218763 -1.612419,0.453943 -2.543757,0.417091 -0.858304,-0.03384 -1.662002,-0.05461 -2.414107,-0.368849 0.01374,-0.151091 0.08878,-0.373205 0.12295,-0.458299 0.03417,-0.08576 0.280406,-0.6248 0.280406,-0.6248 l -0.06164,0.002 c -0.574213,0.677732 -1.059983,1.456974 -1.49081,2.222479 -0.09012,0.179903 -0.146736,0.426138 -0.256956,0.593644 -0.04891,0.0737 -0.678067,0.806713 -0.980584,1.143401 -0.437863,0.423792 -0.663662,0.971539 -1.101524,1.381261 a 26.487505,26.487505 0 0 0 -0.403356,1.647596 3.1142852,3.1142852 0 0 0 -0.04255,0.606709 c -0.230489,0.03685 -0.326973,0.06097 -0.463324,0.08576 -0.303857,0.05327 -0.860649,0.206368 -1.13402,0.373205 -0.100169,0.06164 -0.07806,0.160806 0.0258,0.147071 0.108544,-0.01407 0.275046,-0.183923 0.395986,-0.01608 0.05226,0.07236 0.07471,0.122615 0.07638,0.184928 -0.307208,-0.0067 -0.668352,0.0067 -0.950769,-0.04054 -0.195312,-0.195983 -0.157121,-0.506875 -0.136685,-0.73904 0.198328,-0.745405 0.389956,-1.442903 0.519941,-2.215109 0.04791,-0.375885 0.233504,-1.49818 0.364829,-1.782941 0.229485,-0.499171 0.573209,-0.965174 0.813413,-1.414092 0.324963,-0.60872 0.452603,-0.860985 0.517261,-1.699189 0.007,-0.526641 0.123285,-1.087118 0.185262,-1.600024 -0.01407,-0.02044 -0.03451,-0.02747 -0.06198,-0.02747 -1.155797,0.957133 -0.841219,2.570893 -1.723309,3.644946 0.64222,-1.13536 0.382585,-2.639906 0.936697,-3.829538 0.08978,-0.239535 0.165497,-0.671032 0.311898,-1.043567 0.223789,-0.292132 0.769191,-1.685453 1.37054,-2.251626 a 5.8141588,5.8141588 0 0 1 0.805037,-0.784267 c 0.495485,-0.306202 1.035192,-0.637195 1.500191,-0.923297 l 1.407726,-0.490794 c 0.282752,-0.06231 0.602354,-0.114575 1.005711,-0.171192 0.75244,-0.1062 1.938388,-0.283087 2.783962,-0.442218 0.595989,-0.111895 1.876075,-0.407041 2.641581,-0.787952 0.225799,-0.375885 0.176552,-0.252935 0.306202,-0.670027 0.560813,-0.287106 0.794987,-0.473709 1.442903,-0.690127 0.681083,-0.226805 1.394996,-0.746075 2.371896,-0.788957 0.331663,-0.186268 0.563492,-0.258296 0.918606,-0.432503 0.585604,-0.287106 1.264006,-0.486774 1.960499,-0.299837 l 1.838554,0.545737 0.139366,0.290792 c 0.205363,0.498835 1.01107,1.429168 2.029846,1.429168 h 0.01776 l 0.01776,-0.0017 c 0.459303,-0.0402 1.328328,-0.342048 1.328328,-1.199013 0,-0.284091 -0.1196,-0.553777 -0.347409,-0.781251 -0.50721,-0.507881 -1.556137,-0.810398 -2.805067,-0.810398 -0.935023,0 -1.710914,-1.111574 -1.85028,-1.675402 l 0.0013,-10e-4 c 0.198328,-0.03652 0.597329,-0.117925 0.712574,-0.209049 0.390626,0.774217 1.105879,1.187288 2.250285,1.206719 1.830849,0.03015 3.558178,0.542722 3.558178,2.557828 -0.0017,1.055627 -0.997,2.473404 -2.765536,2.849289 z"
         fill="#7d3033"
         id="path42-2"
         style="clip-rule:evenodd;fill:#000000;fill-opacity:1;fill-rule:evenodd;stroke-width:8.08628" />
      <path
         d="m 32.33847,43.018519 c -0.110219,0 -0.14238,0.09816 -0.14238,0.157791 0,0.0593 0.04255,0.09179 0.04255,0.09179 0.136686,0.003 0.417092,-0.005 0.417092,-0.005 3.35e-4,-0.158462 -0.207038,-0.24456 -0.317258,-0.24456 z m -4.72771,0.433172 c -0.12496,0 -0.141375,0.134341 -0.141375,0.168847 0,0.03451 0.02178,0.0794 0.02178,0.0794 0.142046,0.0033 0.426473,0.005 0.426473,0.005 3.35e-4,-0.08744 -0.182248,-0.25327 -0.306873,-0.25327 z m 11.481247,0.110555 c -0.03149,-0.186603 -0.260976,-0.309218 -0.327308,-0.309218 -0.06667,0 -0.138696,0.02211 -0.138696,0.101844 0,0.07973 0.08241,0.223119 0.08241,0.223119 0.127976,-0.0017 0.383591,-0.01574 0.383591,-0.01574 z m 3.896541,-0.601015 c -0.122949,0 -0.164156,0.0938 -0.164156,0.176888 0,0.08342 0.0268,0.14372 0.0268,0.14372 0.12697,0.003 0.405031,0.001 0.405031,0.001 0,-0.187942 -0.144726,-0.321613 -0.267676,-0.321613 z"
         fill="#7d3033"
         id="path44-2"
         style="clip-rule:evenodd;fill-rule:evenodd;stroke-width:79.8546" />
    </g>
  </g>
</svg>
