<?xml version="1.0" encoding="UTF-8" standalone="no"?>
<svg
   xmlns:dc="http://purl.org/dc/elements/1.1/"
   xmlns:cc="http://creativecommons.org/ns#"
   xmlns:rdf="http://www.w3.org/1999/02/22-rdf-syntax-ns#"
   xmlns:svg="http://www.w3.org/2000/svg"
   xmlns="http://www.w3.org/2000/svg"
   xmlns:sodipodi="http://sodipodi.sourceforge.net/DTD/sodipodi-0.dtd"
   xmlns:inkscape="http://www.inkscape.org/namespaces/inkscape"
   id="emoji"
   viewBox="0 0 72 72"
   version="1.1"
   sodipodi:docname="abacus.svg"
   inkscape:version="1.0.2-2 (e86c870879, 2021-01-15)"
   inkscape:export-filename="E:\GIT\ameji\Ameji\symbols\ameji_basic_618x618\abacus.png"
   inkscape:export-xdpi="824"
   inkscape:export-ydpi="824">
  <metadata
     id="metadata10">
    <rdf:RDF>
      <cc:Work
         rdf:about="">
        <dc:format>image/svg+xml</dc:format>
        <dc:type
           rdf:resource="http://purl.org/dc/dcmitype/StillImage" />
        <dc:title />
      </cc:Work>
    </rdf:RDF>
  </metadata>
  <defs
     id="defs8">
    <filter
       inkscape:collect="always"
       style="color-interpolation-filters:sRGB"
       id="filter1487"
       x="-1.2e-06"
       width="1.0000024"
       y="-1.2e-06"
       height="1.0000024">
      <feGaussianBlur
         inkscape:collect="always"
         stdDeviation="3.6e-05"
         id="feGaussianBlur1489" />
    </filter>
  </defs>
  <sodipodi:namedview
     pagecolor="#ffffff"
     bordercolor="#666666"
     borderopacity="1"
     objecttolerance="10"
     gridtolerance="10"
     guidetolerance="10"
     inkscape:pageopacity="0"
     inkscape:pageshadow="2"
     inkscape:window-width="2560"
     inkscape:window-height="1361"
     id="namedview6"
     showgrid="false"
     inkscape:zoom="11.313709"
     inkscape:cx="36.936666"
     inkscape:cy="45.03828"
     inkscape:window-x="-9"
     inkscape:window-y="623"
     inkscape:window-maximized="1"
     inkscape:current-layer="layer4"
     inkscape:snap-bbox="true"
     inkscape:snap-intersection-paths="true"
     inkscape:snap-object-midpoints="true"
     inkscape:document-rotation="0"
     inkscape:bbox-paths="false"
     inkscape:bbox-nodes="false"
     inkscape:snap-bbox-edge-midpoints="false"
     inkscape:snap-bbox-midpoints="false"
     showguides="true"
     inkscape:guide-bbox="true"
     inkscape:object-paths="true"
     inkscape:snap-global="false" />
  <g
     id="color"
     transform="translate(65.485714,-13.273469)" />
  <g
     id="hair"
     transform="translate(65.485714,-13.273469)" />
  <g
     id="skin"
     transform="translate(65.485714,-13.273469)" />
  <g
     id="skin-shadow"
     transform="translate(65.485714,-13.273469)" />
  <g
     id="line-9"
     transform="translate(65.485714,-13.273469)" />
  <g
     inkscape:groupmode="layer"
     id="layer1"
     inkscape:label="background"
     style="display:inline" />
  <g
     inkscape:groupmode="layer"
     id="layer5"
     inkscape:label="template"
     style="display:none">
    <g
       id="grid"
       style="display:inline;filter:url(#filter1487)">
      <path
         d="M 68,4 V 68 H 4 V 4 H 68 M 72,0 H 0 v 72 h 72 z"
         fill="#b3b3b3"
         id="path1535" />
      <path
         d="M 12.923,10.9583 H 59.0769 A 1.9231,1.9231 0 0 1 61,12.8814 v 46.1538 a 1.9231,1.9231 0 0 1 -1.9231,1.9231 H 12.9231 A 1.9231,1.9231 0 0 1 11,59.0352 V 12.8813 a 1.923,1.923 0 0 1 1.923,-1.923 z"
         fill="none"
         stroke="#00a5ff"
         stroke-miterlimit="10"
         stroke-width="0.1"
         id="path1537" />
      <rect
         x="16"
         y="4"
         width="40"
         height="64"
         rx="2.2537"
         fill="none"
         stroke="#00a5ff"
         stroke-miterlimit="10"
         stroke-width="0.1"
         id="rect1539" />
      <rect
         x="16"
         y="4"
         width="40"
         height="64"
         rx="2.2537"
         transform="rotate(90,36,36)"
         fill="none"
         stroke="#00a5ff"
         stroke-miterlimit="10"
         stroke-width="0.1"
         id="rect1541" />
      <circle
         cx="36"
         cy="36"
         r="29"
         fill="none"
         stroke="#00a5ff"
         stroke-miterlimit="10"
         stroke-width="0.1"
         id="circle1543" />
    </g>
  </g>
  <g
     inkscape:groupmode="layer"
     id="layer4"
     inkscape:label="symbol"
     style="display:inline">
    <path
       style="fill:none;stroke:#000000;stroke-width:2;stroke-linecap:butt;stroke-linejoin:miter;stroke-miterlimit:4;stroke-dasharray:none;stroke-opacity:1"
       d="M 16,24.483571 H 56"
       id="path1592" />
    <path
       id="path1596"
       style="fill:#ffffff;fill-opacity:1;stroke:#000000;stroke-width:2;stroke-linecap:round;stroke-miterlimit:4;stroke-dasharray:none;stroke-opacity:1"
       d="m 25.743069,24.428326 c -0.02204,2.205038 -0.02656,4.039168 -2.047149,4.036231 -1.939503,-0.0028 -1.95876,-1.787296 -1.95876,-3.992037 0,-2.204741 0.06279,-3.969939 2.002954,-3.969939 1.994405,0 2.024993,1.721006 2.002955,3.925745 z"
       sodipodi:nodetypes="sssss" />
    <path
       id="path1596-7"
       style="fill:#ffffff;fill-opacity:1;stroke:#000000;stroke-width:2;stroke-linecap:round;stroke-miterlimit:4;stroke-dasharray:none;stroke-opacity:1"
       d="m 32.847459,24.428326 c -0.02204,2.205038 -0.02656,4.039168 -2.047149,4.036231 -1.939503,-0.0028 -1.95876,-1.787296 -1.95876,-3.992037 0,-2.204741 0.06279,-3.969939 2.002954,-3.969939 1.994405,0 2.024993,1.721006 2.002955,3.925745 z"
       sodipodi:nodetypes="sssss" />
    <path
       id="path1596-7-4"
       style="fill:#ffffff;fill-opacity:1;stroke:#000000;stroke-width:2;stroke-linecap:round;stroke-miterlimit:4;stroke-dasharray:none;stroke-opacity:1"
       d="m 41.33274,24.428326 c -0.02204,2.205038 -0.02656,4.039168 -2.047149,4.036231 -1.939503,-0.0028 -1.95876,-1.787296 -1.95876,-3.992037 0,-2.204741 0.06279,-3.969939 2.002954,-3.969939 1.994405,0 2.024993,1.721006 2.002955,3.925745 z"
       sodipodi:nodetypes="sssss" />
    <path
       style="fill:none;stroke:#000000;stroke-width:2;stroke-linecap:butt;stroke-linejoin:miter;stroke-miterlimit:4;stroke-dasharray:none;stroke-opacity:1"
       d="M 16,36.062448 H 56"
       id="path1592-7" />
    <path
       id="path1596-79"
       style="fill:#ffffff;fill-opacity:1;stroke:#000000;stroke-width:2;stroke-linecap:round;stroke-miterlimit:4;stroke-dasharray:none;stroke-opacity:1"
       d="m 23.710137,36.007203 c -0.02204,2.205038 -0.02656,4.039168 -2.047149,4.036231 -1.939503,-0.0028 -1.95876,-1.787296 -1.95876,-3.992037 0,-2.204741 0.06279,-3.969939 2.002954,-3.969939 1.994405,0 2.024993,1.721006 2.002955,3.925745 z"
       sodipodi:nodetypes="sssss" />
    <path
       id="path1596-7-9"
       style="fill:#ffffff;fill-opacity:1;stroke:#000000;stroke-width:2;stroke-linecap:round;stroke-miterlimit:4;stroke-dasharray:none;stroke-opacity:1"
       d="m 32.847459,36.007203 c -0.02204,2.205038 -0.02656,4.039168 -2.047149,4.036231 -1.939503,-0.0028 -1.95876,-1.787296 -1.95876,-3.992037 0,-2.204741 0.06279,-3.969939 2.002954,-3.969939 1.994405,0 2.024993,1.721006 2.002955,3.925745 z"
       sodipodi:nodetypes="sssss" />
    <path
       id="path1596-7-4-1"
       style="fill:#ffffff;fill-opacity:1;stroke:#000000;stroke-width:2;stroke-linecap:round;stroke-miterlimit:4;stroke-dasharray:none;stroke-opacity:1"
       d="m 46.105711,36.007203 c -0.02204,2.205038 -0.02656,4.039168 -2.047149,4.036231 -1.939503,-0.0028 -1.95876,-1.787296 -1.95876,-3.992037 0,-2.204741 0.06279,-3.969939 2.002954,-3.969939 1.994405,0 2.024993,1.721006 2.002955,3.925745 z"
       sodipodi:nodetypes="sssss" />
    <path
       style="fill:none;stroke:#000000;stroke-width:2;stroke-linecap:butt;stroke-linejoin:miter;stroke-miterlimit:4;stroke-dasharray:none;stroke-opacity:1"
       d="M 56,47.641319 H 16"
       id="path1592-5" />
    <path
       id="path1596-6"
       style="fill:#ffffff;fill-opacity:1;stroke:#000000;stroke-width:2;stroke-linecap:round;stroke-miterlimit:4;stroke-dasharray:none;stroke-opacity:1"
       d="m 48.643416,47.586074 c 0.02204,2.205038 0.02656,4.039168 2.047149,4.036231 1.939503,-0.0028 1.95876,-1.787296 1.95876,-3.992037 0,-2.204741 -0.06279,-3.969939 -2.002954,-3.969939 -1.994405,0 -2.024993,1.721006 -2.002955,3.925745 z"
       sodipodi:nodetypes="sssss" />
    <path
       id="path1596-7-0"
       style="fill:#ffffff;fill-opacity:1;stroke:#000000;stroke-width:2;stroke-linecap:round;stroke-miterlimit:4;stroke-dasharray:none;stroke-opacity:1"
       d="m 39.152541,47.586074 c 0.02204,2.205038 0.02656,4.039168 2.047149,4.036231 1.939503,-0.0028 1.95876,-1.787296 1.95876,-3.992037 0,-2.204741 -0.06279,-3.969939 -2.002954,-3.969939 -1.994405,0 -2.024993,1.721006 -2.002955,3.925745 z"
       sodipodi:nodetypes="sssss" />
    <path
       id="path1596-7-4-7"
       style="fill:#ffffff;fill-opacity:1;stroke:#000000;stroke-width:2;stroke-linecap:round;stroke-miterlimit:4;stroke-dasharray:none;stroke-opacity:1"
       d="m 30.490483,47.586074 c 0.02204,2.205038 0.02656,4.039168 2.047149,4.036231 1.939503,-0.0028 1.95876,-1.787296 1.95876,-3.992037 0,-2.204741 -0.06279,-3.969939 -2.002954,-3.969939 -1.994405,0 -2.024993,1.721006 -2.002955,3.925745 z"
       sodipodi:nodetypes="sssss" />
    <rect
       style="display:inline;fill:none;stroke:#000000;stroke-width:2.2;stroke-linecap:round;stroke-linejoin:round"
       id="rect870"
       width="40"
       height="40"
       x="16"
       y="16"
       rx="2.2537" />
    <rect
       style="display:inline;fill:none;stroke:#000000;stroke-width:2.2;stroke-linecap:round;stroke-linejoin:round;stroke-miterlimit:4;stroke-dasharray:none"
       id="rect872"
       width="48.561165"
       height="48.681309"
       x="11.719418"
       y="11.659346"
       rx="5.1917806" />
  </g>
</svg>
