<?xml version="1.0" encoding="UTF-8" standalone="no"?>
<svg
   xmlns:dc="http://purl.org/dc/elements/1.1/"
   xmlns:cc="http://creativecommons.org/ns#"
   xmlns:rdf="http://www.w3.org/1999/02/22-rdf-syntax-ns#"
   xmlns:svg="http://www.w3.org/2000/svg"
   xmlns="http://www.w3.org/2000/svg"
   xmlns:sodipodi="http://sodipodi.sourceforge.net/DTD/sodipodi-0.dtd"
   xmlns:inkscape="http://www.inkscape.org/namespaces/inkscape"
   id="emoji"
   viewBox="0 0 72 72"
   version="1.1"
   sodipodi:docname="full.svg"
   inkscape:version="1.0.2-2 (e86c870879, 2021-01-15)"
   inkscape:export-filename="E:\GIT\ameji\Ameji\symbols\ameji_basic_618x618\earth-spin.png"
   inkscape:export-xdpi="822.56403"
   inkscape:export-ydpi="822.56403">
  <metadata
     id="metadata26">
    <rdf:RDF>
      <cc:Work
         rdf:about="">
        <dc:format>image/svg+xml</dc:format>
        <dc:type
           rdf:resource="http://purl.org/dc/dcmitype/StillImage" />
        <dc:title></dc:title>
      </cc:Work>
    </rdf:RDF>
  </metadata>
  <defs
     id="defs24" />
  <sodipodi:namedview
     pagecolor="#ffffff"
     bordercolor="#666666"
     borderopacity="1"
     objecttolerance="10"
     gridtolerance="10"
     guidetolerance="10"
     inkscape:pageopacity="0"
     inkscape:pageshadow="2"
     inkscape:window-width="2560"
     inkscape:window-height="1361"
     id="namedview22"
     showgrid="false"
     inkscape:zoom="9.6302374"
     inkscape:cx="58.915863"
     inkscape:cy="60.32517"
     inkscape:window-x="-9"
     inkscape:window-y="623"
     inkscape:window-maximized="1"
     inkscape:current-layer="emoji"
     inkscape:document-rotation="0"
     inkscape:object-paths="true"
     inkscape:snap-intersection-paths="true" />
  <g
     id="color"
     transform="translate(-4.3591837,-20.326531)" />
  <g
     id="hair"
     transform="translate(-4.3591837,-20.326531)" />
  <g
     id="skin"
     transform="translate(-4.3591837,-20.326531)" />
  <g
     id="skin-shadow"
     transform="translate(-4.3591837,-20.326531)" />
  <g
     id="line-5"
     transform="translate(-4.3591837,-20.326531)" />
  <g
     inkscape:groupmode="layer"
     id="layer2"
     inkscape:label="template"
     style="display:none">
    <g
       id="grid">
      <path
         d="M 68,4 V 68 H 4 V 4 H 68 M 72,0 H 0 v 72 h 72 z"
         fill="#b3b3b3"
         id="path1535" />
      <path
         d="M 12.923,10.9583 H 59.0769 A 1.9231,1.9231 0 0 1 61,12.8814 v 46.1538 a 1.9231,1.9231 0 0 1 -1.9231,1.9231 H 12.9231 A 1.9231,1.9231 0 0 1 11,59.0352 V 12.8813 a 1.923,1.923 0 0 1 1.923,-1.923 z"
         fill="none"
         stroke="#00a5ff"
         stroke-miterlimit="10"
         stroke-width="0.1"
         id="path1537" />
      <rect
         x="16"
         y="4"
         width="40"
         height="64"
         rx="2.2537"
         fill="none"
         stroke="#00a5ff"
         stroke-miterlimit="10"
         stroke-width="0.1"
         id="rect1539" />
      <rect
         x="16"
         y="4"
         width="40"
         height="64"
         rx="2.2537"
         transform="rotate(90,36,36)"
         fill="none"
         stroke="#00a5ff"
         stroke-miterlimit="10"
         stroke-width="0.1"
         id="rect1541" />
      <circle
         cx="36"
         cy="36"
         r="29"
         fill="none"
         stroke="#00a5ff"
         stroke-miterlimit="10"
         stroke-width="0.1"
         id="circle1543" />
    </g>
  </g>
  <path
     style="fill:none;stroke:#000000;stroke-width:2;stroke-linecap:round;stroke-miterlimit:4;stroke-dasharray:none;stroke-opacity:1"
     d="M 13.799324,33.018395 C 6.2091656,33.778331 3.9999998,34.659039 4,35.999996 c 4e-7,2.295326 13.141508,4.319954 30.81462,4.319954 l 11.030278,-0.05872 6.211085,-0.184163 M 58.197086,32.99178 C 65.964937,33.750065 68,34.640762 68,36 c 0,0.86613 -2.627857,2.021616 -3.987144,2.360609 -1.359288,0.338992 -2.365347,0.49933 -2.365347,0.49933"
     id="path2200"
     sodipodi:nodetypes="csccscczc" />
  <path
     style="fill:none;stroke:#000000;stroke-width:2;stroke-linecap:round;stroke-linejoin:miter;stroke-miterlimit:4;stroke-dasharray:none;stroke-opacity:1"
     d="m 44.460541,35.74903 8.744917,4.155939 -8.185169,4.989074"
     id="path2536"
     sodipodi:nodetypes="ccc" />
  <path
     id="circle2"
     style="fill:none;stroke:#000000;stroke-width:2;stroke-linecap:round;stroke-linejoin:round;stroke-miterlimit:4;stroke-dasharray:none"
     d="m 13.655069,35.724654 c 0,-0.773199 -0.01589,-1.261901 0.06058,-2.014924 0.07647,-0.753022 0.190245,-1.495018 0.339439,-2.224111 0.149194,-0.729093 0.33381,-1.445283 0.551972,-2.146694 0.218161,-0.70141 0.469868,-1.388041 0.753243,-2.058016 0.283375,-0.669975 0.59842,-1.323293 0.943256,-1.958079 0.344836,-0.634786 0.719465,-1.251039 1.122009,-1.846883 0.402544,-0.595844 0.833004,-1.171278 1.289503,-1.724427 0.456499,-0.553149 0.939037,-1.084012 1.445737,-1.590712 0.5067,-0.5067 1.037563,-0.989238 1.590712,-1.445737 0.553149,-0.456499 1.128583,-0.886959 1.724427,-1.289503 0.595844,-0.402544 1.212097,-0.777173 1.846883,-1.122009 0.634786,-0.344836 1.288104,-0.659881 1.958079,-0.943256 0.669975,-0.283375 1.356606,-0.535082 2.058016,-0.753243 0.701411,-0.218162 1.417601,-0.402778 2.146694,-0.551972 0.729093,-0.149194 1.471089,-0.262966 2.224111,-0.339439 C 34.462753,13.639175 35.226801,13.6 36,13.6 c 12.371178,0 22.4,10.028822 22.4,22.4 0,12.371178 -10.028822,22.4 -22.4,22.4 -0.773199,0 -1.537247,-0.03918 -2.29027,-0.115649 -0.753022,-0.07647 -1.495018,-0.190245 -2.224111,-0.339439 -0.729093,-0.149194 -1.445283,-0.33381 -2.146694,-0.551972 -0.70141,-0.218161 -1.388041,-0.469868 -2.058016,-0.753243 -0.669975,-0.283375 -1.323293,-0.59842 -1.958079,-0.943256 -0.634786,-0.344836 -1.251039,-0.719465 -1.846883,-1.122009 -0.595844,-0.402544 -1.171278,-0.833004 -1.724427,-1.289503 -0.553149,-0.456499 -1.084012,-0.939037 -1.590712,-1.445737 -0.5067,-0.5067 -0.989238,-1.037563 -1.445737,-1.590712 -0.456499,-0.553149 -0.886959,-1.128583 -1.289503,-1.724427 -0.402544,-0.595844 -0.777173,-1.212097 -1.122009,-1.846883 -0.344836,-0.634786 -0.659881,-1.288104 -0.943256,-1.958079 -0.283375,-0.669975 -0.535082,-1.356606 -0.753243,-2.058016"
     sodipodi:nodetypes="cssssssssssssssssssssssssssssssc" />
  <g
     inkscape:groupmode="layer"
     id="layer3"
     inkscape:label="more continents"
     style="display:none">
    <path
       fill="none"
       stroke="#000000"
       stroke-linecap="round"
       stroke-linejoin="round"
       stroke-miterlimit="10"
       stroke-width="2"
       d="m 28.481669,28.20618 c -0.04544,0.63568 -1.81648,2.81776 -2.27024,3.13288 -0.94608,0.65712 -1.31544,0.35592 -2.13968,1.00456 -0.5224,0.41112 -1.1752,0.85072 -1.97512,1.00456 -0.44272,0.08512 -0.24688,-0.3332 -1.24296,0.30648 -0.55488,0.35632 -0.06224,0.73976 0,1.08968 0.08368,0.4704 0.14624,0.18688 1.08968,1.08968 0.49256,0.47144 0.53656,0.89152 1.08968,1.08968 0.34576,0.12392 0.59704,0.056 1.08968,0 1.03288,-0.11736 0.5736,0.90072 1.08968,1.08968 1.18712,0.43464 1.62552,0.25288 2.71904,0.4356 0.4416,0.07376 1.04976,-0.14392 1.6,0.8 0.23704,0.40664 0,1.6 0.04,2.03368 0.06752,0.73272 -0.4052,1.38304 -1.08968,2.17944 -0.55368,0.64416 -0.65648,0.54488 -1.08968,1.08968 -0.57888,0.72792 -0.42392,0.94104 -1.08968,2.17944 -0.67392,1.25336 -1.0444,1.42896 -1.08968,2.17944 -0.01896,0.31384 -8.8e-4,1.056 0,1.08968 0.01904,0.7572 0.0612,0.85728 0,1.08968 -0.14248,0.5416 -1.24224,1.01592 -1.65728,0.95352 -0.81688,-0.1228 -0.80208,-2.94544 -0.84,-3.38264 -0.07664,-0.8828 0.28512,-1.37632 0.31784,-1.92968 0.11296,-1.9144 0.43264,-2.50808 0,-3.26912 -0.27608,-0.4856 -0.42184,-0.27168 -1.08968,-1.08968 -0.3772,-0.46192 -0.94848,-1.17864 -1.08968,-2.17944 -0.08904,-0.6304 0.09696,-0.63424 0,-1.08968 -0.18008,-0.84496 -0.88104,-1.11768 -2.17944,-2.17944 -0.80104,-0.65504 -1.51152,-1.23592 -2.17944,-2.17944 -0.34712,-0.49024 -0.83824,-1.184 -1.08968,-2.17944 -0.331041,-1.31024 0.162,-1.52408 0,-3.26912 M 22.355018,18.3989 c 1.07888,-0.19128 0.814891,0.21856 1.768011,0 1.02416,-0.23496 0.99464,-0.74056 2.17944,-1.08968 0.5188,-0.15288 1.4328,-0.4224 2.17944,0 0.67208,0.38016 0.58296,0.96744 1.08968,1.08968 0.7072,0.17072 1.05376,-0.93168 2.17944,-1.08968 0.85944,-0.12064 1.88176,0.35 2.17944,1.08968 0.14776,0.36712 0.07856,0.70536 0,1.08968 -0.23728,1.16088 -0.86688,1.23112 -1.08968,2.17944 -0.24224,1.0304 0.27664,1.28032 0,2.17944 -0.1816,0.59024 -0.54488,0.40864 -1.12376,0.88536 -0.26488,0.21816 -0.3292,0.56752 -1.05568,1.294 -0.3632,0.3632 -0.7404,0.71312 -1.08968,1.08968 -0.79656,0.85824 -0.92352,0.92328 -1.09,1.08968"
       id="path4"
       sodipodi:nodetypes="cccccccccccsccccccccccccccsccccccccccccscscc"
       style="stroke-width:2;stroke-miterlimit:4;stroke-dasharray:none" />
    <path
       fill="none"
       stroke="#000000"
       stroke-linecap="round"
       stroke-linejoin="round"
       stroke-miterlimit="10"
       stroke-width="2"
       d="m 42.872244,15.169116 c -1.36768,2.017441 -2.96951,4.094449 -2.81911,4.807009 0.15912,0.75352 0.03416,1.39792 0.8,1.6 0.94984,0.25056 1.09288,-0.21776 1.6,-0.8 1.06256,-1.22 1.88648,-3.02624 2.4,-3.2 0.45704,-0.15464 1.65248,1.0796 1.6,2.4 -0.03704,0.93232 -0.6816,1.5376 -1.6,2.4 -0.59336,0.5572 -2.3,1.2 -4.8,1.6 -1.3752,0.22 -1.12664,0.68192 -1.65,1.27504 -0.67416,0.764 -0.3692,1.73528 -1.02496,2.65 -0.82016,1.144 -2.77816,1.43336 -2.92512,2.17504 -0.12536,0.63224 1.5684,1.08752 2.40008,1.09992 0.6804,0.01016 0.85152,-0.61768 2.4,-1.6 0.59264,-0.376 1.4,-1.02496 2.15,-1 0.40328,0.01344 1.46312,0.22816 1.87504,0.57504 0.47504,0.4 -0.12496,1.47504 -0.32496,2.52496 -0.2,1.04992 -2.31808,1.49168 -3.08336,1.61664 -1.25896,0.2056 -3.31512,-0.41824 -4.48336,0.75 -0.8,0.8 -0.8924,1.4128 -0.93336,2.73336 -0.01032,0.33376 0.7496,2.42584 1.6,3.2 0.91536,0.83328 1.83512,-0.66848 3.2,0 1.39648,0.68392 1.9944,2.18304 2.4,3.2 0.40624,1.01848 0.14048,0.93432 0.8,4 0.33168,1.54168 0.25528,0.89552 0.8,3.2 0.45056,1.90608 0.47112,2.21424 0.8,2.4 0.93856,0.53024 3.11976,-0.65296 4,-2.4 0.5516,-1.09464 1.144271,-0.568379 1.775391,-2.998379 m 4.624609,-11.401621 c 0.20632,-1.02016 -1.79936,-1.8528 -1.6,-2.4 0.22576,-0.61968 3.211532,-5.084113 4.755852,-3.476273"
       id="path4-4"
       sodipodi:nodetypes="cccccccccccccccscsccccccccccsc"
       style="stroke-width:2;stroke-miterlimit:4;stroke-dasharray:none" />
  </g>
  <path
     fill="none"
     stroke="#000000"
     stroke-linecap="round"
     stroke-linejoin="round"
     stroke-miterlimit="10"
     stroke-width="1.6"
     d="m 38.303468,29.140576 c -0.0454,0.63568 -1.81648,2.81776 -2.27024,3.13288 -0.94608,0.65712 -1.31544,0.35592 -2.13968,1.00456 -0.5224,0.41112 -1.1752,0.85072 -1.97512,1.00456 -0.44272,0.08512 -0.24688,-0.3332 -1.24296,0.30648 -0.55488,0.35632 -0.0622,0.73976 0,1.08968 0.0837,0.4704 0.14624,0.18688 1.08968,1.08968 0.49256,0.47144 0.53656,0.89152 1.08968,1.08968 0.34576,0.12392 0.59704,0.056 1.08968,0 1.03288,-0.11736 0.5736,0.90072 1.08968,1.08968 1.18712,0.43464 1.62552,0.25288 2.71904,0.4356 0.4416,0.07376 1.04976,-0.14392 1.6,0.8 0.23704,0.40664 0,1.6 0.04,2.03368 0.0675,0.73272 -0.4052,1.38304 -1.08968,2.17944 -0.55368,0.64416 -0.65648,0.54488 -1.08968,1.08968 -0.57888,0.72792 -0.42392,0.94104 -1.08968,2.17944 -0.67392,1.25336 -1.0444,1.42896 -1.08968,2.17944 -0.019,0.31384 -8e-4,1.056 0,1.08968 0.019,0.7572 0.0612,0.85728 0,1.08968 -0.14248,0.5416 -1.24224,1.01592 -1.65728,0.95352 -0.81688,-0.1228 -0.80208,-2.94544 -0.84,-3.38264 -0.0766,-0.8828 0.28512,-1.37632 0.31784,-1.92968 0.11296,-1.9144 0.43264,-2.50808 0,-3.26912 -0.27608,-0.4856 -0.42184,-0.27168 -1.08968,-1.08968 -0.3772,-0.46192 -0.94848,-1.17864 -1.08968,-2.17944 -0.089,-0.6304 0.097,-0.63424 0,-1.08968 -0.18008,-0.84496 -0.88104,-1.11768 -2.17944,-2.17944 -0.80104,-0.65504 -1.51152,-1.23592 -2.17944,-2.17944 -0.34712,-0.49024 -0.83824,-1.184 -1.08968,-2.17944 -0.33104,-1.31024 0.162,-1.52408 0,-3.26912 -0.0366,-0.39304 -0.1956,-1.82632 -1.08968,-3.26912 -0.3796,-0.61256 -0.64696,-1.03056 -1.08968,-1.08968 -0.844,-0.1128 -1.29688,1.2152 -2.17944,1.08968 -0.52744,-0.07504 -0.93512,-0.6304 -1.08968,-1.08968 -0.0414,-0.12272 -0.19216,-0.59248 0,-1.08968 0.10648,-0.2756 0.43424,-0.54696 1.08968,-1.08968 0.6688,-0.55392 1.00504,-0.836 1.08968,-1.08968 0.15936,-0.47792 -0.12792,-0.6484 0,-1.08968 0.2188,-0.7552 1.37832,-1.35512 2.17944,-1.08968 0.46016,0.15248 0.36088,0.4444 1.08968,1.08968 0.35384,0.31328 1.11848,0.90072 2.17944,1.08968 0.53576,0.09544 0.8036,0.14304 1.08968,0 0.70472,-0.35264 0.36776,-1.28672 1.08968,-2.17944 0.66408,-0.82112 1.74296,-1.01232 2.17944,-1.08968 1.07888,-0.19128 1.22632,0.21856 2.17944,0 1.02416,-0.23496 0.99464,-0.74056 2.17944,-1.08968 0.5188,-0.15288 1.4328,-0.4224 2.17944,0 0.67208,0.38016 0.58296,0.96744 1.08968,1.08968 0.7072,0.17072 1.05376,-0.93168 2.17944,-1.08968 0.85944,-0.12064 1.88176,0.35 2.17944,1.08968 0.14776,0.36712 0.0786,0.70536 0,1.08968 -0.23728,1.16088 -0.86688,1.23112 -1.08968,2.17944 -0.24224,1.0304 0.27664,1.28032 0,2.17944 -0.1816,0.59024 -0.54488,0.40864 -1.12376,0.88536 -0.26488,0.21816 -0.3292,0.56752 -1.05568,1.294 -0.3632,0.3632 -0.7404,0.71312 -1.08968,1.08968 -0.79656,0.85824 -0.92352,0.92328 -1.09,1.08968"
     id="path4-9"
     style="stroke-width:2;stroke-miterlimit:10;stroke-dasharray:none" />
</svg>
