<?xml version="1.0" encoding="UTF-8" standalone="no"?>
<svg
   xmlns:dc="http://purl.org/dc/elements/1.1/"
   xmlns:cc="http://creativecommons.org/ns#"
   xmlns:rdf="http://www.w3.org/1999/02/22-rdf-syntax-ns#"
   xmlns:svg="http://www.w3.org/2000/svg"
   xmlns="http://www.w3.org/2000/svg"
   xmlns:sodipodi="http://sodipodi.sourceforge.net/DTD/sodipodi-0.dtd"
   xmlns:inkscape="http://www.inkscape.org/namespaces/inkscape"
   id="emoji"
   viewBox="0 0 72 72"
   version="1.1"
   sodipodi:docname="hourglass.svg"
   inkscape:version="1.0.2-2 (e86c870879, 2021-01-15)"
   inkscape:export-filename="E:\GIT\ameji\Ameji\symbols\ameji_basic_618x618\hourglass.png"
   inkscape:export-xdpi="824"
   inkscape:export-ydpi="824">
  <metadata
     id="metadata26">
    <rdf:RDF>
      <cc:Work
         rdf:about="">
        <dc:format>image/svg+xml</dc:format>
        <dc:type
           rdf:resource="http://purl.org/dc/dcmitype/StillImage" />
        <dc:title />
      </cc:Work>
    </rdf:RDF>
  </metadata>
  <defs
     id="defs24" />
  <sodipodi:namedview
     pagecolor="#ffffff"
     bordercolor="#666666"
     borderopacity="1"
     objecttolerance="10"
     gridtolerance="10"
     guidetolerance="10"
     inkscape:pageopacity="0"
     inkscape:pageshadow="2"
     inkscape:window-width="2560"
     inkscape:window-height="1361"
     id="namedview22"
     showgrid="false"
     inkscape:zoom="7.2183817"
     inkscape:cx="15.864551"
     inkscape:cy="8.8978249"
     inkscape:window-x="-9"
     inkscape:window-y="623"
     inkscape:window-maximized="1"
     inkscape:current-layer="layer2"
     inkscape:document-rotation="0" />
  <path
     fill="none"
     stroke="#000000"
     stroke-linecap="round"
     stroke-linejoin="round"
     stroke-miterlimit="10"
     stroke-width="2"
     d="M 31,34 C 23.7275,32.0908 21,24.4546 21,19.6816 l 0,-4.550988"
     id="path2"
     sodipodi:nodetypes="csc" />
  <path
     fill="none"
     stroke="#000000"
     stroke-linecap="round"
     stroke-linejoin="round"
     stroke-miterlimit="10"
     stroke-width="2"
     d="M 21,56.844898 V 52.3184 C 21,47.5459 23.7275,39.9092 31,38"
     id="path4"
     sodipodi:nodetypes="csc" />
  <path
     fill="none"
     stroke="#000000"
     stroke-linecap="round"
     stroke-linejoin="round"
     stroke-miterlimit="10"
     stroke-width="2"
     d="m 31,38 c 1,-0.2715 2,-0.8945 2,-2 0,-1.1045 -1,-1.7285 -2,-2"
     id="path6" />
  <path
     fill="none"
     stroke="#000000"
     stroke-linecap="round"
     stroke-linejoin="round"
     stroke-miterlimit="10"
     stroke-width="2"
     d="m 41,34 c 7.2725,-1.9092 10,-9.5454 10,-14.3184 l 0,-4.575478"
     id="path8"
     sodipodi:nodetypes="csc" />
  <path
     fill="none"
     stroke="#000000"
     stroke-linecap="round"
     stroke-linejoin="round"
     stroke-miterlimit="10"
     stroke-width="2"
     d="M 51,56.795918 51,52.3184 C 51,47.5459 48.2725,39.9092 41,38"
     id="path10"
     sodipodi:nodetypes="csc" />
  <path
     fill="none"
     stroke="#000000"
     stroke-linecap="round"
     stroke-linejoin="round"
     stroke-miterlimit="10"
     stroke-width="2"
     d="m 41,38 c -1,-0.2715 -2,-0.8945 -2,-2 0,-1.1045 1,-1.7285 2,-2"
     id="path12" />
  <path
     fill="none"
     stroke="#000000"
     stroke-linecap="round"
     stroke-linejoin="round"
     stroke-miterlimit="10"
     stroke-width="2"
     d="m 55,12.998915 c 0,1.1001 -0.9004,2 -2,2 H 19 c -1.0996,0 -2,-0.8999 -2,-2 v -0.02041 c 0,-1.1001 0.9004,-2 2,-2 h 34 c 1.0996,0 2,0.8999 2,2 z"
     id="path14"
     sodipodi:nodetypes="sssssssss" />
  <g
     id="color"
     transform="translate(-4.3591837,-20.326531)" />
  <g
     id="hair"
     transform="translate(-4.3591837,-20.326531)" />
  <g
     id="skin"
     transform="translate(-4.3591837,-20.326531)" />
  <g
     id="skin-shadow"
     transform="translate(-4.3591837,-20.326531)" />
  <g
     id="line-5"
     transform="translate(-4.3591837,-20.326531)" />
  <path
     fill="none"
     stroke="#000000"
     stroke-linecap="round"
     stroke-linejoin="round"
     stroke-miterlimit="10"
     stroke-width="2"
     d="m 55,58.995369 c 0,1.1001 -0.9004,2 -2,2 H 19 c -1.0996,0 -2,-0.8999 -2,-2 v -0.02041 c 0,-1.1001 0.9004,-2 2,-2 h 34 c 1.0996,0 2,0.8999 2,2 z"
     id="path14-9"
     sodipodi:nodetypes="sssssssss" />
  <g
     inkscape:groupmode="layer"
     id="layer2"
     inkscape:label="template"
     style="display:none">
    <g
       id="grid">
      <path
         d="M 68,4 V 68 H 4 V 4 H 68 M 72,0 H 0 v 72 h 72 z"
         fill="#b3b3b3"
         id="path1535" />
      <path
         d="M 12.923,10.9583 H 59.0769 A 1.9231,1.9231 0 0 1 61,12.8814 v 46.1538 a 1.9231,1.9231 0 0 1 -1.9231,1.9231 H 12.9231 A 1.9231,1.9231 0 0 1 11,59.0352 V 12.8813 a 1.923,1.923 0 0 1 1.923,-1.923 z"
         fill="none"
         stroke="#00a5ff"
         stroke-miterlimit="10"
         stroke-width="0.1"
         id="path1537" />
      <rect
         x="16"
         y="4"
         width="40"
         height="64"
         rx="2.2537"
         fill="none"
         stroke="#00a5ff"
         stroke-miterlimit="10"
         stroke-width="0.1"
         id="rect1539" />
      <rect
         x="16"
         y="4"
         width="40"
         height="64"
         rx="2.2537"
         transform="rotate(90,36,36)"
         fill="none"
         stroke="#00a5ff"
         stroke-miterlimit="10"
         stroke-width="0.1"
         id="rect1541" />
      <circle
         cx="36"
         cy="36"
         r="29"
         fill="none"
         stroke="#00a5ff"
         stroke-miterlimit="10"
         stroke-width="0.1"
         id="circle1543" />
    </g>
  </g>
</svg>
