<?xml version="1.0" encoding="UTF-8" standalone="no"?>
<svg
   xmlns:dc="http://purl.org/dc/elements/1.1/"
   xmlns:cc="http://creativecommons.org/ns#"
   xmlns:rdf="http://www.w3.org/1999/02/22-rdf-syntax-ns#"
   xmlns:svg="http://www.w3.org/2000/svg"
   xmlns="http://www.w3.org/2000/svg"
   xmlns:sodipodi="http://sodipodi.sourceforge.net/DTD/sodipodi-0.dtd"
   xmlns:inkscape="http://www.inkscape.org/namespaces/inkscape"
   id="emoji"
   viewBox="0 0 72 72"
   version="1.1"
   sodipodi:docname="masked_face.svg"
   inkscape:version="1.0.2-2 (e86c870879, 2021-01-15)"
   inkscape:export-filename="E:\GIT\ameji\Ameji\symbols\ameji_basic_618x618\mask.png"
   inkscape:export-xdpi="822.66669"
   inkscape:export-ydpi="822.66669">
  <metadata
     id="metadata10">
    <rdf:RDF>
      <cc:Work
         rdf:about="">
        <dc:format>image/svg+xml</dc:format>
        <dc:type
           rdf:resource="http://purl.org/dc/dcmitype/StillImage" />
        <dc:title></dc:title>
      </cc:Work>
    </rdf:RDF>
  </metadata>
  <defs
     id="defs8">
    <marker
       style="overflow:visible"
       id="Arrow2Lstart"
       refX="0.0"
       refY="0.0"
       orient="auto"
       inkscape:stockid="Arrow2Lstart"
       inkscape:isstock="true">
      <path
         transform="scale(1.1) translate(1,0)"
         d="M 8.7185878,4.0337352 L -2.2072895,0.016013256 L 8.7185884,-4.0017078 C 6.9730900,-1.6296469 6.9831476,1.6157441 8.7185878,4.0337352 z "
         style="fill-rule:evenodd;stroke-width:0.625;stroke-linejoin:round;stroke:#000000;stroke-opacity:1;fill:#000000;fill-opacity:1"
         id="path1549" />
    </marker>
    <marker
       style="overflow:visible;"
       id="Arrow2Lend"
       refX="0.0"
       refY="0.0"
       orient="auto"
       inkscape:stockid="Arrow2Lend"
       inkscape:isstock="true">
      <path
         transform="scale(1.1) rotate(180) translate(1,0)"
         d="M 8.7185878,4.0337352 L -2.2072895,0.016013256 L 8.7185884,-4.0017078 C 6.9730900,-1.6296469 6.9831476,1.6157441 8.7185878,4.0337352 z "
         style="fill-rule:evenodd;stroke-width:0.625;stroke-linejoin:round;stroke:#000000;stroke-opacity:1;fill:#000000;fill-opacity:1"
         id="path1552" />
    </marker>
    <marker
       style="overflow:visible"
       id="Scissors"
       refX="0.0"
       refY="0.0"
       orient="auto"
       inkscape:stockid="Scissors"
       inkscape:isstock="true">
      <path
         style="fill:#000000;stroke:#000000;stroke-opacity:1;fill-opacity:1"
         d="M 9.0898857,-3.6061018 C 8.1198849,-4.7769976 6.3697607,-4.7358294 5.0623558,-4.2327734 L -3.1500488,-1.1548705 C -5.5383421,-2.4615840 -7.8983361,-2.0874077 -7.8983361,-2.7236578 C -7.8983361,-3.2209742 -7.4416699,-3.1119800 -7.5100293,-4.4068519 C -7.5756648,-5.6501286 -8.8736064,-6.5699315 -10.100428,-6.4884954 C -11.327699,-6.4958500 -12.599867,-5.5553341 -12.610769,-4.2584343 C -12.702194,-2.9520479 -11.603560,-1.7387447 -10.304005,-1.6532027 C -8.7816644,-1.4265411 -6.0857470,-2.3487593 -4.8210600,-0.082342643 C -5.7633447,1.6559151 -7.4350844,1.6607341 -8.9465707,1.5737277 C -10.201445,1.5014928 -11.708664,1.8611256 -12.307219,3.0945882 C -12.885586,4.2766744 -12.318421,5.9591904 -10.990470,6.3210002 C -9.6502788,6.8128279 -7.8098011,6.1912892 -7.4910978,4.6502760 C -7.2454393,3.4624530 -8.0864637,2.9043186 -7.7636052,2.4731223 C -7.5199917,2.1477623 -5.9728246,2.3362771 -3.2164999,1.0982979 L 5.6763468,4.2330688 C 6.8000164,4.5467672 8.1730685,4.5362646 9.1684433,3.4313614 L -0.051640930,-0.053722219 L 9.0898857,-3.6061018 z M -9.2179159,-5.5066058 C -7.9233569,-4.7838060 -8.0290767,-2.8230356 -9.3743431,-2.4433169 C -10.590861,-2.0196559 -12.145370,-3.2022863 -11.757521,-4.5207817 C -11.530373,-5.6026336 -10.104134,-6.0014137 -9.2179159,-5.5066058 z M -9.1616516,2.5107591 C -7.8108215,3.0096239 -8.0402087,5.2951947 -9.4138723,5.6023681 C -10.324932,5.9187072 -11.627422,5.4635705 -11.719569,4.3902287 C -11.897178,3.0851737 -10.363484,1.9060805 -9.1616516,2.5107591 z "
         id="schere" />
    </marker>
    <marker
       style="overflow:visible;"
       id="Arrow1Lend"
       refX="0.0"
       refY="0.0"
       orient="auto"
       inkscape:stockid="Arrow1Lend"
       inkscape:isstock="true">
      <path
         transform="scale(0.8) rotate(180) translate(12.5,0)"
         style="fill-rule:evenodd;stroke:#000000;stroke-width:1pt;stroke-opacity:1;fill:#000000;fill-opacity:1"
         d="M 0.0,0.0 L 5.0,-5.0 L -12.5,0.0 L 5.0,5.0 L 0.0,0.0 z "
         id="path1534" />
    </marker>
  </defs>
  <sodipodi:namedview
     pagecolor="#ffffff"
     bordercolor="#666666"
     borderopacity="1"
     objecttolerance="10"
     gridtolerance="10"
     guidetolerance="10"
     inkscape:pageopacity="0"
     inkscape:pageshadow="2"
     inkscape:window-width="2560"
     inkscape:window-height="1361"
     id="namedview6"
     showgrid="false"
     inkscape:zoom="5.6568543"
     inkscape:cx="-8.6201889"
     inkscape:cy="-0.56384046"
     inkscape:window-x="-9"
     inkscape:window-y="623"
     inkscape:window-maximized="1"
     inkscape:current-layer="layer5"
     inkscape:document-rotation="0"
     inkscape:object-paths="true"
     inkscape:snap-global="false"
     inkscape:snap-midpoints="false" />
  <g
     inkscape:groupmode="layer"
     id="layer1"
     inkscape:label="template"
     style="display:none">
    <g
       id="grid"
       style="display:inline">
      <path
         d="M 68,4 V 68 H 4 V 4 H 68 M 72,0 H 0 v 72 h 72 z"
         fill="#b3b3b3"
         id="path1535" />
      <path
         d="M 12.923,10.9583 H 59.0769 A 1.9231,1.9231 0 0 1 61,12.8814 v 46.1538 a 1.9231,1.9231 0 0 1 -1.9231,1.9231 H 12.9231 A 1.9231,1.9231 0 0 1 11,59.0352 V 12.8813 a 1.923,1.923 0 0 1 1.923,-1.923 z"
         fill="none"
         stroke="#00a5ff"
         stroke-miterlimit="10"
         stroke-width="0.1"
         id="path1537" />
      <rect
         x="16"
         y="4"
         width="40"
         height="64"
         rx="2.2537"
         fill="none"
         stroke="#00a5ff"
         stroke-miterlimit="10"
         stroke-width="0.1"
         id="rect1539" />
      <rect
         x="16"
         y="4"
         width="40"
         height="64"
         rx="2.2537"
         transform="rotate(90,36,36)"
         fill="none"
         stroke="#00a5ff"
         stroke-miterlimit="10"
         stroke-width="0.1"
         id="rect1541" />
      <circle
         cx="36"
         cy="36"
         r="29"
         fill="none"
         stroke="#00a5ff"
         stroke-miterlimit="10"
         stroke-width="0.1"
         id="circle1543" />
    </g>
  </g>
  <g
     inkscape:groupmode="layer"
     id="layer5"
     inkscape:label="symbol"
     style="display:inline">
    <path
       d="m 25.84668,36.356977 c 7.221679,0 9.417968,2.070801 9.424804,2.077637 0.189453,0.200684 0.453125,0.314453 0.728516,0.314453 0.275391,0 0.539062,-0.113769 0.728516,-0.314453 0.01953,-0.021 2.158203,-2.077637 9.424804,-2.077637 4.45282,0 7.600037,-2.548156 9.817383,-5.862304 v 26.157714 c 0,0.552247 0.447266,1 1,1 0.552735,0 1,-0.447753 1,-1 V 26.813642 c 2.343872,-5.299926 2.977295,-10.917297 3.023438,-11.360473 0.05078,-0.483887 -0.253907,-0.934082 -0.72168,-1.066406 -0.474609,-0.135743 -0.963867,0.09131 -1.173828,0.529297 -2.269531,4.727539 -6.250977,4.697753 -10.866211,4.655273 -4.375977,-0.03955 -9.463887,-1.228149 -12.409199,3.682982 -2.945313,-4.909668 -7.66795,-3.722045 -12.055645,-3.682982 -4.610351,0.04101 -8.597656,0.07129 -10.866211,-4.655274 -0.210937,-0.4375 -0.702148,-0.663086 -1.173828,-0.529296 -0.467773,0.132324 -0.772461,0.582519 -0.72168,1.066406 0.08887,0.853515 2.339844,20.903808 14.840821,20.903808 z M 23.785156,21.570845 c 4.852539,-0.04053 8.962393,-1.534578 11.199698,4.003017 0.152344,0.37793 0.519531,0.625489 0.926758,0.625489 0.407227,0 0.774414,-0.247559 0.926758,-0.625489 2.238281,-5.537597 6.526864,-4.040615 11.376474,-4.003017 3.440429,0.03174 7.208984,0.06103 10.078125,-2.328125 -1.272461,5.604003 -4.549805,15.114257 -12.139649,15.114257 -5.980468,0 -8.919922,1.324707 -10.15332,2.129395 -1.233398,-0.804688 -4.172852,-2.129395 -10.15332,-2.129395 -7.589844,0 -10.867188,-9.509765 -12.139649,-15.114257 2.869141,2.38916 6.645508,2.358886 10.078125,2.328125 z"
       id="path4"
       sodipodi:nodetypes="scscscsssccccccccccsccscccscscc" />
    <path
       d="m 40.191406,30.609907 c 0.101563,0.05322 1.962891,1.000488 4.164063,1.000488 0.703125,0 1.441406,-0.09717 2.166992,-0.350097 2.999023,-1.046387 4.492187,-4.308594 4.553711,-4.447266 0.217773,-0.483887 0.01855,-1.053223 -0.452149,-1.297363 -0.134765,-0.06934 -3.333984,-1.69336 -6.332031,-0.649903 -3,1.046387 -4.491211,4.309082 -4.552734,4.447266 -0.217774,0.483887 -0.01855,1.053223 0.452148,1.296875 z m 4.758789,-3.855469 c 1.344727,-0.469238 2.830078,-0.157715 3.778321,0.150391 -0.549805,0.831054 -1.521485,1.998535 -2.864258,2.466797 -1.34375,0.469726 -2.828125,0.159179 -3.774414,-0.149414 0.551758,-0.832032 1.52539,-2.001953 2.860351,-2.467774 z"
       id="path6" />
    <path
       d="m 25.477539,31.260298 c 0.725586,0.253418 1.463867,0.350097 2.166992,0.350097 2.200196,0 4.0625,-0.947265 4.164063,-1.000488 0.470703,-0.243652 0.669922,-0.812988 0.452148,-1.296875 -0.06152,-0.138184 -1.552734,-3.400879 -4.552734,-4.447266 -2.996094,-1.046386 -6.196289,0.580567 -6.332031,0.649903 -0.470704,0.24414 -0.669922,0.813476 -0.452149,1.297363 0.06152,0.138672 1.554688,3.400879 4.553711,4.447266 z m 1.572266,-4.50586 c 1.341797,0.468262 2.3125,1.634277 2.862304,2.464844 -0.951172,0.307129 -2.442382,0.616699 -3.776367,0.152344 -1.341797,-0.467774 -2.3125,-1.633301 -2.862305,-2.464844 0.950196,-0.308594 2.441407,-0.618652 3.776368,-0.152344 z"
       id="path8" />
  </g>
  <g
     inkscape:groupmode="layer"
     id="layer6"
     inkscape:label="original"
     style="display:none">
    <path
       d="m -40.739384,47.047416 a 4.3839103,4.3839103 0 0 1 -3.426988,-4.30018 4.4317564,4.4317564 0 0 1 3.181775,-4.234389 0.90907826,0.90907826 0 1 0 -0.502385,-1.746383 6.1721629,6.1721629 0 0 0 -2.350446,1.309789 c -0.113634,-0.119616 -0.227269,-0.239234 -0.328944,-0.358846 a 9.0489172,9.0489172 0 0 1 -2.093271,-7.260664 0.90907826,0.90907826 0 1 0 -1.794234,-0.269135 10.861093,10.861093 0 0 0 2.517908,8.71997 c 0.167462,0.19737 0.346885,0.388749 0.526308,0.598085 a 6.2259899,6.2259899 0 0 0 0.221289,6.913781 4.0250635,4.0250635 0 0 1 -2.290637,1.979637 0.90907826,0.90907826 0 0 0 0.203346,1.794231 0.91505903,0.91505903 0 0 0 0.203346,0 5.5082966,5.5082966 0 0 0 3.187755,-2.392315 6.2439323,6.2439323 0 0 0 2.392312,1.094486 0.92103981,0.92103981 0 0 0 0.203346,0 0.90907826,0.90907826 0 0 0 0.203347,-1.79423"
       id="path6-7"
       style="display:inline;stroke-width:1" />
    <path
       d="m -55.39827,50.211257 a 0.97486682,0.97486682 0 0 1 -0.21531,0 5.6099697,5.6099697 0 0 1 -3.187755,-2.392314 6.2558938,6.2558938 0 0 1 -2.380349,1.022714 0.97486682,0.97486682 0 0 1 -0.215307,0 0.95094371,0.95094371 0 0 1 -0.209328,-1.877967 4.3420448,4.3420448 0 0 0 3.415025,-4.20449 4.3839103,4.3839103 0 0 0 -3.151871,-4.186545 0.95214662,0.95214662 0 1 1 0.526309,-1.830115 6.1661821,6.1661821 0 0 1 2.356427,1.291851 l 0.299037,-0.328945 a 9.0070517,9.0070517 0 0 0 2.087292,-7.224781 0.95094371,0.95094371 0 0 1 0.801426,-1.082521 h 0.143537 a 0.95692448,0.95692448 0 0 1 0.938983,0.807406 10.902959,10.902959 0 0 1 -2.523889,8.749872 c -0.161481,0.185408 -0.328942,0.370815 -0.508366,0.550241 a 6.2738361,6.2738361 0 0 1 -0.221289,6.907798 3.9054479,3.9054479 0 0 0 2.242793,1.919829 0.95094371,0.95094371 0 0 1 -0.215309,1.877967"
       id="path8-9"
       style="display:inline;stroke-width:1" />
    <path
       d="m -46.941451,66.185909 c -2.003561,0 -3.37914,-0.598074 -4.186545,-1.794231 v 0 c -0.831328,1.196157 -2.206907,1.794231 -4.186545,1.794231 -7.996299,0 -13.157712,-6.178146 -13.157712,-15.729448 a 10.597939,10.597939 0 0 1 1.477254,-5.508289 25.035537,25.035537 0 0 1 6.746316,-16.201931 6.4173747,6.4173747 0 0 1 7.176934,-4.348027 h 0.07178 a 3.5107166,3.5107166 0 0 1 1.836099,1.058598 3.5107166,3.5107166 0 0 1 1.836099,-1.058598 h 0.07177 a 6.4173747,6.4173747 0 0 1 7.212818,4.348027 25.029557,25.029557 0 0 1 6.788183,16.213884 10.597939,10.597939 0 0 1 1.477252,5.508301 c 0,9.569246 -5.167391,15.729447 -13.157711,15.729447 m -3.265512,-6.202063 a 0.87319358,0.87319358 0 0 1 0,0.119616 c 0,0.179415 0,0.352858 0,0.526301 0.07775,2.804992 0.84329,3.660244 3.259525,3.660244 6.943683,0 11.255824,-5.298976 11.255824,-13.827563 0,-3.409047 -1.746388,-6.255901 -4.563334,-7.422148 a 0.95186594,0.95186594 0 1 1 0.729657,-1.75835 8.971167,8.971167 0 0 1 2.129158,1.249984 23.13963,23.13963 0 0 0 -4.473622,-10.621861 6.3157015,6.3157015 0 0 1 -0.179424,0.705732 0.95094371,0.95094371 0 1 1 -1.794233,-0.562193 4.5154874,4.5154874 0 0 0 -4.30616,-5.849201 4.5633336,4.5633336 0 0 0 -0.747597,0.05981 1.6566755,1.6566755 0 0 0 -1.291849,1.584905 v 0 c 0,0 0,0 0,0 v 12.266579 a 5.095623,5.095623 0 0 1 1.321752,-0.855254 0.94496292,0.94496292 0 0 1 0.388751,-0.08379 0.95094371,0.95094371 0 0 1 0.388751,1.79424 c -1.84208,0.831326 -2.117196,2.888718 -2.117196,4.043 0,0 0,0.03585 0,0.03585 v 4.00712 c 0,0 0,0 0,0.03585 a 5.3827002,5.3827002 0 0 0 9.892207,2.888718 0.9538974,0.9538974 0 0 1 1.602848,1.034676 7.2786068,7.2786068 0 0 1 -4.820505,3.241575 c 0.10167,1.52511 -0.305022,3.732016 -1.794235,4.98797 a 0.95094371,0.95094371 0 1 1 -1.196156,-1.465289 c 1.034674,-0.861234 1.196156,-2.541829 1.136348,-3.432962 a 7.2187991,7.2187991 0 0 1 -4.784622,-2.350318 z M -62.425685,41.210185 a 0.95094371,0.95094371 0 0 1 0.364828,1.830111 c -2.810967,1.196158 -4.563334,4.013102 -4.563334,7.422147 0,8.528588 4.312141,13.827565 11.255823,13.827565 2.392312,0 3.181775,-0.855254 3.259524,-3.648281 0,-0.173443 0,-0.352868 0,-0.532282 a 0.97486682,0.97486682 0 0 1 0,-0.107653 v -5.980787 a 7.2247799,7.2247799 0 0 1 -4.784622,2.344471 c -0.06579,0.885151 0.10167,2.565746 1.136348,3.432963 a 0.95094371,0.95094371 0 0 1 -1.196155,1.465289 c -1.507156,-1.255965 -1.91983,-3.462872 -1.794234,-4.987971 a 7.2786068,7.2786068 0 0 1 -4.826488,-3.247555 0.95094371,0.95094371 0 1 1 1.602849,-1.022715 5.3827002,5.3827002 0 0 0 9.892207,-2.882734 v -4.096838 c 0,-1.154283 -0.275116,-3.211674 -2.117196,-4.043 a 0.95094371,0.95094371 0 0 1 -0.478463,-1.255966 0.95094371,0.95094371 0 0 1 0.867214,-0.562192 0.93898214,0.93898214 0 0 1 0.38875,0.08368 5.095623,5.095623 0 0 1 1.339695,0.87918 v -12.24859 h 0.04186 -0.04186 a 1.6566755,1.6566755 0 0 0 -1.327733,-1.602848 4.5693143,4.5693143 0 0 0 -0.753579,-0.05981 4.5154874,4.5154874 0 0 0 -4.306159,5.849201 0.95094371,0.95094371 0 1 1 -1.794234,0.562193 6.3336439,6.3336439 0 0 1 -0.173443,-0.705732 23.13963,23.13963 0 0 0 -4.473622,10.61588 8.971167,8.971167 0 0 1 2.129157,-1.249984 0.94496292,0.94496292 0 0 1 0.364828,-0.07181"
       id="path4-3"
       style="display:inline;stroke-width:1" />
  </g>
</svg>
