<?xml version="1.0" encoding="UTF-8" standalone="no"?>
<svg
   xmlns:dc="http://purl.org/dc/elements/1.1/"
   xmlns:cc="http://creativecommons.org/ns#"
   xmlns:rdf="http://www.w3.org/1999/02/22-rdf-syntax-ns#"
   xmlns:svg="http://www.w3.org/2000/svg"
   xmlns="http://www.w3.org/2000/svg"
   xmlns:sodipodi="http://sodipodi.sourceforge.net/DTD/sodipodi-0.dtd"
   xmlns:inkscape="http://www.inkscape.org/namespaces/inkscape"
   id="emoji"
   viewBox="0 0 72 72"
   version="1.1"
   sodipodi:docname="moon-encircles-.earth.svg"
   inkscape:version="1.0.2-2 (e86c870879, 2021-01-15)"
   inkscape:export-filename="E:\GIT\ameji\Ameji\symbols\ameji_basic_618x618\earth-encircles-sun.png"
   inkscape:export-xdpi="824"
   inkscape:export-ydpi="824">
  <metadata
     id="metadata26">
    <rdf:RDF>
      <cc:Work
         rdf:about="">
        <dc:format>image/svg+xml</dc:format>
        <dc:type
           rdf:resource="http://purl.org/dc/dcmitype/StillImage" />
        <dc:title></dc:title>
      </cc:Work>
    </rdf:RDF>
  </metadata>
  <defs
     id="defs24" />
  <sodipodi:namedview
     pagecolor="#ffffff"
     bordercolor="#666666"
     borderopacity="1"
     objecttolerance="10"
     gridtolerance="10"
     guidetolerance="10"
     inkscape:pageopacity="0"
     inkscape:pageshadow="2"
     inkscape:window-width="2560"
     inkscape:window-height="1361"
     id="namedview22"
     showgrid="false"
     inkscape:zoom="5.1041667"
     inkscape:cx="-1.3136095"
     inkscape:cy="10.609892"
     inkscape:window-x="-9"
     inkscape:window-y="623"
     inkscape:window-maximized="1"
     inkscape:current-layer="emoji"
     inkscape:document-rotation="0"
     inkscape:object-paths="true"
     inkscape:snap-intersection-paths="true" />
  <g
     id="color"
     transform="translate(-4.3591837,-20.326531)" />
  <g
     id="hair"
     transform="translate(-4.3591837,-20.326531)" />
  <g
     id="skin"
     transform="translate(-4.3591837,-20.326531)" />
  <g
     id="skin-shadow"
     transform="translate(-4.3591837,-20.326531)" />
  <g
     id="line-5"
     transform="translate(-4.3591837,-20.326531)" />
  <g
     inkscape:groupmode="layer"
     id="layer2"
     inkscape:label="template"
     style="display:none">
    <g
       id="grid">
      <path
         d="M 68,4 V 68 H 4 V 4 H 68 M 72,0 H 0 v 72 h 72 z"
         fill="#b3b3b3"
         id="path1535" />
      <path
         d="M 12.923,10.9583 H 59.0769 A 1.9231,1.9231 0 0 1 61,12.8814 v 46.1538 a 1.9231,1.9231 0 0 1 -1.9231,1.9231 H 12.9231 A 1.9231,1.9231 0 0 1 11,59.0352 V 12.8813 a 1.923,1.923 0 0 1 1.923,-1.923 z"
         fill="none"
         stroke="#00a5ff"
         stroke-miterlimit="10"
         stroke-width="0.1"
         id="path1537" />
      <rect
         x="16"
         y="4"
         width="40"
         height="64"
         rx="2.2537"
         fill="none"
         stroke="#00a5ff"
         stroke-miterlimit="10"
         stroke-width="0.1"
         id="rect1539" />
      <rect
         x="16"
         y="4"
         width="40"
         height="64"
         rx="2.2537"
         transform="rotate(90,36,36)"
         fill="none"
         stroke="#00a5ff"
         stroke-miterlimit="10"
         stroke-width="0.1"
         id="rect1541" />
      <circle
         cx="36"
         cy="36"
         r="29"
         fill="none"
         stroke="#00a5ff"
         stroke-miterlimit="10"
         stroke-width="0.1"
         id="circle1543" />
    </g>
  </g>
  <path
     style="fill:none;stroke:#000000;stroke-width:2;stroke-miterlimit:4;stroke-dasharray:none;stroke-opacity:1"
     d="M 13.799324,33.018395 C 6.2091656,33.778331 3.9999998,34.659039 4,35.999996 c 4e-7,2.295326 13.141508,4.319954 30.81462,4.319954 l 11.030278,-0.05872 6.808163,-0.391842 M 58.197086,32.99178 C 65.964937,33.750065 68,34.640762 68,36 c 0,0.86613 -2.627857,2.021616 -3.987144,2.360609 -1.359288,0.338992 -3.17303,0.609469 -3.17303,0.609469"
     id="path2200"
     sodipodi:nodetypes="csccscczc" />
  <path
     style="fill:none;stroke:#000000;stroke-width:2;stroke-linecap:butt;stroke-linejoin:miter;stroke-miterlimit:4;stroke-dasharray:none;stroke-opacity:1"
     d="m 45.322309,36.098841 9.078873,3.364441 -7.710725,5.69496"
     id="path2536"
     sodipodi:nodetypes="ccc" />
  <g
     id="g851"
     transform="matrix(0.8,0,0,0.8,7.2,7.2)"
     style="stroke-width:2.5;stroke-miterlimit:4;stroke-dasharray:none">
    <circle
       cx="36"
       cy="36"
       r="28"
       fill="none"
       stroke="#000000"
       stroke-linecap="round"
       stroke-linejoin="round"
       stroke-miterlimit="10"
       stroke-width="2"
       id="circle2"
       style="stroke-width:2.5;stroke-miterlimit:4;stroke-dasharray:none" />
    <path
       fill="none"
       stroke="#000000"
       stroke-linecap="round"
       stroke-linejoin="round"
       stroke-miterlimit="10"
       stroke-width="2"
       d="m 26.602086,26.257725 c -0.0568,0.7946 -2.2706,3.5222 -2.8378,3.9161 -1.1826,0.8214 -1.6443,0.4449 -2.6746,1.2557 -0.653,0.5139 -1.469,1.0634 -2.4689,1.2557 -0.5534,0.1064 -0.3086,-0.4165 -1.5537,0.3831 -0.6936,0.4454 -0.0778,0.9247 0,1.3621 0.1046,0.588 0.1828,0.2336 1.3621,1.3621 0.6157,0.5893 0.6707,1.1144 1.3621,1.3621 0.4322,0.1549 0.7463,0.07 1.3621,0 1.2911,-0.1467 0.717,1.1259 1.3621,1.3621 1.4839,0.5433 2.0319,0.3161 3.3988,0.5445 0.552,0.0922 1.3122,-0.1799 2,1 0.2963,0.5083 0,2 0.05,2.5421 0.0844,0.9159 -0.5065,1.7288 -1.3621,2.7243 -0.6921,0.8052 -0.8206,0.6811 -1.3621,1.3621 -0.7236,0.9099 -0.5299,1.1763 -1.3621,2.7243 -0.8424,1.5667 -1.3055,1.7862 -1.3621,2.7243 -0.0237,0.3923 -0.0011,1.32 0,1.3621 0.0238,0.9465 0.0765,1.0716 0,1.3621 -0.1781,0.677 -1.5528,1.2699 -2.0716,1.1919 -1.0211,-0.1535 -1.0026,-3.6818 -1.05,-4.2283 -0.0958,-1.1035 0.3564,-1.7204 0.3973,-2.4121 0.1412,-2.393 0.5408,-3.1351 0,-4.0864 -0.3451,-0.607 -0.5273,-0.3396 -1.3621,-1.3621 -0.4715,-0.5774 -1.1856,-1.4733 -1.3621,-2.7243 -0.1113,-0.788 0.1212,-0.7928 0,-1.3621 -0.2251,-1.0562 -1.1013,-1.3971 -2.7243,-2.7243 -1.0013,-0.8188 -1.8894,-1.5449 -2.7243,-2.7243 -0.4339,-0.6128 -1.0478,-1.48 -1.3621,-2.7243 -0.4138004,-1.6378 0.2025,-1.9051 0,-4.0864 m 8.687086,-13.6212 c 1.3486,-0.2391 1.018614,0.2732 2.210014,0 1.2802,-0.2937 1.2433,-0.9257 2.7243,-1.3621 0.6485,-0.1911 1.791,-0.528 2.7243,0 0.8401,0.4752 0.7287,1.2093 1.3621,1.3621 0.884,0.2134 1.3172,-1.1646 2.7243,-1.3621 1.0743,-0.1508 2.3522,0.4375 2.7243,1.3621 0.1847,0.4589 0.0982,0.8817 0,1.3621 -0.2966,1.4511 -1.0836,1.5389 -1.3621,2.7243 -0.3028,1.288 0.3458,1.6004 0,2.7243 -0.227,0.7378 -0.6811,0.5108 -1.4047,1.1067 -0.3311,0.2727 -0.4115,0.7094 -1.3196,1.6175 -0.454,0.454 -0.9255,0.8914 -1.3621,1.3621 -0.9957,1.0728 -1.1544,1.1541 -1.3625,1.3621"
       id="path4"
       sodipodi:nodetypes="cccccccccccsccccccccccccccsccccccccccccscscc"
       style="stroke-width:2.5;stroke-miterlimit:4;stroke-dasharray:none" />
    <path
       fill="none"
       stroke="#000000"
       stroke-linecap="round"
       stroke-linejoin="round"
       stroke-miterlimit="10"
       stroke-width="2"
       d="m 44.590305,9.9613955 c -1.7096,2.5218005 -3.711887,5.1180605 -3.523887,6.0087605 0.1989,0.9419 0.0427,1.7474 1,2 1.1873,0.3132 1.3661,-0.2722 2,-1 1.3282,-1.525 2.3581,-3.7828 3,-4 0.5713,-0.1933 2.0656,1.3495 2,3 -0.0463,1.1654 -0.852,1.922 -2,3 -0.7417,0.6965 -2.875,1.5 -6,2 -1.719,0.275 -1.4083,0.8524 -2.0625,1.5938 -0.8427,0.955 -0.4615,2.1691 -1.2812,3.3125 -1.0252,1.43 -3.4727,1.7917 -3.6564,2.7188 -0.1567,0.7903 1.9605,1.3594 3.0001,1.3749 0.8505,0.0127 1.0644,-0.7721 3,-2 0.7408,-0.47 1.75,-1.2812 2.6875,-1.25 0.5041,0.0168 1.8289,0.2852 2.3438,0.7188 0.5938,0.5 -0.1562,1.8438 -0.4062,3.1562 -0.25,1.3124 -2.8976,1.8646 -3.8542,2.0208 -1.5737,0.257 -4.1439,-0.5228 -5.6042,0.9375 -1,1 -1.1155,1.766 -1.1667,3.4167 -0.0129,0.4172 0.937,3.0323 2,4 1.1442,1.0416 2.2939,-0.8356 4,0 1.7456,0.8549 2.493,2.7288 3,4 0.5078,1.2731 0.1756,1.1679 1,5 0.4146,1.9271 0.3191,1.1194 1,4 0.5632,2.3826 0.5889,2.7678 1,3 1.1732,0.6628 3.8997,-0.8162 5,-3 0.6895,-1.3683 1.430338,-0.710474 2.219238,-3.747974 m 5.780762,-14.252026 c 0.2579,-1.2752 -2.2492,-2.316 -2,-3 0.2822,-0.7746 4.014414,-6.355141 5.944814,-4.345341"
       id="path4-4"
       sodipodi:nodetypes="cccccccccccccccscsccccccccccsc"
       style="stroke-width:2.5;stroke-miterlimit:4;stroke-dasharray:none" />
  </g>
</svg>
