<?xml version="1.0" encoding="UTF-8" standalone="no"?>
<svg
   xmlns:dc="http://purl.org/dc/elements/1.1/"
   xmlns:cc="http://creativecommons.org/ns#"
   xmlns:rdf="http://www.w3.org/1999/02/22-rdf-syntax-ns#"
   xmlns:svg="http://www.w3.org/2000/svg"
   xmlns="http://www.w3.org/2000/svg"
   xmlns:sodipodi="http://sodipodi.sourceforge.net/DTD/sodipodi-0.dtd"
   xmlns:inkscape="http://www.inkscape.org/namespaces/inkscape"
   id="emoji"
   viewBox="0 0 36 72"
   version="1.1"
   sodipodi:docname="exclamation-mark-hollow-top.svg"
   width="36"
   height="72"
   inkscape:version="1.0.2-2 (e86c870879, 2021-01-15)"
   inkscape:export-filename="E:\GIT\ameji\Ameji\symbols\ameji_punctuation_309x618\exclamation-mark-hollow-top.png"
   inkscape:export-xdpi="824"
   inkscape:export-ydpi="824">
  <metadata
     id="metadata23">
    <rdf:RDF>
      <cc:Work
         rdf:about="">
        <dc:format>image/svg+xml</dc:format>
        <dc:type
           rdf:resource="http://purl.org/dc/dcmitype/StillImage" />
        <dc:title />
      </cc:Work>
    </rdf:RDF>
  </metadata>
  <defs
     id="defs21">
    <inkscape:path-effect
       effect="powerstroke"
       id="path-effect2769"
       is_visible="true"
       lpeversion="1"
       offset_points="0.025984576,0.45321419 | 2.2631289,1.0059361 | 4.754626,0.73201107"
       sort_points="true"
       interpolator_type="CentripetalCatmullRom"
       interpolator_beta="0.2"
       start_linecap_type="zerowidth"
       linejoin_type="round"
       miter_limit="4"
       scale_width="1"
       end_linecap_type="zerowidth" />
    <inkscape:path-effect
       effect="powerstroke"
       id="path-effect2763"
       is_visible="true"
       lpeversion="1"
       offset_points="0.021057384,2.3749997 | 0.24060257,6.9374994 | 0.82383169,2.8749999"
       sort_points="true"
       interpolator_type="CentripetalCatmullRom"
       interpolator_beta="0.2"
       start_linecap_type="zerowidth"
       linejoin_type="round"
       miter_limit="4"
       scale_width="1"
       end_linecap_type="zerowidth" />
    <marker
       style="overflow:visible"
       id="TriangleOutL"
       refX="0.0"
       refY="0.0"
       orient="auto"
       inkscape:stockid="TriangleOutL"
       inkscape:isstock="true">
      <path
         transform="scale(0.8)"
         style="fill-rule:evenodd;stroke:#000000;stroke-width:1pt;stroke-opacity:1;fill:#000000;fill-opacity:1"
         d="M 5.77,0.0 L -2.88,5.0 L -2.88,-5.0 L 5.77,0.0 z "
         id="path4172" />
    </marker>
    <marker
       style="overflow:visible"
       id="TriangleInL"
       refX="0.0"
       refY="0.0"
       orient="auto"
       inkscape:stockid="TriangleInL"
       inkscape:isstock="true">
      <path
         transform="scale(-0.8)"
         style="fill-rule:evenodd;stroke:#000000;stroke-width:1pt;stroke-opacity:1;fill:#000000;fill-opacity:1"
         d="M 5.77,0.0 L -2.88,5.0 L -2.88,-5.0 L 5.77,0.0 z "
         id="path4163" />
    </marker>
    <marker
       style="overflow:visible"
       id="Arrow2Lstart"
       refX="0.0"
       refY="0.0"
       orient="auto"
       inkscape:stockid="Arrow2Lstart"
       inkscape:isstock="true">
      <path
         transform="scale(1.1) translate(1,0)"
         d="M 8.7185878,4.0337352 L -2.2072895,0.016013256 L 8.7185884,-4.0017078 C 6.9730900,-1.6296469 6.9831476,1.6157441 8.7185878,4.0337352 z "
         style="fill-rule:evenodd;stroke-width:0.625;stroke-linejoin:round;stroke:#000000;stroke-opacity:1;fill:#000000;fill-opacity:1"
         id="path4048" />
    </marker>
  </defs>
  <sodipodi:namedview
     pagecolor="#ffffff"
     bordercolor="#666666"
     borderopacity="1"
     objecttolerance="10"
     gridtolerance="10"
     guidetolerance="10"
     inkscape:pageopacity="0"
     inkscape:pageshadow="2"
     inkscape:window-width="2560"
     inkscape:window-height="1361"
     id="namedview19"
     showgrid="false"
     inkscape:zoom="16.000001"
     inkscape:cx="23.619209"
     inkscape:cy="34.970989"
     inkscape:window-x="-9"
     inkscape:window-y="623"
     inkscape:window-maximized="1"
     inkscape:current-layer="emoji"
     units="in"
     inkscape:snap-bbox="false"
     inkscape:snap-bbox-edge-midpoints="false"
     inkscape:object-paths="true"
     inkscape:document-rotation="0"
     inkscape:snap-global="true"
     inkscape:snap-nodes="false"
     inkscape:object-nodes="true"
     inkscape:snap-midpoints="true" />
  <g
     id="color" />
  <g
     id="hair" />
  <g
     id="skin" />
  <g
     id="skin-shadow" />
  <g
     id="line" />
  <g
     id="g26"
     transform="translate(45.374997,-0.18749999)">
    <path
       d="M 32,4 V 68 H 4 V 4 H 32 M 36,0 H 0 v 72 h 36 z"
       fill="#b3b3b3"
       id="path2"
       sodipodi:nodetypes="cccccccccc" />
    <rect
       x="15.985359"
       y="-32"
       width="40.029282"
       height="27.999996"
       rx="2.2553501"
       transform="rotate(90)"
       fill="none"
       stroke="#00a5ff"
       stroke-miterlimit="10"
       stroke-width="0.0707137"
       id="rect8" />
    <ellipse
       fill="none"
       stroke="#00a5ff"
       stroke-miterlimit="10"
       stroke-width="0.0707033"
       id="circle10"
       ry="29.014648"
       rx="14"
       cy="36"
       cx="18" />
    <rect
       x="4"
       y="-27.989647"
       width="64"
       height="19.979296"
       rx="2.2528586"
       transform="rotate(90)"
       fill="none"
       stroke="#00a5ff"
       stroke-miterlimit="10"
       stroke-width="0.0707042"
       id="rect8-9"
       style="stroke-width:0.071;stroke-miterlimit:10;stroke-dasharray:none" />
    <rect
       x="10.9583"
       y="-27.989487"
       width="50.006344"
       height="19.978971"
       rx="2.2526038"
       transform="rotate(90)"
       fill="none"
       stroke="#00a5ff"
       stroke-miterlimit="10"
       stroke-width="0.0706707"
       id="rect8-9-4"
       style="stroke-width:0.071029;stroke-miterlimit:10;stroke-dasharray:none" />
  </g>
  <g
     id="color-6"
     transform="translate(-12)" />
  <g
     id="hair-9"
     transform="translate(-12)" />
  <g
     id="skin-4"
     transform="translate(-12)" />
  <g
     id="skin-shadow-2"
     transform="translate(-12)" />
  <g
     id="line-3"
     transform="translate(-12)" />
  <circle
     style="stroke:#000000;stroke-width:0"
     id="path28-2"
     cx="18"
     cy="59.814335"
     r="2.0025685" />
  <path
     style="fill:#000000;fill-rule:nonzero;stroke:none;stroke-width:1px;stroke-linecap:butt;stroke-linejoin:miter;stroke-opacity:1"
     d="m 18.015448,52.479107 c 0.07554,-0.08214 0.317039,-0.125507 0.453214,-0.492815 0.543321,-1.465508 0.649758,-9.287169 0.638511,-18.472856 a 1.2258662,0.43296655 56.176015 0 0 -0.13451,-0.524979 c 0.01551,0.03609 -0.853381,-1.503352 -1.744316,-3.920539 -0.448938,-1.218012 -0.887975,-2.619292 -1.220289,-4.119552 -0.347834,-1.570329 -0.564027,-3.182628 -0.580228,-4.772683 -0.01813,-1.79686 0.03423,-3.408719 0.149679,-4.812288 0.0064,-0.07829 0.01307,-0.155844 0.01988,-0.232661 0.117854,-1.328564 0.301316,-2.596624 0.570422,-3.681124 0.133622,-0.538501 0.285719,-1.020813 0.45592,-1.43574 0.16615,-0.4050507 0.342172,-0.7276883 0.521215,-0.9705173 0.175361,-0.2378362 0.336669,-0.3762826 0.471982,-0.4519461 0.06565,-0.036708 0.127115,-0.059858 0.186041,-0.073706 0.05822,-0.013683 0.122211,-0.020225 0.195192,-0.017056 0.07687,0.00323 0.143084,0.016145 0.202327,0.035572 0.05906,0.019367 0.118842,0.047733 0.180731,0.087927 0.124693,0.080983 0.272533,0.2199065 0.432046,0.4530636 0.160311,0.2343247 0.319251,0.5447505 0.46995,0.9407065 0.150973,0.396677 0.286706,0.860717 0.40659,1.388099 0.245377,1.079444 0.412461,2.370864 0.521069,3.789099 0.113544,1.482698 0.161525,3.081635 0.172806,4.677203 0.01213,1.655779 -0.189451,3.296213 -0.454095,4.747003 -0.302801,1.659969 -0.7069,3.169354 -1.027363,4.28291 -0.457604,1.590094 -0.788566,2.584289 -0.930982,3.17985 -0.272571,1.139851 0.05305,1.375366 0.169205,1.431358 0.09403,0.04533 0.543423,0.176312 1.182183,-0.868232 0.310992,-0.508554 0.826407,-1.542919 1.407062,-3.148841 0.414829,-1.147294 0.900943,-2.700148 1.272372,-4.469653 0.321848,-1.533303 0.575626,-3.316083 0.582642,-5.15759 0.0066,-1.629284 -0.03217,-3.28611 -0.147401,-4.841655 C 22.327655,13.547297 22.147068,12.134077 21.861153,10.906034 21.720777,10.3031 21.552659,9.7344176 21.350051,9.2177401 21.149291,8.7057773 20.908365,8.2286319 20.614812,7.8150278 20.320973,7.40102 19.962282,7.0338242 19.523095,6.7679522 19.302384,6.63434 19.065266,6.5288128 18.812763,6.456506 18.559287,6.3839209 18.298316,6.3471084 18.03273,6.3448881 c -0.270984,-0.0023 -0.535753,0.032506 -0.79132,0.1040683 -0.256902,0.071936 -0.496025,0.1786299 -0.716628,0.3128313 -0.444369,0.2703266 -0.802298,0.6448794 -1.092288,1.058323 -0.296267,0.4223936 -0.538229,0.9089251 -0.739065,1.4242632 -0.207477,0.5323766 -0.378801,1.1155831 -0.52129,1.7254541 -0.285906,1.223709 -0.466913,2.603513 -0.579424,3.9909 -0.0066,0.08084 -0.01295,0.162355 -0.01917,0.244563 -0.111489,1.472836 -0.167124,3.140284 -0.157987,4.985454 0.0088,1.75331 0.231459,3.506612 0.586222,5.190741 0.339072,1.609639 0.788271,3.105679 1.245594,4.400783 0.703,1.990848 1.39252,3.426534 1.676059,3.991608 -0.0089,9.072732 0.100621,16.760777 0.638799,18.212415 0.136175,0.367308 0.377678,0.410679 0.453214,0.492815 z"
     id="path2767"
     inkscape:path-effect="#path-effect2769"
     inkscape:original-d="M 18.015448,52.479107 V 33.513436 c 0,0 -3.542313,-6.45884 -3.593753,-13.330221 -0.05144,-6.871381 0.848939,-12.8044587 3.593752,-12.7604487 2.744813,0.04401 3.459027,5.7620287 3.468748,12.4479487 0.0097,6.68592 -3.343747,13.642721 -3.343747,13.642721"
     sodipodi:nodetypes="cczzzc" />
</svg>
