<?xml version="1.0" encoding="UTF-8" standalone="no"?>
<svg
   xmlns:dc="http://purl.org/dc/elements/1.1/"
   xmlns:cc="http://creativecommons.org/ns#"
   xmlns:rdf="http://www.w3.org/1999/02/22-rdf-syntax-ns#"
   xmlns:svg="http://www.w3.org/2000/svg"
   xmlns="http://www.w3.org/2000/svg"
   xmlns:sodipodi="http://sodipodi.sourceforge.net/DTD/sodipodi-0.dtd"
   xmlns:inkscape="http://www.inkscape.org/namespaces/inkscape"
   id="emoji"
   viewBox="0 0 36 72"
   version="1.1"
   sodipodi:docname="exclamation-mark-upside-down-bracket-right.svg"
   width="36"
   height="72"
   inkscape:version="1.0.2-2 (e86c870879, 2021-01-15)"
   inkscape:export-filename="E:\GIT\ameji\Ameji\symbols\ameji_punctuation_309x618\exclamation-mark-upside-down-bracket-right.png"
   inkscape:export-xdpi="824"
   inkscape:export-ydpi="824">
  <g
     id="g1576"
     transform="matrix(-1,0,0,1,34.444134,0)"
     inkscape:export-filename="E:\GIT\ameji\Ameji\symbols\ameji_punctuation_309x618\exclamation-mark-upside-down-bracket-right.png"
     inkscape:export-xdpi="824"
     inkscape:export-ydpi="824">
    <path
       style="fill:#000000;fill-rule:nonzero;stroke:none;stroke-width:2;stroke-linecap:butt;stroke-linejoin:miter;stroke-miterlimit:4;stroke-dasharray:none;stroke-opacity:1"
       d="m 20.854919,64.404964 c 0.09766,-0.04794 1.159104,-0.556794 1.370806,-0.726679 0.542296,-0.435181 0.334051,-1.253017 -1.008995,-4.509922 -0.447898,-1.086157 -0.999221,-2.391723 -1.486107,-3.617172 -0.326906,-0.822792 -0.625778,-1.61156 -0.859086,-2.303349 -0.09539,-0.282839 -0.186946,-0.564615 -0.266556,-0.828673 -0.823985,-2.705263 -1.889067,-6.372442 -2.436239,-10.503847 -0.0975,-0.743886 -0.230405,-1.64585 -0.327909,-2.389733 -0.0902,-0.678651 -0.161104,-1.296812 -0.204932,-1.977545 -0.04479,-0.695695 -0.06248,-1.474577 -0.04067,-2.465474 0.02266,-1.029517 0.08734,-2.257095 0.199984,-3.781724 0.22586,-3.150439 0.964111,-6.302196 1.404444,-8.163396 0.839683,-3.549174 0.815404,-3.768124 0.342007,-4.023799 -0.117717,-0.06358 -0.839375,-0.37366 -0.847058,-0.376995 -0.0314,-0.01363 -0.702736,-0.309816 -0.856469,-0.355172 -0.34754,-0.102536 -0.972479,-0.056 -2.424474,3.539691 -0.776813,1.923683 -1.877475,5.214874 -2.374042,8.875309 -0.213119,1.549896 -0.373492,2.855882 -0.481094,3.980738 -0.10448,1.092211 -0.159607,2.015656 -0.171432,2.882114 -0.01169,0.856636 0.01945,1.622895 0.07554,2.405651 0.05508,0.768698 0.137066,1.585604 0.224731,2.479557 0.465527,4.688189 1.685346,8.805363 2.686113,11.608684 0.119549,0.33703 0.24911,0.675244 0.377032,0.994534 0.311719,0.778042 0.676918,1.631776 1.056985,2.483022 0.57559,1.289164 1.190182,2.584446 1.743592,3.67865 1.624487,3.211939 2.247215,3.876376 2.888475,3.731239 0.271098,-0.06136 1.312631,-0.585287 1.415348,-0.635709 z"
       id="path882"
       sodipodi:nodetypes="czzzc"
       inkscape:original-d="m 20.854919,64.404964 c 0,0 -3.634121,-7.403253 -4.865685,-11.118766 C 14.75767,49.570685 13.8563,45.960484 13.428058,42.229932 12.999816,38.49938 12.749024,37.350927 13.41742,31.048665 14.085816,24.746403 16.694609,18.736656 16.694609,18.736656"
       inkscape:path-effect="#path-effect2763" />
    <circle
       style="fill:none;stroke:#000000;stroke-width:2;stroke-miterlimit:4;stroke-dasharray:none"
       id="path28-2"
       cx="19.479919"
       cy="-11.828966"
       r="1.0081996"
       transform="scale(1,-1)" />
  </g>
  <metadata
     id="metadata23">
    <rdf:RDF>
      <cc:Work
         rdf:about="">
        <dc:format>image/svg+xml</dc:format>
        <dc:type
           rdf:resource="http://purl.org/dc/dcmitype/StillImage" />
        <dc:title />
      </cc:Work>
    </rdf:RDF>
  </metadata>
  <defs
     id="defs21">
    <inkscape:path-effect
       effect="powerstroke"
       id="path-effect2763"
       is_visible="true"
       lpeversion="1"
       offset_points="0.045781023,1.5507055 | 0.92357002,2.7310433 | 3.975302,0.92710208"
       sort_points="true"
       interpolator_type="CentripetalCatmullRom"
       interpolator_beta="0.2"
       start_linecap_type="zerowidth"
       linejoin_type="round"
       miter_limit="4"
       scale_width="1"
       end_linecap_type="zerowidth" />
    <marker
       style="overflow:visible"
       id="TriangleOutL"
       refX="0.0"
       refY="0.0"
       orient="auto"
       inkscape:stockid="TriangleOutL"
       inkscape:isstock="true">
      <path
         transform="scale(0.8)"
         style="fill-rule:evenodd;stroke:#000000;stroke-width:1pt;stroke-opacity:1;fill:#000000;fill-opacity:1"
         d="M 5.77,0.0 L -2.88,5.0 L -2.88,-5.0 L 5.77,0.0 z "
         id="path4172" />
    </marker>
    <marker
       style="overflow:visible"
       id="TriangleInL"
       refX="0.0"
       refY="0.0"
       orient="auto"
       inkscape:stockid="TriangleInL"
       inkscape:isstock="true">
      <path
         transform="scale(-0.8)"
         style="fill-rule:evenodd;stroke:#000000;stroke-width:1pt;stroke-opacity:1;fill:#000000;fill-opacity:1"
         d="M 5.77,0.0 L -2.88,5.0 L -2.88,-5.0 L 5.77,0.0 z "
         id="path4163" />
    </marker>
    <marker
       style="overflow:visible"
       id="Arrow2Lstart"
       refX="0.0"
       refY="0.0"
       orient="auto"
       inkscape:stockid="Arrow2Lstart"
       inkscape:isstock="true">
      <path
         transform="scale(1.1) translate(1,0)"
         d="M 8.7185878,4.0337352 L -2.2072895,0.016013256 L 8.7185884,-4.0017078 C 6.9730900,-1.6296469 6.9831476,1.6157441 8.7185878,4.0337352 z "
         style="fill-rule:evenodd;stroke-width:0.625;stroke-linejoin:round;stroke:#000000;stroke-opacity:1;fill:#000000;fill-opacity:1"
         id="path4048" />
    </marker>
  </defs>
  <sodipodi:namedview
     pagecolor="#ffffff"
     bordercolor="#666666"
     borderopacity="1"
     objecttolerance="10"
     gridtolerance="10"
     guidetolerance="10"
     inkscape:pageopacity="0"
     inkscape:pageshadow="2"
     inkscape:window-width="2560"
     inkscape:window-height="1361"
     id="namedview19"
     showgrid="false"
     inkscape:zoom="16"
     inkscape:cx="17.947332"
     inkscape:cy="32.18603"
     inkscape:window-x="-9"
     inkscape:window-y="623"
     inkscape:window-maximized="1"
     inkscape:current-layer="emoji"
     units="in"
     inkscape:snap-bbox="false"
     inkscape:snap-bbox-edge-midpoints="false"
     inkscape:object-paths="true"
     inkscape:document-rotation="0"
     inkscape:snap-global="true"
     inkscape:snap-nodes="true"
     inkscape:object-nodes="true"
     inkscape:snap-midpoints="true" />
  <g
     id="color" />
  <g
     id="hair" />
  <g
     id="skin" />
  <g
     id="skin-shadow" />
  <g
     id="line" />
  <g
     id="color-6"
     transform="translate(-12)" />
  <g
     id="hair-9"
     transform="translate(-12)" />
  <g
     id="skin-4"
     transform="translate(-12)" />
  <g
     id="skin-shadow-2"
     transform="translate(-12)" />
  <g
     id="line-3"
     transform="translate(-12)" />
  <g
     inkscape:groupmode="layer"
     id="layer2"
     inkscape:label="template"
     style="display:none">
    <g
       id="g26"
       transform="translate(85.562495,0.93749994)">
      <g
         id="g4092"
         transform="translate(-85.562495,-0.93749994)">
        <path
           d="M 32,4 V 68 H 4 V 4 H 32 M 36,0 H 0 v 72 h 36 z"
           fill="#b3b3b3"
           id="path2"
           sodipodi:nodetypes="cccccccccc" />
        <rect
           x="15.985359"
           y="-32"
           width="40.029282"
           height="27.999996"
           rx="2.2553501"
           transform="rotate(90)"
           fill="none"
           stroke="#00a5ff"
           stroke-miterlimit="10"
           stroke-width="0.0707137"
           id="rect8" />
        <ellipse
           fill="none"
           stroke="#00a5ff"
           stroke-miterlimit="10"
           stroke-width="0.0707033"
           id="circle10"
           ry="29.014648"
           rx="14"
           cy="36"
           cx="18" />
        <rect
           x="4"
           y="-27.989647"
           width="64"
           height="19.979296"
           rx="2.2528586"
           transform="rotate(90)"
           fill="none"
           stroke="#00a5ff"
           stroke-miterlimit="10"
           stroke-width="0.0707042"
           id="rect8-9"
           style="stroke-width:0.071;stroke-miterlimit:10;stroke-dasharray:none" />
        <rect
           x="10.9583"
           y="-27.989487"
           width="50.006344"
           height="19.978971"
           rx="2.2526038"
           transform="rotate(90)"
           fill="none"
           stroke="#00a5ff"
           stroke-miterlimit="10"
           stroke-width="0.0706707"
           id="rect8-9-4"
           style="stroke-width:0.071029;stroke-miterlimit:10;stroke-dasharray:none" />
      </g>
    </g>
    <g
       id="color-4"
       transform="translate(31.320698,2.8099069)" />
    <g
       id="hair-8"
       transform="translate(31.320698,2.8099069)" />
    <g
       id="skin-43"
       transform="translate(31.320698,2.8099069)" />
    <g
       id="skin-shadow-00"
       transform="translate(31.320698,2.8099069)" />
    <g
       id="line-50"
       transform="translate(31.320698,2.8099069)" />
    <g
       id="color-6-2"
       transform="translate(19.320698,2.8099069)" />
    <g
       id="hair-9-4"
       transform="translate(19.320698,2.8099069)" />
    <g
       id="skin-4-5"
       transform="translate(19.320698,2.8099069)" />
    <g
       id="skin-shadow-2-2"
       transform="translate(19.320698,2.8099069)" />
    <g
       id="line-3-3"
       transform="translate(19.320698,2.8099069)" />
    <g
       id="color-9"
       transform="translate(39.820698,34.059907)" />
    <g
       id="hair-7"
       transform="translate(39.820698,34.059907)" />
    <g
       id="skin-1"
       transform="translate(39.820698,34.059907)" />
    <g
       id="skin-shadow-0"
       transform="translate(39.820698,34.059907)" />
    <g
       id="line-5"
       transform="translate(39.820698,34.059907)" />
    <g
       id="color-6-9"
       transform="translate(27.820698,34.059907)" />
    <g
       id="hair-9-8"
       transform="translate(27.820698,34.059907)" />
    <g
       id="skin-4-7"
       transform="translate(27.820698,34.059907)" />
    <g
       id="skin-shadow-2-8"
       transform="translate(27.820698,34.059907)" />
    <g
       id="line-3-7"
       transform="translate(27.820698,34.059907)" />
    <path
       style="fill:none;stroke:#000000;stroke-width:2;stroke-linecap:round;stroke-linejoin:miter;stroke-miterlimit:4;stroke-dasharray:none;stroke-opacity:1"
       d="m 49.669125,10.681971 c 0,0 -9.83825,10.011648 -9.83825,29.044201 0,19.032553 9.516978,28.966857 9.516978,28.966857"
       id="path108"
       sodipodi:nodetypes="czc" />
  </g>
</svg>
