<?xml version="1.0" encoding="UTF-8" standalone="no"?>
<svg
   xmlns:dc="http://purl.org/dc/elements/1.1/"
   xmlns:cc="http://creativecommons.org/ns#"
   xmlns:rdf="http://www.w3.org/1999/02/22-rdf-syntax-ns#"
   xmlns:svg="http://www.w3.org/2000/svg"
   xmlns="http://www.w3.org/2000/svg"
   xmlns:sodipodi="http://sodipodi.sourceforge.net/DTD/sodipodi-0.dtd"
   xmlns:inkscape="http://www.inkscape.org/namespaces/inkscape"
   id="emoji"
   viewBox="0 0 36 72"
   version="1.1"
   sodipodi:docname="slash-backward.svg"
   width="36"
   height="72"
   inkscape:version="1.0.2-2 (e86c870879, 2021-01-15)"
   inkscape:export-filename="E:\GIT\ameji\Ameji\symbols\ameji_punctuation_309x618\slash-backward.png"
   inkscape:export-xdpi="824"
   inkscape:export-ydpi="824">
  <metadata
     id="metadata23">
    <rdf:RDF>
      <cc:Work
         rdf:about="">
        <dc:format>image/svg+xml</dc:format>
        <dc:type
           rdf:resource="http://purl.org/dc/dcmitype/StillImage" />
        <dc:title></dc:title>
      </cc:Work>
    </rdf:RDF>
  </metadata>
  <defs
     id="defs21" />
  <sodipodi:namedview
     pagecolor="#ffffff"
     bordercolor="#666666"
     borderopacity="1"
     objecttolerance="10"
     gridtolerance="10"
     guidetolerance="10"
     inkscape:pageopacity="0"
     inkscape:pageshadow="2"
     inkscape:window-width="2560"
     inkscape:window-height="1361"
     id="namedview19"
     showgrid="false"
     inkscape:zoom="16.000001"
     inkscape:cx="-6.4084812"
     inkscape:cy="34.876245"
     inkscape:window-x="-9"
     inkscape:window-y="623"
     inkscape:window-maximized="1"
     inkscape:current-layer="emoji"
     units="in"
     inkscape:snap-bbox="false"
     inkscape:snap-bbox-edge-midpoints="false"
     inkscape:object-paths="true"
     inkscape:document-rotation="0"
     inkscape:snap-intersection-paths="true" />
  <g
     id="color"
     transform="matrix(-1,0,0,1,36,0.0385285)" />
  <g
     id="hair"
     transform="matrix(-1,0,0,1,36,0.0385285)" />
  <g
     id="skin"
     transform="matrix(-1,0,0,1,36,0.0385285)" />
  <g
     id="skin-shadow"
     transform="matrix(-1,0,0,1,36,0.0385285)" />
  <g
     id="line"
     transform="matrix(-1,0,0,1,36,0.0385285)" />
  <g
     id="color-6"
     transform="matrix(-1,0,0,1,48,0.0385285)" />
  <g
     id="hair-9"
     transform="matrix(-1,0,0,1,48,0.0385285)" />
  <g
     id="skin-4"
     transform="matrix(-1,0,0,1,48,0.0385285)" />
  <g
     id="skin-shadow-2"
     transform="matrix(-1,0,0,1,48,0.0385285)" />
  <g
     id="line-3"
     transform="matrix(-1,0,0,1,48,0.0385285)" />
  <g
     id="color-8"
     transform="matrix(-1,0,0,1,24.301517,1.7803518)" />
  <g
     id="hair-5"
     transform="matrix(-1,0,0,1,24.301517,1.7803518)" />
  <g
     id="skin-6"
     transform="matrix(-1,0,0,1,24.301517,1.7803518)" />
  <g
     id="skin-shadow-7"
     transform="matrix(-1,0,0,1,24.301517,1.7803518)" />
  <g
     id="line-33"
     transform="matrix(-1,0,0,1,24.301517,1.7803518)" />
  <g
     id="color-6-2"
     transform="matrix(-1,0,0,1,36.301517,1.7803518)" />
  <g
     id="hair-9-8"
     transform="matrix(-1,0,0,1,36.301517,1.7803518)" />
  <g
     id="skin-4-5"
     transform="matrix(-1,0,0,1,36.301517,1.7803518)" />
  <g
     id="skin-shadow-2-8"
     transform="matrix(-1,0,0,1,36.301517,1.7803518)" />
  <g
     id="line-3-1"
     transform="matrix(-1,0,0,1,36.301517,1.7803518)" />
  <path
     style="fill:none;stroke:#000000;stroke-width:2;stroke-linecap:butt;stroke-linejoin:miter;stroke-miterlimit:4;stroke-dasharray:none;stroke-opacity:1"
     d="M 27.100409,61.003171 8.8995905,10.996829"
     id="path947-9"
     sodipodi:nodetypes="cc" />
</svg>
