<?xml version="1.0" encoding="UTF-8" standalone="no"?>
<svg
   xmlns:dc="http://purl.org/dc/elements/1.1/"
   xmlns:cc="http://creativecommons.org/ns#"
   xmlns:rdf="http://www.w3.org/1999/02/22-rdf-syntax-ns#"
   xmlns:svg="http://www.w3.org/2000/svg"
   xmlns="http://www.w3.org/2000/svg"
   xmlns:sodipodi="http://sodipodi.sourceforge.net/DTD/sodipodi-0.dtd"
   xmlns:inkscape="http://www.inkscape.org/namespaces/inkscape"
   id="emoji"
   viewBox="0 0 36 72"
   version="1.1"
   sodipodi:docname="unit-temperature-celcius.svg"
   width="36"
   height="72"
   inkscape:version="1.0.2-2 (e86c870879, 2021-01-15)"
   inkscape:export-filename="E:\GIT\ameji\Ameji\symbols\ameji_punctuation_309x618\bracket-left-with-arrow-down.png"
   inkscape:export-xdpi="824"
   inkscape:export-ydpi="824">
  <metadata
     id="metadata23">
    <rdf:RDF>
      <cc:Work
         rdf:about="">
        <dc:format>image/svg+xml</dc:format>
        <dc:type
           rdf:resource="http://purl.org/dc/dcmitype/StillImage" />
        <dc:title />
      </cc:Work>
    </rdf:RDF>
  </metadata>
  <defs
     id="defs21">
    <marker
       style="overflow:visible"
       id="Arrow2Lstart"
       refX="0.0"
       refY="0.0"
       orient="auto"
       inkscape:stockid="Arrow2Lstart"
       inkscape:isstock="true">
      <path
         transform="scale(1.1) translate(1,0)"
         d="M 8.7185878,4.0337352 L -2.2072895,0.016013256 L 8.7185884,-4.0017078 C 6.9730900,-1.6296469 6.9831476,1.6157441 8.7185878,4.0337352 z "
         style="fill-rule:evenodd;stroke-width:0.625;stroke-linejoin:round;stroke:#000000;stroke-opacity:1;fill:#000000;fill-opacity:1"
         id="path868" />
    </marker>
    <marker
       style="overflow:visible;"
       id="Arrow1Lend"
       refX="0.0"
       refY="0.0"
       orient="auto"
       inkscape:stockid="Arrow1Lend"
       inkscape:isstock="true">
      <path
         transform="scale(0.8) rotate(180) translate(12.5,0)"
         style="fill-rule:evenodd;stroke:#000000;stroke-width:1pt;stroke-opacity:1;fill:#000000;fill-opacity:1"
         d="M 0.0,0.0 L 5.0,-5.0 L -12.5,0.0 L 5.0,5.0 L 0.0,0.0 z "
         id="path853" />
    </marker>
  </defs>
  <sodipodi:namedview
     pagecolor="#ffffff"
     bordercolor="#666666"
     borderopacity="1"
     objecttolerance="10"
     gridtolerance="10"
     guidetolerance="10"
     inkscape:pageopacity="0"
     inkscape:pageshadow="2"
     inkscape:window-width="2560"
     inkscape:window-height="1361"
     id="namedview19"
     showgrid="false"
     inkscape:zoom="11.313709"
     inkscape:cx="3.3819624"
     inkscape:cy="32.812536"
     inkscape:window-x="-9"
     inkscape:window-y="623"
     inkscape:window-maximized="1"
     inkscape:current-layer="layer2"
     units="in"
     inkscape:snap-bbox="false"
     inkscape:snap-bbox-edge-midpoints="false"
     inkscape:object-paths="true"
     inkscape:document-rotation="0" />
  <g
     id="color" />
  <g
     id="hair" />
  <g
     id="skin" />
  <g
     id="skin-shadow" />
  <g
     id="line" />
  <g
     id="color-6"
     transform="translate(-12)" />
  <g
     id="hair-9"
     transform="translate(-12)" />
  <g
     id="skin-4"
     transform="translate(-12)" />
  <g
     id="skin-shadow-2"
     transform="translate(-12)" />
  <g
     id="line-3"
     transform="translate(-12)" />
  <g
     id="color-9"
     transform="translate(8.4999999,31.25)" />
  <g
     id="hair-7"
     transform="translate(8.4999999,31.25)" />
  <g
     id="skin-1"
     transform="translate(8.4999999,31.25)" />
  <g
     id="skin-shadow-0"
     transform="translate(8.4999999,31.25)" />
  <g
     id="line-5"
     transform="translate(8.4999999,31.25)" />
  <g
     id="color-6-9"
     transform="translate(-3.5000001,31.25)" />
  <g
     id="hair-9-8"
     transform="translate(-3.5000001,31.25)" />
  <g
     id="skin-4-7"
     transform="translate(-3.5000001,31.25)" />
  <g
     id="skin-shadow-2-8"
     transform="translate(-3.5000001,31.25)" />
  <g
     id="line-3-7"
     transform="translate(-3.5000001,31.25)" />
  <g
     inkscape:groupmode="layer"
     id="layer1"
     inkscape:label="template"
     style="display:none">
    <g
       id="g26"
       style="display:inline">
      <path
         d="M 32,4 V 68 H 4 V 4 H 32 M 36,0 H 0 v 72 h 36 z"
         fill="#b3b3b3"
         id="path2"
         sodipodi:nodetypes="cccccccccc" />
      <rect
         x="15.985359"
         y="-32"
         width="40.029282"
         height="27.999996"
         rx="2.2553501"
         transform="rotate(90)"
         fill="none"
         stroke="#00a5ff"
         stroke-miterlimit="10"
         stroke-width="0.0707137"
         id="rect8" />
      <ellipse
         fill="none"
         stroke="#00a5ff"
         stroke-miterlimit="10"
         stroke-width="0.0707033"
         id="circle10"
         ry="29.014648"
         rx="14"
         cy="36"
         cx="18" />
      <rect
         x="4"
         y="-27.989647"
         width="64"
         height="19.979296"
         rx="2.2528586"
         transform="rotate(90)"
         fill="none"
         stroke="#00a5ff"
         stroke-miterlimit="10"
         stroke-width="0.0707042"
         id="rect8-9"
         style="stroke-width:0.071;stroke-miterlimit:10;stroke-dasharray:none" />
      <rect
         x="10.9583"
         y="-27.989487"
         width="50.006344"
         height="19.978971"
         rx="2.2526038"
         transform="rotate(90)"
         fill="none"
         stroke="#00a5ff"
         stroke-miterlimit="10"
         stroke-width="0.0706707"
         id="rect8-9-4"
         style="stroke-width:0.071029;stroke-miterlimit:10;stroke-dasharray:none" />
    </g>
  </g>
  <g
     inkscape:groupmode="layer"
     id="layer2"
     inkscape:label="symbol">
    <g
       inkscape:label="Hershey Text"
       style="fill:none;stroke:#000000;stroke-width:2;stroke-linecap:round;stroke-linejoin:round;stroke-miterlimit:4;stroke-dasharray:none"
       id="g3148"
       transform="translate(-3.28412,-0.4084)">
      <g
         transform="translate(3.82812,48.6484)"
         id="g3146"
         style="stroke-width:2;stroke-miterlimit:4;stroke-dasharray:none">
        <path
           d="m 236,765 -19,-9 -19,-19 -9,-19 -9,-28 v -47 l 9,-29 9,-19 19,-19 19,-9 h 38 l 19,9 19,19 9,19 10,29 v 47 l -10,28 -9,19 -19,19 -19,9 h -38"
           style="stroke-width:62.5;stroke-miterlimit:4;stroke-dasharray:none"
           transform="scale(0.032,-0.032)"
           id="path3142" />
        <path
           d="m 662,504 -32,63 -63,63 -63,32 H 378 L 315,630 252,567 220,504 189,410 V 252 l 31,-94 32,-63.5 63,-63 L 378,0 h 126 l 63,31.5 63,63 32,63.5"
           style="stroke-width:62.5;stroke-miterlimit:4;stroke-dasharray:none"
           transform="matrix(0.032,0,0,-0.032,7.968,0)"
           id="path3144" />
      </g>
    </g>
  </g>
</svg>
